ISO-10303-21;
HEADER;
/* Generated by software containing ST-Developer
 * from STEP Tools, Inc. (www.steptools.com) 
 */

FILE_DESCRIPTION(
/* description */ (''),
/* implementation_level */ '2;1');

FILE_NAME(
/* name */ 'Main PCBA Washer.stp',
/* time_stamp */ '2026-04-09T17:03:34-04:00',
/* author */ ('rgoff'),
/* organization */ (''),
/* preprocessor_version */ 'ST-DEVELOPER v20',
/* originating_system */ 'Autodesk Inventor 2024',
/* authorisation */ '');

FILE_SCHEMA (('AUTOMOTIVE_DESIGN { 1 0 10303 214 3 1 1 }'));
ENDSEC;

DATA;
#10=MECHANICAL_DESIGN_GEOMETRIC_PRESENTATION_REPRESENTATION('',(#13),#1080);
#11=SHAPE_REPRESENTATION_RELATIONSHIP('SRR','None',#1091,#12);
#12=ADVANCED_BREP_SHAPE_REPRESENTATION('',(#14),#1079);
#13=STYLED_ITEM('',(#1100),#14);
#14=MANIFOLD_SOLID_BREP('Solid1',#616);
#15=FACE_BOUND('',#76,.T.);
#16=FACE_BOUND('',#77,.T.);
#17=FACE_BOUND('',#78,.T.);
#18=FACE_BOUND('',#83,.T.);
#19=FACE_BOUND('',#106,.T.);
#20=FACE_BOUND('',#107,.T.);
#21=PLANE('',#641);
#22=PLANE('',#645);
#23=PLANE('',#652);
#24=PLANE('',#670);
#25=PLANE('',#671);
#26=PLANE('',#679);
#27=PLANE('',#682);
#28=PLANE('',#685);
#29=PLANE('',#688);
#30=PLANE('',#691);
#31=PLANE('',#694);
#32=PLANE('',#699);
#33=PLANE('',#702);
#34=PLANE('',#705);
#35=PLANE('',#706);
#36=FACE_OUTER_BOUND('',#69,.T.);
#37=FACE_OUTER_BOUND('',#70,.T.);
#38=FACE_OUTER_BOUND('',#71,.T.);
#39=FACE_OUTER_BOUND('',#72,.T.);
#40=FACE_OUTER_BOUND('',#73,.T.);
#41=FACE_OUTER_BOUND('',#74,.T.);
#42=FACE_OUTER_BOUND('',#75,.T.);
#43=FACE_OUTER_BOUND('',#79,.T.);
#44=FACE_OUTER_BOUND('',#80,.T.);
#45=FACE_OUTER_BOUND('',#81,.T.);
#46=FACE_OUTER_BOUND('',#82,.T.);
#47=FACE_OUTER_BOUND('',#84,.T.);
#48=FACE_OUTER_BOUND('',#85,.T.);
#49=FACE_OUTER_BOUND('',#86,.T.);
#50=FACE_OUTER_BOUND('',#87,.T.);
#51=FACE_OUTER_BOUND('',#88,.T.);
#52=FACE_OUTER_BOUND('',#89,.T.);
#53=FACE_OUTER_BOUND('',#90,.T.);
#54=FACE_OUTER_BOUND('',#91,.T.);
#55=FACE_OUTER_BOUND('',#92,.T.);
#56=FACE_OUTER_BOUND('',#93,.T.);
#57=FACE_OUTER_BOUND('',#94,.T.);
#58=FACE_OUTER_BOUND('',#95,.T.);
#59=FACE_OUTER_BOUND('',#96,.T.);
#60=FACE_OUTER_BOUND('',#97,.T.);
#61=FACE_OUTER_BOUND('',#98,.T.);
#62=FACE_OUTER_BOUND('',#99,.T.);
#63=FACE_OUTER_BOUND('',#100,.T.);
#64=FACE_OUTER_BOUND('',#101,.T.);
#65=FACE_OUTER_BOUND('',#102,.T.);
#66=FACE_OUTER_BOUND('',#103,.T.);
#67=FACE_OUTER_BOUND('',#104,.T.);
#68=FACE_OUTER_BOUND('',#105,.T.);
#69=EDGE_LOOP('',(#391,#392,#393,#394));
#70=EDGE_LOOP('',(#395));
#71=EDGE_LOOP('',(#396,#397,#398,#399));
#72=EDGE_LOOP('',(#400));
#73=EDGE_LOOP('',(#401,#402,#403,#404));
#74=EDGE_LOOP('',(#405,#406,#407,#408));
#75=EDGE_LOOP('',(#409,#410,#411,#412,#413,#414,#415,#416,#417,#418,#419,
#420,#421,#422,#423,#424,#425,#426,#427,#428,#429,#430,#431));
#76=EDGE_LOOP('',(#432));
#77=EDGE_LOOP('',(#433));
#78=EDGE_LOOP('',(#434));
#79=EDGE_LOOP('',(#435,#436,#437,#438));
#80=EDGE_LOOP('',(#439,#440,#441,#442));
#81=EDGE_LOOP('',(#443,#444,#445,#446,#447,#448));
#82=EDGE_LOOP('',(#449,#450,#451,#452,#453,#454));
#83=EDGE_LOOP('',(#455));
#84=EDGE_LOOP('',(#456,#457,#458,#459));
#85=EDGE_LOOP('',(#460,#461,#462,#463));
#86=EDGE_LOOP('',(#464,#465,#466,#467));
#87=EDGE_LOOP('',(#468,#469,#470,#471));
#88=EDGE_LOOP('',(#472,#473,#474,#475));
#89=EDGE_LOOP('',(#476,#477,#478,#479));
#90=EDGE_LOOP('',(#480,#481,#482,#483));
#91=EDGE_LOOP('',(#484,#485,#486,#487));
#92=EDGE_LOOP('',(#488,#489,#490,#491));
#93=EDGE_LOOP('',(#492,#493,#494,#495,#496,#497));
#94=EDGE_LOOP('',(#498,#499,#500,#501));
#95=EDGE_LOOP('',(#502,#503,#504,#505));
#96=EDGE_LOOP('',(#506,#507,#508,#509));
#97=EDGE_LOOP('',(#510,#511,#512,#513));
#98=EDGE_LOOP('',(#514,#515,#516,#517));
#99=EDGE_LOOP('',(#518,#519,#520,#521));
#100=EDGE_LOOP('',(#522,#523,#524,#525));
#101=EDGE_LOOP('',(#526,#527,#528,#529));
#102=EDGE_LOOP('',(#530,#531,#532,#533));
#103=EDGE_LOOP('',(#534,#535,#536,#537));
#104=EDGE_LOOP('',(#538,#539,#540,#541));
#105=EDGE_LOOP('',(#542,#543,#544,#545,#546,#547,#548,#549,#550,#551,#552,
#553,#554,#555,#556,#557,#558,#559,#560,#561,#562));
#106=EDGE_LOOP('',(#563));
#107=EDGE_LOOP('',(#564));
#108=LINE('',#903,#159);
#109=LINE('',#910,#160);
#110=LINE('',#917,#161);
#111=LINE('',#924,#162);
#112=LINE('',#927,#163);
#113=LINE('',#934,#164);
#114=LINE('',#938,#165);
#115=LINE('',#942,#166);
#116=LINE('',#946,#167);
#117=LINE('',#950,#168);
#118=LINE('',#954,#169);
#119=LINE('',#958,#170);
#120=LINE('',#964,#171);
#121=LINE('',#968,#172);
#122=LINE('',#971,#173);
#123=LINE('',#977,#174);
#124=LINE('',#981,#175);
#125=LINE('',#984,#176);
#126=LINE('',#986,#177);
#127=LINE('',#988,#178);
#128=LINE('',#989,#179);
#129=LINE('',#993,#180);
#130=LINE('',#996,#181);
#131=LINE('',#1000,#182);
#132=LINE('',#1006,#183);
#133=LINE('',#1007,#184);
#134=LINE('',#1010,#185);
#135=LINE('',#1011,#186);
#136=LINE('',#1015,#187);
#137=LINE('',#1018,#188);
#138=LINE('',#1019,#189);
#139=LINE('',#1023,#190);
#140=LINE('',#1026,#191);
#141=LINE('',#1027,#192);
#142=LINE('',#1032,#193);
#143=LINE('',#1033,#194);
#144=LINE('',#1037,#195);
#145=LINE('',#1040,#196);
#146=LINE('',#1041,#197);
#147=LINE('',#1045,#198);
#148=LINE('',#1048,#199);
#149=LINE('',#1049,#200);
#150=LINE('',#1053,#201);
#151=LINE('',#1057,#202);
#152=LINE('',#1060,#203);
#153=LINE('',#1061,#204);
#154=LINE('',#1065,#205);
#155=LINE('',#1068,#206);
#156=LINE('',#1069,#207);
#157=LINE('',#1073,#208);
#158=LINE('',#1075,#209);
#159=VECTOR('',#713,0.0492125984251967);
#160=VECTOR('',#722,0.0492125984251968);
#161=VECTOR('',#731,0.047);
#162=VECTOR('',#738,0.393700787401575);
#163=VECTOR('',#741,0.393700787401575);
#164=VECTOR('',#748,0.393700787401575);
#165=VECTOR('',#751,0.393700787401575);
#166=VECTOR('',#754,0.393700787401575);
#167=VECTOR('',#757,0.393700787401575);
#168=VECTOR('',#760,0.393700787401575);
#169=VECTOR('',#763,0.393700787401575);
#170=VECTOR('',#766,0.393700787401575);
#171=VECTOR('',#771,0.393700787401575);
#172=VECTOR('',#774,0.393700787401575);
#173=VECTOR('',#777,0.393700787401575);
#174=VECTOR('',#784,0.393700787401575);
#175=VECTOR('',#789,0.393700787401575);
#176=VECTOR('',#792,0.393700787401575);
#177=VECTOR('',#793,0.393700787401575);
#178=VECTOR('',#794,0.393700787401575);
#179=VECTOR('',#795,0.393700787401575);
#180=VECTOR('',#800,0.393700787401575);
#181=VECTOR('',#803,0.393700787401575);
#182=VECTOR('',#808,0.047);
#183=VECTOR('',#815,0.393700787401575);
#184=VECTOR('',#816,0.393700787401575);
#185=VECTOR('',#819,0.393700787401575);
#186=VECTOR('',#820,0.393700787401575);
#187=VECTOR('',#825,0.393700787401575);
#188=VECTOR('',#828,0.393700787401575);
#189=VECTOR('',#829,0.393700787401575);
#190=VECTOR('',#834,0.393700787401575);
#191=VECTOR('',#837,0.393700787401575);
#192=VECTOR('',#838,0.393700787401575);
#193=VECTOR('',#845,0.393700787401575);
#194=VECTOR('',#846,0.393700787401575);
#195=VECTOR('',#851,0.393700787401575);
#196=VECTOR('',#854,0.393700787401575);
#197=VECTOR('',#855,0.393700787401575);
#198=VECTOR('',#860,0.393700787401575);
#199=VECTOR('',#863,0.393700787401575);
#200=VECTOR('',#864,0.393700787401575);
#201=VECTOR('',#869,0.393700787401575);
#202=VECTOR('',#874,0.393700787401575);
#203=VECTOR('',#877,0.393700787401575);
#204=VECTOR('',#878,0.393700787401575);
#205=VECTOR('',#883,0.393700787401575);
#206=VECTOR('',#886,0.393700787401575);
#207=VECTOR('',#887,0.393700787401575);
#208=VECTOR('',#892,0.393700787401575);
#209=VECTOR('',#895,0.393700787401575);
#210=CIRCLE('',#639,0.0492125984251967);
#211=CIRCLE('',#640,0.0492125984251967);
#212=CIRCLE('',#643,0.0492125984251968);
#213=CIRCLE('',#644,0.0492125984251968);
#214=CIRCLE('',#647,0.047);
#215=CIRCLE('',#648,0.047);
#216=CIRCLE('',#650,0.06);
#217=CIRCLE('',#651,0.06);
#218=CIRCLE('',#653,0.196850393700788);
#219=CIRCLE('',#654,0.06);
#220=CIRCLE('',#655,0.0787401574803139);
#221=CIRCLE('',#656,0.500000000000004);
#222=CIRCLE('',#657,0.500000000000006);
#223=CIRCLE('',#658,0.078740157480315);
#224=CIRCLE('',#659,0.125);
#225=CIRCLE('',#660,0.125);
#226=CIRCLE('',#661,0.196850393700787);
#227=CIRCLE('',#662,0.125);
#228=CIRCLE('',#663,0.125000000000001);
#229=CIRCLE('',#664,0.500000000000001);
#230=CIRCLE('',#665,0.047);
#231=CIRCLE('',#667,0.196850393700788);
#232=CIRCLE('',#669,0.06);
#233=CIRCLE('',#672,0.196850393700788);
#234=CIRCLE('',#674,0.196850393700788);
#235=CIRCLE('',#676,0.047);
#236=CIRCLE('',#678,0.078740157480315);
#237=CIRCLE('',#681,0.500000000000006);
#238=CIRCLE('',#684,0.500000000000004);
#239=CIRCLE('',#687,0.0787401574803139);
#240=CIRCLE('',#690,0.500000000000001);
#241=CIRCLE('',#693,0.125000000000001);
#242=CIRCLE('',#696,0.125);
#243=CIRCLE('',#698,0.196850393700787);
#244=CIRCLE('',#701,0.125);
#245=CIRCLE('',#704,0.125);
#246=VERTEX_POINT('',#900);
#247=VERTEX_POINT('',#902);
#248=VERTEX_POINT('',#907);
#249=VERTEX_POINT('',#909);
#250=VERTEX_POINT('',#914);
#251=VERTEX_POINT('',#916);
#252=VERTEX_POINT('',#920);
#253=VERTEX_POINT('',#921);
#254=VERTEX_POINT('',#923);
#255=VERTEX_POINT('',#925);
#256=VERTEX_POINT('',#929);
#257=VERTEX_POINT('',#931);
#258=VERTEX_POINT('',#933);
#259=VERTEX_POINT('',#935);
#260=VERTEX_POINT('',#937);
#261=VERTEX_POINT('',#939);
#262=VERTEX_POINT('',#941);
#263=VERTEX_POINT('',#943);
#264=VERTEX_POINT('',#945);
#265=VERTEX_POINT('',#947);
#266=VERTEX_POINT('',#949);
#267=VERTEX_POINT('',#951);
#268=VERTEX_POINT('',#953);
#269=VERTEX_POINT('',#955);
#270=VERTEX_POINT('',#957);
#271=VERTEX_POINT('',#959);
#272=VERTEX_POINT('',#961);
#273=VERTEX_POINT('',#963);
#274=VERTEX_POINT('',#965);
#275=VERTEX_POINT('',#967);
#276=VERTEX_POINT('',#969);
#277=VERTEX_POINT('',#972);
#278=VERTEX_POINT('',#975);
#279=VERTEX_POINT('',#979);
#280=VERTEX_POINT('',#983);
#281=VERTEX_POINT('',#985);
#282=VERTEX_POINT('',#987);
#283=VERTEX_POINT('',#991);
#284=VERTEX_POINT('',#995);
#285=VERTEX_POINT('',#999);
#286=VERTEX_POINT('',#1003);
#287=VERTEX_POINT('',#1004);
#288=VERTEX_POINT('',#1009);
#289=VERTEX_POINT('',#1013);
#290=VERTEX_POINT('',#1017);
#291=VERTEX_POINT('',#1021);
#292=VERTEX_POINT('',#1025);
#293=VERTEX_POINT('',#1031);
#294=VERTEX_POINT('',#1035);
#295=VERTEX_POINT('',#1039);
#296=VERTEX_POINT('',#1043);
#297=VERTEX_POINT('',#1047);
#298=VERTEX_POINT('',#1051);
#299=VERTEX_POINT('',#1055);
#300=VERTEX_POINT('',#1059);
#301=VERTEX_POINT('',#1063);
#302=VERTEX_POINT('',#1067);
#303=VERTEX_POINT('',#1071);
#304=EDGE_CURVE('',#246,#246,#210,.T.);
#305=EDGE_CURVE('',#246,#247,#108,.T.);
#306=EDGE_CURVE('',#247,#247,#211,.T.);
#307=EDGE_CURVE('',#248,#248,#212,.T.);
#308=EDGE_CURVE('',#248,#249,#109,.T.);
#309=EDGE_CURVE('',#249,#249,#213,.T.);
#310=EDGE_CURVE('',#250,#250,#214,.T.);
#311=EDGE_CURVE('',#250,#251,#110,.T.);
#312=EDGE_CURVE('',#251,#251,#215,.T.);
#313=EDGE_CURVE('',#252,#253,#216,.T.);
#314=EDGE_CURVE('',#253,#254,#111,.T.);
#315=EDGE_CURVE('',#254,#255,#217,.F.);
#316=EDGE_CURVE('',#255,#252,#112,.T.);
#317=EDGE_CURVE('',#252,#256,#218,.T.);
#318=EDGE_CURVE('',#257,#256,#219,.T.);
#319=EDGE_CURVE('',#257,#258,#113,.T.);
#320=EDGE_CURVE('',#258,#259,#220,.T.);
#321=EDGE_CURVE('',#259,#260,#114,.T.);
#322=EDGE_CURVE('',#260,#261,#221,.T.);
#323=EDGE_CURVE('',#261,#262,#115,.T.);
#324=EDGE_CURVE('',#262,#263,#222,.T.);
#325=EDGE_CURVE('',#263,#264,#116,.T.);
#326=EDGE_CURVE('',#264,#265,#223,.T.);
#327=EDGE_CURVE('',#265,#266,#117,.T.);
#328=EDGE_CURVE('',#266,#267,#224,.T.);
#329=EDGE_CURVE('',#267,#268,#118,.T.);
#330=EDGE_CURVE('',#268,#269,#225,.T.);
#331=EDGE_CURVE('',#269,#270,#119,.T.);
#332=EDGE_CURVE('',#270,#271,#226,.T.);
#333=EDGE_CURVE('',#271,#272,#227,.T.);
#334=EDGE_CURVE('',#272,#273,#120,.T.);
#335=EDGE_CURVE('',#273,#274,#228,.T.);
#336=EDGE_CURVE('',#274,#275,#121,.T.);
#337=EDGE_CURVE('',#275,#276,#229,.T.);
#338=EDGE_CURVE('',#276,#253,#122,.T.);
#339=EDGE_CURVE('',#277,#277,#230,.T.);
#340=EDGE_CURVE('',#255,#278,#231,.T.);
#341=EDGE_CURVE('',#256,#278,#123,.T.);
#342=EDGE_CURVE('',#279,#278,#232,.T.);
#343=EDGE_CURVE('',#279,#257,#124,.T.);
#344=EDGE_CURVE('',#280,#279,#125,.T.);
#345=EDGE_CURVE('',#281,#280,#126,.T.);
#346=EDGE_CURVE('',#281,#282,#127,.T.);
#347=EDGE_CURVE('',#282,#258,#128,.T.);
#348=EDGE_CURVE('',#280,#283,#233,.T.);
#349=EDGE_CURVE('',#254,#283,#129,.T.);
#350=EDGE_CURVE('',#284,#283,#130,.T.);
#351=EDGE_CURVE('',#284,#281,#234,.T.);
#352=EDGE_CURVE('',#277,#285,#131,.T.);
#353=EDGE_CURVE('',#285,#285,#235,.T.);
#354=EDGE_CURVE('',#286,#287,#236,.T.);
#355=EDGE_CURVE('',#287,#265,#132,.T.);
#356=EDGE_CURVE('',#286,#264,#133,.T.);
#357=EDGE_CURVE('',#288,#286,#134,.T.);
#358=EDGE_CURVE('',#288,#263,#135,.T.);
#359=EDGE_CURVE('',#289,#288,#237,.T.);
#360=EDGE_CURVE('',#289,#262,#136,.T.);
#361=EDGE_CURVE('',#290,#289,#137,.T.);
#362=EDGE_CURVE('',#290,#261,#138,.T.);
#363=EDGE_CURVE('',#291,#290,#238,.T.);
#364=EDGE_CURVE('',#291,#260,#139,.T.);
#365=EDGE_CURVE('',#292,#291,#140,.T.);
#366=EDGE_CURVE('',#292,#259,#141,.T.);
#367=EDGE_CURVE('',#282,#292,#239,.T.);
#368=EDGE_CURVE('',#293,#276,#142,.T.);
#369=EDGE_CURVE('',#293,#284,#143,.T.);
#370=EDGE_CURVE('',#294,#293,#240,.T.);
#371=EDGE_CURVE('',#294,#275,#144,.T.);
#372=EDGE_CURVE('',#295,#294,#145,.T.);
#373=EDGE_CURVE('',#295,#274,#146,.T.);
#374=EDGE_CURVE('',#296,#295,#241,.T.);
#375=EDGE_CURVE('',#296,#273,#147,.T.);
#376=EDGE_CURVE('',#297,#296,#148,.T.);
#377=EDGE_CURVE('',#297,#272,#149,.T.);
#378=EDGE_CURVE('',#298,#297,#242,.T.);
#379=EDGE_CURVE('',#298,#271,#150,.T.);
#380=EDGE_CURVE('',#299,#298,#243,.T.);
#381=EDGE_CURVE('',#299,#270,#151,.T.);
#382=EDGE_CURVE('',#300,#299,#152,.T.);
#383=EDGE_CURVE('',#300,#269,#153,.T.);
#384=EDGE_CURVE('',#301,#300,#244,.T.);
#385=EDGE_CURVE('',#301,#268,#154,.T.);
#386=EDGE_CURVE('',#302,#301,#155,.T.);
#387=EDGE_CURVE('',#302,#267,#156,.T.);
#388=EDGE_CURVE('',#303,#302,#245,.T.);
#389=EDGE_CURVE('',#303,#266,#157,.T.);
#390=EDGE_CURVE('',#287,#303,#158,.T.);
#391=ORIENTED_EDGE('',*,*,#304,.F.);
#392=ORIENTED_EDGE('',*,*,#305,.T.);
#393=ORIENTED_EDGE('',*,*,#306,.F.);
#394=ORIENTED_EDGE('',*,*,#305,.F.);
#395=ORIENTED_EDGE('',*,*,#304,.T.);
#396=ORIENTED_EDGE('',*,*,#307,.F.);
#397=ORIENTED_EDGE('',*,*,#308,.T.);
#398=ORIENTED_EDGE('',*,*,#309,.F.);
#399=ORIENTED_EDGE('',*,*,#308,.F.);
#400=ORIENTED_EDGE('',*,*,#307,.T.);
#401=ORIENTED_EDGE('',*,*,#310,.F.);
#402=ORIENTED_EDGE('',*,*,#311,.T.);
#403=ORIENTED_EDGE('',*,*,#312,.F.);
#404=ORIENTED_EDGE('',*,*,#311,.F.);
#405=ORIENTED_EDGE('',*,*,#313,.T.);
#406=ORIENTED_EDGE('',*,*,#314,.T.);
#407=ORIENTED_EDGE('',*,*,#315,.T.);
#408=ORIENTED_EDGE('',*,*,#316,.T.);
#409=ORIENTED_EDGE('',*,*,#313,.F.);
#410=ORIENTED_EDGE('',*,*,#317,.T.);
#411=ORIENTED_EDGE('',*,*,#318,.F.);
#412=ORIENTED_EDGE('',*,*,#319,.T.);
#413=ORIENTED_EDGE('',*,*,#320,.T.);
#414=ORIENTED_EDGE('',*,*,#321,.T.);
#415=ORIENTED_EDGE('',*,*,#322,.T.);
#416=ORIENTED_EDGE('',*,*,#323,.T.);
#417=ORIENTED_EDGE('',*,*,#324,.T.);
#418=ORIENTED_EDGE('',*,*,#325,.T.);
#419=ORIENTED_EDGE('',*,*,#326,.T.);
#420=ORIENTED_EDGE('',*,*,#327,.T.);
#421=ORIENTED_EDGE('',*,*,#328,.T.);
#422=ORIENTED_EDGE('',*,*,#329,.T.);
#423=ORIENTED_EDGE('',*,*,#330,.T.);
#424=ORIENTED_EDGE('',*,*,#331,.T.);
#425=ORIENTED_EDGE('',*,*,#332,.T.);
#426=ORIENTED_EDGE('',*,*,#333,.T.);
#427=ORIENTED_EDGE('',*,*,#334,.T.);
#428=ORIENTED_EDGE('',*,*,#335,.T.);
#429=ORIENTED_EDGE('',*,*,#336,.T.);
#430=ORIENTED_EDGE('',*,*,#337,.T.);
#431=ORIENTED_EDGE('',*,*,#338,.T.);
#432=ORIENTED_EDGE('',*,*,#306,.T.);
#433=ORIENTED_EDGE('',*,*,#309,.T.);
#434=ORIENTED_EDGE('',*,*,#339,.T.);
#435=ORIENTED_EDGE('',*,*,#316,.F.);
#436=ORIENTED_EDGE('',*,*,#340,.T.);
#437=ORIENTED_EDGE('',*,*,#341,.F.);
#438=ORIENTED_EDGE('',*,*,#317,.F.);
#439=ORIENTED_EDGE('',*,*,#318,.T.);
#440=ORIENTED_EDGE('',*,*,#341,.T.);
#441=ORIENTED_EDGE('',*,*,#342,.F.);
#442=ORIENTED_EDGE('',*,*,#343,.T.);
#443=ORIENTED_EDGE('',*,*,#343,.F.);
#444=ORIENTED_EDGE('',*,*,#344,.F.);
#445=ORIENTED_EDGE('',*,*,#345,.F.);
#446=ORIENTED_EDGE('',*,*,#346,.T.);
#447=ORIENTED_EDGE('',*,*,#347,.T.);
#448=ORIENTED_EDGE('',*,*,#319,.F.);
#449=ORIENTED_EDGE('',*,*,#348,.F.);
#450=ORIENTED_EDGE('',*,*,#344,.T.);
#451=ORIENTED_EDGE('',*,*,#342,.T.);
#452=ORIENTED_EDGE('',*,*,#340,.F.);
#453=ORIENTED_EDGE('',*,*,#315,.F.);
#454=ORIENTED_EDGE('',*,*,#349,.T.);
#455=ORIENTED_EDGE('',*,*,#310,.T.);
#456=ORIENTED_EDGE('',*,*,#348,.T.);
#457=ORIENTED_EDGE('',*,*,#350,.F.);
#458=ORIENTED_EDGE('',*,*,#351,.T.);
#459=ORIENTED_EDGE('',*,*,#345,.T.);
#460=ORIENTED_EDGE('',*,*,#339,.F.);
#461=ORIENTED_EDGE('',*,*,#352,.T.);
#462=ORIENTED_EDGE('',*,*,#353,.F.);
#463=ORIENTED_EDGE('',*,*,#352,.F.);
#464=ORIENTED_EDGE('',*,*,#354,.T.);
#465=ORIENTED_EDGE('',*,*,#355,.T.);
#466=ORIENTED_EDGE('',*,*,#326,.F.);
#467=ORIENTED_EDGE('',*,*,#356,.F.);
#468=ORIENTED_EDGE('',*,*,#357,.T.);
#469=ORIENTED_EDGE('',*,*,#356,.T.);
#470=ORIENTED_EDGE('',*,*,#325,.F.);
#471=ORIENTED_EDGE('',*,*,#358,.F.);
#472=ORIENTED_EDGE('',*,*,#359,.T.);
#473=ORIENTED_EDGE('',*,*,#358,.T.);
#474=ORIENTED_EDGE('',*,*,#324,.F.);
#475=ORIENTED_EDGE('',*,*,#360,.F.);
#476=ORIENTED_EDGE('',*,*,#361,.T.);
#477=ORIENTED_EDGE('',*,*,#360,.T.);
#478=ORIENTED_EDGE('',*,*,#323,.F.);
#479=ORIENTED_EDGE('',*,*,#362,.F.);
#480=ORIENTED_EDGE('',*,*,#363,.T.);
#481=ORIENTED_EDGE('',*,*,#362,.T.);
#482=ORIENTED_EDGE('',*,*,#322,.F.);
#483=ORIENTED_EDGE('',*,*,#364,.F.);
#484=ORIENTED_EDGE('',*,*,#365,.T.);
#485=ORIENTED_EDGE('',*,*,#364,.T.);
#486=ORIENTED_EDGE('',*,*,#321,.F.);
#487=ORIENTED_EDGE('',*,*,#366,.F.);
#488=ORIENTED_EDGE('',*,*,#367,.T.);
#489=ORIENTED_EDGE('',*,*,#366,.T.);
#490=ORIENTED_EDGE('',*,*,#320,.F.);
#491=ORIENTED_EDGE('',*,*,#347,.F.);
#492=ORIENTED_EDGE('',*,*,#314,.F.);
#493=ORIENTED_EDGE('',*,*,#338,.F.);
#494=ORIENTED_EDGE('',*,*,#368,.F.);
#495=ORIENTED_EDGE('',*,*,#369,.T.);
#496=ORIENTED_EDGE('',*,*,#350,.T.);
#497=ORIENTED_EDGE('',*,*,#349,.F.);
#498=ORIENTED_EDGE('',*,*,#370,.T.);
#499=ORIENTED_EDGE('',*,*,#368,.T.);
#500=ORIENTED_EDGE('',*,*,#337,.F.);
#501=ORIENTED_EDGE('',*,*,#371,.F.);
#502=ORIENTED_EDGE('',*,*,#372,.T.);
#503=ORIENTED_EDGE('',*,*,#371,.T.);
#504=ORIENTED_EDGE('',*,*,#336,.F.);
#505=ORIENTED_EDGE('',*,*,#373,.F.);
#506=ORIENTED_EDGE('',*,*,#374,.T.);
#507=ORIENTED_EDGE('',*,*,#373,.T.);
#508=ORIENTED_EDGE('',*,*,#335,.F.);
#509=ORIENTED_EDGE('',*,*,#375,.F.);
#510=ORIENTED_EDGE('',*,*,#376,.T.);
#511=ORIENTED_EDGE('',*,*,#375,.T.);
#512=ORIENTED_EDGE('',*,*,#334,.F.);
#513=ORIENTED_EDGE('',*,*,#377,.F.);
#514=ORIENTED_EDGE('',*,*,#378,.T.);
#515=ORIENTED_EDGE('',*,*,#377,.T.);
#516=ORIENTED_EDGE('',*,*,#333,.F.);
#517=ORIENTED_EDGE('',*,*,#379,.F.);
#518=ORIENTED_EDGE('',*,*,#380,.T.);
#519=ORIENTED_EDGE('',*,*,#379,.T.);
#520=ORIENTED_EDGE('',*,*,#332,.F.);
#521=ORIENTED_EDGE('',*,*,#381,.F.);
#522=ORIENTED_EDGE('',*,*,#382,.T.);
#523=ORIENTED_EDGE('',*,*,#381,.T.);
#524=ORIENTED_EDGE('',*,*,#331,.F.);
#525=ORIENTED_EDGE('',*,*,#383,.F.);
#526=ORIENTED_EDGE('',*,*,#384,.T.);
#527=ORIENTED_EDGE('',*,*,#383,.T.);
#528=ORIENTED_EDGE('',*,*,#330,.F.);
#529=ORIENTED_EDGE('',*,*,#385,.F.);
#530=ORIENTED_EDGE('',*,*,#386,.T.);
#531=ORIENTED_EDGE('',*,*,#385,.T.);
#532=ORIENTED_EDGE('',*,*,#329,.F.);
#533=ORIENTED_EDGE('',*,*,#387,.F.);
#534=ORIENTED_EDGE('',*,*,#388,.T.);
#535=ORIENTED_EDGE('',*,*,#387,.T.);
#536=ORIENTED_EDGE('',*,*,#328,.F.);
#537=ORIENTED_EDGE('',*,*,#389,.F.);
#538=ORIENTED_EDGE('',*,*,#390,.T.);
#539=ORIENTED_EDGE('',*,*,#389,.T.);
#540=ORIENTED_EDGE('',*,*,#327,.F.);
#541=ORIENTED_EDGE('',*,*,#355,.F.);
#542=ORIENTED_EDGE('',*,*,#390,.F.);
#543=ORIENTED_EDGE('',*,*,#354,.F.);
#544=ORIENTED_EDGE('',*,*,#357,.F.);
#545=ORIENTED_EDGE('',*,*,#359,.F.);
#546=ORIENTED_EDGE('',*,*,#361,.F.);
#547=ORIENTED_EDGE('',*,*,#363,.F.);
#548=ORIENTED_EDGE('',*,*,#365,.F.);
#549=ORIENTED_EDGE('',*,*,#367,.F.);
#550=ORIENTED_EDGE('',*,*,#346,.F.);
#551=ORIENTED_EDGE('',*,*,#351,.F.);
#552=ORIENTED_EDGE('',*,*,#369,.F.);
#553=ORIENTED_EDGE('',*,*,#370,.F.);
#554=ORIENTED_EDGE('',*,*,#372,.F.);
#555=ORIENTED_EDGE('',*,*,#374,.F.);
#556=ORIENTED_EDGE('',*,*,#376,.F.);
#557=ORIENTED_EDGE('',*,*,#378,.F.);
#558=ORIENTED_EDGE('',*,*,#380,.F.);
#559=ORIENTED_EDGE('',*,*,#382,.F.);
#560=ORIENTED_EDGE('',*,*,#384,.F.);
#561=ORIENTED_EDGE('',*,*,#386,.F.);
#562=ORIENTED_EDGE('',*,*,#388,.F.);
#563=ORIENTED_EDGE('',*,*,#312,.T.);
#564=ORIENTED_EDGE('',*,*,#353,.T.);
#565=CYLINDRICAL_SURFACE('',#638,0.0492125984251967);
#566=CYLINDRICAL_SURFACE('',#642,0.0492125984251968);
#567=CYLINDRICAL_SURFACE('',#646,0.047);
#568=CYLINDRICAL_SURFACE('',#649,0.06);
#569=CYLINDRICAL_SURFACE('',#666,0.196850393700788);
#570=CYLINDRICAL_SURFACE('',#668,0.06);
#571=CYLINDRICAL_SURFACE('',#673,0.196850393700788);
#572=CYLINDRICAL_SURFACE('',#675,0.047);
#573=CYLINDRICAL_SURFACE('',#677,0.078740157480315);
#574=CYLINDRICAL_SURFACE('',#680,0.500000000000006);
#575=CYLINDRICAL_SURFACE('',#683,0.500000000000004);
#576=CYLINDRICAL_SURFACE('',#686,0.0787401574803139);
#577=CYLINDRICAL_SURFACE('',#689,0.500000000000001);
#578=CYLINDRICAL_SURFACE('',#692,0.125000000000001);
#579=CYLINDRICAL_SURFACE('',#695,0.125);
#580=CYLINDRICAL_SURFACE('',#697,0.196850393700787);
#581=CYLINDRICAL_SURFACE('',#700,0.125);
#582=CYLINDRICAL_SURFACE('',#703,0.125);
#583=ADVANCED_FACE('',(#36),#565,.T.);
#584=ADVANCED_FACE('',(#37),#21,.T.);
#585=ADVANCED_FACE('',(#38),#566,.T.);
#586=ADVANCED_FACE('',(#39),#22,.T.);
#587=ADVANCED_FACE('',(#40),#567,.F.);
#588=ADVANCED_FACE('',(#41),#568,.T.);
#589=ADVANCED_FACE('',(#42,#15,#16,#17),#23,.T.);
#590=ADVANCED_FACE('',(#43),#569,.F.);
#591=ADVANCED_FACE('',(#44),#570,.T.);
#592=ADVANCED_FACE('',(#45),#24,.T.);
#593=ADVANCED_FACE('',(#46,#18),#25,.T.);
#594=ADVANCED_FACE('',(#47),#571,.T.);
#595=ADVANCED_FACE('',(#48),#572,.F.);
#596=ADVANCED_FACE('',(#49),#573,.T.);
#597=ADVANCED_FACE('',(#50),#26,.T.);
#598=ADVANCED_FACE('',(#51),#574,.F.);
#599=ADVANCED_FACE('',(#52),#27,.T.);
#600=ADVANCED_FACE('',(#53),#575,.F.);
#601=ADVANCED_FACE('',(#54),#28,.T.);
#602=ADVANCED_FACE('',(#55),#576,.T.);
#603=ADVANCED_FACE('',(#56),#29,.T.);
#604=ADVANCED_FACE('',(#57),#577,.F.);
#605=ADVANCED_FACE('',(#58),#30,.T.);
#606=ADVANCED_FACE('',(#59),#578,.T.);
#607=ADVANCED_FACE('',(#60),#31,.T.);
#608=ADVANCED_FACE('',(#61),#579,.F.);
#609=ADVANCED_FACE('',(#62),#580,.T.);
#610=ADVANCED_FACE('',(#63),#32,.T.);
#611=ADVANCED_FACE('',(#64),#581,.F.);
#612=ADVANCED_FACE('',(#65),#33,.T.);
#613=ADVANCED_FACE('',(#66),#582,.T.);
#614=ADVANCED_FACE('',(#67),#34,.T.);
#615=ADVANCED_FACE('',(#68,#19,#20),#35,.F.);
#616=CLOSED_SHELL('',(#583,#584,#585,#586,#587,#588,#589,#590,#591,#592,
#593,#594,#595,#596,#597,#598,#599,#600,#601,#602,#603,#604,#605,#606,#607,
#608,#609,#610,#611,#612,#613,#614,#615));
#617=DERIVED_UNIT_ELEMENT(#619,1.);
#618=DERIVED_UNIT_ELEMENT(#1085,-3.);
#619=(
CONVERSION_BASED_UNIT('gram',#621)
MASS_UNIT()
NAMED_UNIT(#1082)
);
#620=(
MASS_UNIT()
NAMED_UNIT(*)
SI_UNIT(.KILO.,.GRAM.)
);
#621=MASS_MEASURE_WITH_UNIT(MASS_MEASURE(0.001),#620);
#622=DERIVED_UNIT((#617,#618));
#623=MEASURE_REPRESENTATION_ITEM('density measure',
POSITIVE_RATIO_MEASURE(1.541),#622);
#624=PROPERTY_DEFINITION_REPRESENTATION(#629,#626);
#625=PROPERTY_DEFINITION_REPRESENTATION(#630,#627);
#626=REPRESENTATION('material name',(#628),#1079);
#627=REPRESENTATION('density',(#623),#1079);
#628=DESCRIPTIVE_REPRESENTATION_ITEM('PET Plastic','PET Plastic');
#629=PROPERTY_DEFINITION('material property','material name',#1093);
#630=PROPERTY_DEFINITION('material property','density of part',#1093);
#631=DATE_TIME_ROLE('creation_date');
#632=APPLIED_DATE_AND_TIME_ASSIGNMENT(#633,#631,(#1093));
#633=DATE_AND_TIME(#634,#635);
#634=CALENDAR_DATE(2026,5,4);
#635=LOCAL_TIME(0,0,0.,#636);
#636=COORDINATED_UNIVERSAL_TIME_OFFSET(0,0,.BEHIND.);
#637=AXIS2_PLACEMENT_3D('',#898,#707,#708);
#638=AXIS2_PLACEMENT_3D('',#899,#709,#710);
#639=AXIS2_PLACEMENT_3D('',#901,#711,#712);
#640=AXIS2_PLACEMENT_3D('',#904,#714,#715);
#641=AXIS2_PLACEMENT_3D('',#905,#716,#717);
#642=AXIS2_PLACEMENT_3D('',#906,#718,#719);
#643=AXIS2_PLACEMENT_3D('',#908,#720,#721);
#644=AXIS2_PLACEMENT_3D('',#911,#723,#724);
#645=AXIS2_PLACEMENT_3D('',#912,#725,#726);
#646=AXIS2_PLACEMENT_3D('',#913,#727,#728);
#647=AXIS2_PLACEMENT_3D('',#915,#729,#730);
#648=AXIS2_PLACEMENT_3D('',#918,#732,#733);
#649=AXIS2_PLACEMENT_3D('',#919,#734,#735);
#650=AXIS2_PLACEMENT_3D('',#922,#736,#737);
#651=AXIS2_PLACEMENT_3D('',#926,#739,#740);
#652=AXIS2_PLACEMENT_3D('',#928,#742,#743);
#653=AXIS2_PLACEMENT_3D('',#930,#744,#745);
#654=AXIS2_PLACEMENT_3D('',#932,#746,#747);
#655=AXIS2_PLACEMENT_3D('',#936,#749,#750);
#656=AXIS2_PLACEMENT_3D('',#940,#752,#753);
#657=AXIS2_PLACEMENT_3D('',#944,#755,#756);
#658=AXIS2_PLACEMENT_3D('',#948,#758,#759);
#659=AXIS2_PLACEMENT_3D('',#952,#761,#762);
#660=AXIS2_PLACEMENT_3D('',#956,#764,#765);
#661=AXIS2_PLACEMENT_3D('',#960,#767,#768);
#662=AXIS2_PLACEMENT_3D('',#962,#769,#770);
#663=AXIS2_PLACEMENT_3D('',#966,#772,#773);
#664=AXIS2_PLACEMENT_3D('',#970,#775,#776);
#665=AXIS2_PLACEMENT_3D('',#973,#778,#779);
#666=AXIS2_PLACEMENT_3D('',#974,#780,#781);
#667=AXIS2_PLACEMENT_3D('',#976,#782,#783);
#668=AXIS2_PLACEMENT_3D('',#978,#785,#786);
#669=AXIS2_PLACEMENT_3D('',#980,#787,#788);
#670=AXIS2_PLACEMENT_3D('',#982,#790,#791);
#671=AXIS2_PLACEMENT_3D('',#990,#796,#797);
#672=AXIS2_PLACEMENT_3D('',#992,#798,#799);
#673=AXIS2_PLACEMENT_3D('',#994,#801,#802);
#674=AXIS2_PLACEMENT_3D('',#997,#804,#805);
#675=AXIS2_PLACEMENT_3D('',#998,#806,#807);
#676=AXIS2_PLACEMENT_3D('',#1001,#809,#810);
#677=AXIS2_PLACEMENT_3D('',#1002,#811,#812);
#678=AXIS2_PLACEMENT_3D('',#1005,#813,#814);
#679=AXIS2_PLACEMENT_3D('',#1008,#817,#818);
#680=AXIS2_PLACEMENT_3D('',#1012,#821,#822);
#681=AXIS2_PLACEMENT_3D('',#1014,#823,#824);
#682=AXIS2_PLACEMENT_3D('',#1016,#826,#827);
#683=AXIS2_PLACEMENT_3D('',#1020,#830,#831);
#684=AXIS2_PLACEMENT_3D('',#1022,#832,#833);
#685=AXIS2_PLACEMENT_3D('',#1024,#835,#836);
#686=AXIS2_PLACEMENT_3D('',#1028,#839,#840);
#687=AXIS2_PLACEMENT_3D('',#1029,#841,#842);
#688=AXIS2_PLACEMENT_3D('',#1030,#843,#844);
#689=AXIS2_PLACEMENT_3D('',#1034,#847,#848);
#690=AXIS2_PLACEMENT_3D('',#1036,#849,#850);
#691=AXIS2_PLACEMENT_3D('',#1038,#852,#853);
#692=AXIS2_PLACEMENT_3D('',#1042,#856,#857);
#693=AXIS2_PLACEMENT_3D('',#1044,#858,#859);
#694=AXIS2_PLACEMENT_3D('',#1046,#861,#862);
#695=AXIS2_PLACEMENT_3D('',#1050,#865,#866);
#696=AXIS2_PLACEMENT_3D('',#1052,#867,#868);
#697=AXIS2_PLACEMENT_3D('',#1054,#870,#871);
#698=AXIS2_PLACEMENT_3D('',#1056,#872,#873);
#699=AXIS2_PLACEMENT_3D('',#1058,#875,#876);
#700=AXIS2_PLACEMENT_3D('',#1062,#879,#880);
#701=AXIS2_PLACEMENT_3D('',#1064,#881,#882);
#702=AXIS2_PLACEMENT_3D('',#1066,#884,#885);
#703=AXIS2_PLACEMENT_3D('',#1070,#888,#889);
#704=AXIS2_PLACEMENT_3D('',#1072,#890,#891);
#705=AXIS2_PLACEMENT_3D('',#1074,#893,#894);
#706=AXIS2_PLACEMENT_3D('',#1076,#896,#897);
#707=DIRECTION('axis',(0.,0.,1.));
#708=DIRECTION('refdir',(1.,0.,0.));
#709=DIRECTION('center_axis',(0.,1.,0.));
#710=DIRECTION('ref_axis',(1.,0.,0.));
#711=DIRECTION('center_axis',(0.,1.,0.));
#712=DIRECTION('ref_axis',(1.,0.,0.));
#713=DIRECTION('',(0.,-1.,0.));
#714=DIRECTION('center_axis',(0.,-1.,0.));
#715=DIRECTION('ref_axis',(1.,0.,0.));
#716=DIRECTION('center_axis',(0.,1.,0.));
#717=DIRECTION('ref_axis',(0.,0.,1.));
#718=DIRECTION('center_axis',(0.,1.,0.));
#719=DIRECTION('ref_axis',(1.,0.,0.));
#720=DIRECTION('center_axis',(0.,1.,0.));
#721=DIRECTION('ref_axis',(1.,0.,0.));
#722=DIRECTION('',(0.,-1.,0.));
#723=DIRECTION('center_axis',(0.,-1.,0.));
#724=DIRECTION('ref_axis',(1.,0.,0.));
#725=DIRECTION('center_axis',(0.,1.,0.));
#726=DIRECTION('ref_axis',(0.,0.,1.));
#727=DIRECTION('center_axis',(0.,1.,0.));
#728=DIRECTION('ref_axis',(1.,0.,0.));
#729=DIRECTION('center_axis',(0.,-1.,0.));
#730=DIRECTION('ref_axis',(1.,0.,0.));
#731=DIRECTION('',(0.,-1.,0.));
#732=DIRECTION('center_axis',(0.,1.,0.));
#733=DIRECTION('ref_axis',(1.,0.,0.));
#734=DIRECTION('center_axis',(0.,1.,0.));
#735=DIRECTION('ref_axis',(0.930489671815654,0.,0.366318127649174));
#736=DIRECTION('center_axis',(0.,-1.,0.));
#737=DIRECTION('ref_axis',(0.930489671815654,0.,0.366318127649174));
#738=DIRECTION('',(0.,-1.,0.));
#739=DIRECTION('center_axis',(0.,-1.,0.));
#740=DIRECTION('ref_axis',(0.930489671815654,0.,0.366318127649174));
#741=DIRECTION('',(0.,1.,0.));
#742=DIRECTION('center_axis',(0.,1.,0.));
#743=DIRECTION('ref_axis',(0.,0.,1.));
#744=DIRECTION('center_axis',(0.,-1.,0.));
#745=DIRECTION('ref_axis',(1.,0.,0.));
#746=DIRECTION('center_axis',(0.,-1.,0.));
#747=DIRECTION('ref_axis',(0.998668019769121,0.,0.0515963786560878));
#748=DIRECTION('',(-0.849339627984876,0.,-0.527846754593142));
#749=DIRECTION('center_axis',(0.,1.,0.));
#750=DIRECTION('ref_axis',(0.527846754593142,0.,-0.849339627984876));
#751=DIRECTION('',(-0.920414831824003,0.,0.390943138267436));
#752=DIRECTION('center_axis',(0.,-1.,0.));
#753=DIRECTION('ref_axis',(-0.0082493068547299,0.,-0.99996597388932));
#754=DIRECTION('',(-0.99996597388932,0.,0.00824930685472743));
#755=DIRECTION('center_axis',(0.,-1.,0.));
#756=DIRECTION('ref_axis',(0.375924067954333,0.,-0.926650470853312));
#757=DIRECTION('',(-0.926650470853312,0.,-0.375924067954336));
#758=DIRECTION('center_axis',(0.,1.,0.));
#759=DIRECTION('ref_axis',(0.375924067954335,0.,-0.926650470853312));
#760=DIRECTION('',(-0.99996597388932,0.,0.00824930685475386));
#761=DIRECTION('center_axis',(0.,1.,0.));
#762=DIRECTION('ref_axis',(-0.00824930685472927,0.,-0.99996597388932));
#763=DIRECTION('',(0.00824930685472612,0.,0.99996597388932));
#764=DIRECTION('center_axis',(0.,-1.,0.));
#765=DIRECTION('ref_axis',(-0.819152044288992,0.,-0.573576436351046));
#766=DIRECTION('',(-0.573576436351046,0.,0.819152044288992));
#767=DIRECTION('center_axis',(0.,1.,0.));
#768=DIRECTION('ref_axis',(-0.819152044288991,0.,-0.573576436351046));
#769=DIRECTION('center_axis',(0.,-1.,0.));
#770=DIRECTION('ref_axis',(0.681998360062498,0.,0.731353701619171));
#771=DIRECTION('',(0.731353701619171,0.,-0.681998360062498));
#772=DIRECTION('center_axis',(0.,1.,0.));
#773=DIRECTION('ref_axis',(0.6819983600625,0.,0.731353701619169));
#774=DIRECTION('',(-0.00824930685472614,0.,-0.99996597388932));
#775=DIRECTION('center_axis',(0.,-1.,0.));
#776=DIRECTION('ref_axis',(0.129034282494544,0.,0.991640133284811));
#777=DIRECTION('',(0.991640133284811,0.,-0.129034282494543));
#778=DIRECTION('center_axis',(0.,-1.,0.));
#779=DIRECTION('ref_axis',(1.,0.,0.));
#780=DIRECTION('center_axis',(0.,-1.,0.));
#781=DIRECTION('ref_axis',(-0.977330442876153,0.,-0.211719638738363));
#782=DIRECTION('center_axis',(0.,-1.,0.));
#783=DIRECTION('ref_axis',(1.,0.,0.));
#784=DIRECTION('',(0.,-1.,0.));
#785=DIRECTION('center_axis',(0.,1.,0.));
#786=DIRECTION('ref_axis',(0.998668019769121,0.,0.0515963786560878));
#787=DIRECTION('center_axis',(0.,-1.,0.));
#788=DIRECTION('ref_axis',(0.998668019769121,0.,0.0515963786560878));
#789=DIRECTION('',(0.,1.,0.));
#790=DIRECTION('center_axis',(0.527846754593143,0.,-0.849339627984876));
#791=DIRECTION('ref_axis',(-0.849339627984876,0.,-0.527846754593142));
#792=DIRECTION('',(-0.849339627984876,0.,-0.527846754593142));
#793=DIRECTION('',(0.,1.,0.));
#794=DIRECTION('',(-0.849339627984876,0.,-0.527846754593142));
#795=DIRECTION('',(0.,1.,0.));
#796=DIRECTION('center_axis',(0.,1.,0.));
#797=DIRECTION('ref_axis',(0.,0.,1.));
#798=DIRECTION('center_axis',(0.,-1.,0.));
#799=DIRECTION('ref_axis',(0.129034282494544,0.,0.991640133284811));
#800=DIRECTION('',(0.991640133284811,0.,-0.129034282494543));
#801=DIRECTION('center_axis',(0.,1.,0.));
#802=DIRECTION('ref_axis',(0.129034282494544,0.,0.991640133284811));
#803=DIRECTION('',(0.,1.,0.));
#804=DIRECTION('center_axis',(0.,1.,0.));
#805=DIRECTION('ref_axis',(0.129034282494544,0.,0.991640133284811));
#806=DIRECTION('center_axis',(0.,1.,0.));
#807=DIRECTION('ref_axis',(1.,0.,0.));
#808=DIRECTION('',(0.,-1.,0.));
#809=DIRECTION('center_axis',(0.,1.,0.));
#810=DIRECTION('ref_axis',(1.,0.,0.));
#811=DIRECTION('center_axis',(0.,1.,0.));
#812=DIRECTION('ref_axis',(0.375924067954335,0.,-0.926650470853312));
#813=DIRECTION('center_axis',(0.,1.,0.));
#814=DIRECTION('ref_axis',(0.375924067954335,0.,-0.926650470853312));
#815=DIRECTION('',(0.,1.,0.));
#816=DIRECTION('',(0.,1.,0.));
#817=DIRECTION('center_axis',(0.375924067954336,0.,-0.926650470853312));
#818=DIRECTION('ref_axis',(-0.926650470853312,0.,-0.375924067954336));
#819=DIRECTION('',(-0.926650470853312,0.,-0.375924067954336));
#820=DIRECTION('',(0.,1.,0.));
#821=DIRECTION('center_axis',(0.,1.,0.));
#822=DIRECTION('ref_axis',(0.375924067954333,0.,-0.926650470853312));
#823=DIRECTION('center_axis',(0.,-1.,0.));
#824=DIRECTION('ref_axis',(0.375924067954333,0.,-0.926650470853312));
#825=DIRECTION('',(0.,1.,0.));
#826=DIRECTION('center_axis',(-0.00824930685472743,0.,-0.99996597388932));
#827=DIRECTION('ref_axis',(-0.99996597388932,0.,0.00824930685472743));
#828=DIRECTION('',(-0.99996597388932,0.,0.00824930685472743));
#829=DIRECTION('',(0.,1.,0.));
#830=DIRECTION('center_axis',(0.,1.,0.));
#831=DIRECTION('ref_axis',(-0.0082493068547299,0.,-0.99996597388932));
#832=DIRECTION('center_axis',(0.,-1.,0.));
#833=DIRECTION('ref_axis',(-0.0082493068547299,0.,-0.99996597388932));
#834=DIRECTION('',(0.,1.,0.));
#835=DIRECTION('center_axis',(-0.390943138267436,0.,-0.920414831824003));
#836=DIRECTION('ref_axis',(-0.920414831824003,0.,0.390943138267436));
#837=DIRECTION('',(-0.920414831824003,0.,0.390943138267436));
#838=DIRECTION('',(0.,1.,0.));
#839=DIRECTION('center_axis',(0.,1.,0.));
#840=DIRECTION('ref_axis',(0.527846754593142,0.,-0.849339627984876));
#841=DIRECTION('center_axis',(0.,1.,0.));
#842=DIRECTION('ref_axis',(0.527846754593142,0.,-0.849339627984876));
#843=DIRECTION('center_axis',(0.129034282494543,0.,0.991640133284811));
#844=DIRECTION('ref_axis',(0.991640133284811,0.,-0.129034282494543));
#845=DIRECTION('',(0.,1.,0.));
#846=DIRECTION('',(0.991640133284811,0.,-0.129034282494543));
#847=DIRECTION('center_axis',(0.,1.,0.));
#848=DIRECTION('ref_axis',(0.129034282494544,0.,0.991640133284811));
#849=DIRECTION('center_axis',(0.,-1.,0.));
#850=DIRECTION('ref_axis',(0.129034282494544,0.,0.991640133284811));
#851=DIRECTION('',(0.,1.,0.));
#852=DIRECTION('center_axis',(0.99996597388932,0.,-0.00824930685472614));
#853=DIRECTION('ref_axis',(-0.00824930685472614,0.,-0.99996597388932));
#854=DIRECTION('',(-0.00824930685472614,0.,-0.99996597388932));
#855=DIRECTION('',(0.,1.,0.));
#856=DIRECTION('center_axis',(0.,1.,0.));
#857=DIRECTION('ref_axis',(0.6819983600625,0.,0.731353701619169));
#858=DIRECTION('center_axis',(0.,1.,0.));
#859=DIRECTION('ref_axis',(0.6819983600625,0.,0.731353701619169));
#860=DIRECTION('',(0.,1.,0.));
#861=DIRECTION('center_axis',(0.681998360062498,0.,0.731353701619171));
#862=DIRECTION('ref_axis',(0.731353701619171,0.,-0.681998360062498));
#863=DIRECTION('',(0.731353701619171,0.,-0.681998360062498));
#864=DIRECTION('',(0.,1.,0.));
#865=DIRECTION('center_axis',(0.,1.,0.));
#866=DIRECTION('ref_axis',(0.681998360062498,0.,0.731353701619171));
#867=DIRECTION('center_axis',(0.,-1.,0.));
#868=DIRECTION('ref_axis',(0.681998360062498,0.,0.731353701619171));
#869=DIRECTION('',(0.,1.,0.));
#870=DIRECTION('center_axis',(0.,1.,0.));
#871=DIRECTION('ref_axis',(-0.179974833910802,0.,0.983671214969097));
#872=DIRECTION('center_axis',(0.,1.,0.));
#873=DIRECTION('ref_axis',(-0.819152044288991,0.,-0.573576436351046));
#874=DIRECTION('',(0.,1.,0.));
#875=DIRECTION('center_axis',(-0.819152044288992,0.,-0.573576436351046));
#876=DIRECTION('ref_axis',(-0.573576436351046,0.,0.819152044288992));
#877=DIRECTION('',(-0.573576436351046,0.,0.819152044288992));
#878=DIRECTION('',(0.,1.,0.));
#879=DIRECTION('center_axis',(0.,1.,0.));
#880=DIRECTION('ref_axis',(-0.819152044288992,0.,-0.573576436351046));
#881=DIRECTION('center_axis',(0.,-1.,0.));
#882=DIRECTION('ref_axis',(-0.819152044288992,0.,-0.573576436351046));
#883=DIRECTION('',(0.,1.,0.));
#884=DIRECTION('center_axis',(-0.99996597388932,0.,0.00824930685472612));
#885=DIRECTION('ref_axis',(0.00824930685472612,0.,0.99996597388932));
#886=DIRECTION('',(0.00824930685472612,0.,0.99996597388932));
#887=DIRECTION('',(0.,1.,0.));
#888=DIRECTION('center_axis',(0.,1.,0.));
#889=DIRECTION('ref_axis',(-0.00824930685472927,0.,-0.99996597388932));
#890=DIRECTION('center_axis',(0.,1.,0.));
#891=DIRECTION('ref_axis',(-0.00824930685472927,0.,-0.99996597388932));
#892=DIRECTION('',(0.,1.,0.));
#893=DIRECTION('center_axis',(-0.00824930685475387,0.,-0.99996597388932));
#894=DIRECTION('ref_axis',(-0.99996597388932,0.,0.00824930685475386));
#895=DIRECTION('',(-0.99996597388932,0.,0.00824930685475386));
#896=DIRECTION('center_axis',(0.,1.,0.));
#897=DIRECTION('ref_axis',(0.,0.,1.));
#898=CARTESIAN_POINT('',(0.,0.,0.));
#899=CARTESIAN_POINT('Origin',(3.14008593222459,0.0984251968503937,-2.12041255232542));
#900=CARTESIAN_POINT('',(3.09087333379939,0.147637795275591,-2.12041255232542));
#901=CARTESIAN_POINT('Origin',(3.14008593222459,0.147637795275591,-2.12041255232542));
#902=CARTESIAN_POINT('',(3.09087333379939,0.0984251968503937,-2.12041255232542));
#903=CARTESIAN_POINT('',(3.09087333379939,0.0984251968503937,-2.12041255232542));
#904=CARTESIAN_POINT('Origin',(3.14008593222459,0.0984251968503937,-2.12041255232542));
#905=CARTESIAN_POINT('Origin',(3.14008593222459,0.147637795275591,-2.12041255232542));
#906=CARTESIAN_POINT('Origin',(0.541749149677548,0.0984251968503937,-2.09897734553754));
#907=CARTESIAN_POINT('',(0.492536551252351,0.147637795275591,-2.09897734553754));
#908=CARTESIAN_POINT('Origin',(0.541749149677548,0.147637795275591,-2.09897734553754));
#909=CARTESIAN_POINT('',(0.492536551252351,0.0984251968503937,-2.09897734553754));
#910=CARTESIAN_POINT('',(0.492536551252351,0.0984251968503937,-2.09897734553754));
#911=CARTESIAN_POINT('Origin',(0.541749149677548,0.0984251968503937,-2.09897734553754));
#912=CARTESIAN_POINT('Origin',(0.541749149677548,0.147637795275591,-2.09897734553754));
#913=CARTESIAN_POINT('Origin',(3.28054996862063,-4.3481847083272,-1.89405584455551));
#914=CARTESIAN_POINT('',(3.23354996862064,0.0393700787401573,-1.89405584455551));
#915=CARTESIAN_POINT('Origin',(3.28054996862063,0.0393700787401573,-1.89405584455551));
#916=CARTESIAN_POINT('',(3.23354996862064,0.,-1.89405584455551));
#917=CARTESIAN_POINT('',(3.23354996862064,-4.3481847083272,-1.89405584455551));
#918=CARTESIAN_POINT('Origin',(3.28054996862063,0.,-1.89405584455551));
#919=CARTESIAN_POINT('Origin',(3.0826683702883,0.0984251968503937,-1.73030298874623));
#920=CARTESIAN_POINT('',(3.12889331753822,0.0984251968503937,-1.76855549522283));
#921=CARTESIAN_POINT('',(3.09041042723798,0.0984251968503937,-1.67080458074915));
#922=CARTESIAN_POINT('Origin',(3.0826683702883,0.0984251968503937,-1.73030298874623));
#923=CARTESIAN_POINT('',(3.09041042723798,0.0393700787401575,-1.67080458074915));
#924=CARTESIAN_POINT('',(3.09041042723798,0.0984251968503937,-1.67080458074915));
#925=CARTESIAN_POINT('',(3.12889331753822,0.0393700787401575,-1.76855549522283));
#926=CARTESIAN_POINT('Origin',(3.0826683702883,0.0393700787401575,-1.73030298874623));
#927=CARTESIAN_POINT('',(3.12889331753822,0.0984251968503937,-1.76855549522283));
#928=CARTESIAN_POINT('Origin',(1.64027498431032,0.0984251968503937,-1.00115115805247));
#929=CARTESIAN_POINT('',(3.19442647530625,0.0984251968503937,-2.07106663914014));
#930=CARTESIAN_POINT('Origin',(3.28054996862063,0.0984251968503937,-1.89405584455551));
#931=CARTESIAN_POINT('',(3.19984683981962,0.0984251968503937,-2.17597990700862));
#932=CARTESIAN_POINT('Origin',(3.16817603454403,0.0984251968503937,-2.12501952932953));
#933=CARTESIAN_POINT('',(3.18164866880673,0.0984251968503937,-2.18728968838722));
#934=CARTESIAN_POINT('',(3.38445681007598,0.0984251968503937,-2.06124868471001));
#935=CARTESIAN_POINT('',(3.10930300795156,0.0984251968503937,-2.19288616113046));
#936=CARTESIAN_POINT('Origin',(3.14008593222459,0.0984251968503937,-2.12041255232542));
#937=CARTESIAN_POINT('',(2.43144860934547,0.0984251968503937,-1.90496976005042));
#938=CARTESIAN_POINT('',(3.10930300795156,0.0984251968503937,-2.19288616113046));
#939=CARTESIAN_POINT('',(2.24010169363912,0.0984251968503937,-1.86519418901777));
#940=CARTESIAN_POINT('Origin',(2.23597704021175,0.0984251968503937,-2.36517717596243));
#941=CARTESIAN_POINT('',(1.44536740254941,0.0984251968503937,-1.85863795889958));
#942=CARTESIAN_POINT('',(2.24010169363912,0.0984251968503937,-1.86519418901777));
#943=CARTESIAN_POINT('',(1.25328071514488,0.0984251968503937,-1.89529571041759));
#944=CARTESIAN_POINT('Origin',(1.44124274912205,0.0984251968503937,-2.35862094584425));
#945=CARTESIAN_POINT('',(0.571349469988913,0.0984251968503937,-2.17194194954174));
#946=CARTESIAN_POINT('',(1.25328071514488,0.0984251968503937,-1.89529571041759));
#947=CARTESIAN_POINT('',(0.541099597956703,0.0984251968503937,-2.17771482379655));
#948=CARTESIAN_POINT('Origin',(0.541749149677548,0.0984251968503937,-2.09897734553754));
#949=CARTESIAN_POINT('',(0.520956545718455,0.0984251968503937,-2.17754865192346));
#950=CARTESIAN_POINT('',(0.541099597956703,0.0984251968503937,-2.17771482379655));
#951=CARTESIAN_POINT('',(0.396991962339131,0.0984251968503937,-2.05152174183045));
#952=CARTESIAN_POINT('Origin',(0.521987709075296,0.0984251968503937,-2.05255290518729));
#953=CARTESIAN_POINT('',(0.405968265943186,0.0984251968503937,-0.963430544178685));
#954=CARTESIAN_POINT('',(0.396991962339131,0.0984251968503937,-2.05152174183045));
#955=CARTESIAN_POINT('',(0.383366524743145,0.0984251968503937,-0.890702326277964));
#956=CARTESIAN_POINT('Origin',(0.280972519207021,0.0984251968503937,-0.962399380821845));
#957=CARTESIAN_POINT('',(-0.161250402419093,0.0984251968503937,-0.112908747313198));
#958=CARTESIAN_POINT('',(0.383366524743145,0.0984251968503937,-0.890702326277964));
#959=CARTESIAN_POINT('',(0.190782138254755,0.0984251968503937,-0.0485000332278073));
#960=CARTESIAN_POINT('Origin',(0.,0.0984251968503937,0.));
#961=CARTESIAN_POINT('',(0.226679001038713,0.0984251968503937,-0.170716767029861));
#962=CARTESIAN_POINT('Origin',(0.311928796046525,0.0984251968503937,-0.079297554327465));
#963=CARTESIAN_POINT('',(0.668609693544282,0.0984251968503937,-0.582823804818568));
#964=CARTESIAN_POINT('',(0.226679001038713,0.0984251968503937,-0.170716767029861));
#965=CARTESIAN_POINT('',(0.708355645272635,0.0984251968503937,-0.675274180877805));
#966=CARTESIAN_POINT('Origin',(0.583359898536469,0.0984251968503937,-0.674243017520965));
#967=CARTESIAN_POINT('',(0.706358983922721,0.0984251968503937,-0.917305838380033));
#968=CARTESIAN_POINT('',(0.708355645272635,0.0984251968503937,-0.675274180877805));
#969=CARTESIAN_POINT('',(1.14182482962011,0.0984251968503937,-1.4172505584498));
#970=CARTESIAN_POINT('Origin',(1.20634197086738,0.0984251968503937,-0.921430491807396));
#971=CARTESIAN_POINT('',(1.14182482962011,0.0984251968503937,-1.4172505584498));
#972=CARTESIAN_POINT('',(-0.047,0.0984251968503937,5.75583995599256E-18));
#973=CARTESIAN_POINT('Origin',(0.,0.0984251968503937,0.));
#974=CARTESIAN_POINT('Origin',(3.28054996862063,0.0984251968503937,-1.89405584455551));
#975=CARTESIAN_POINT('',(3.19442647530625,0.0393700787401575,-2.07106663914014));
#976=CARTESIAN_POINT('Origin',(3.28054996862063,0.0393700787401575,-1.89405584455551));
#977=CARTESIAN_POINT('',(3.19442647530625,0.0984251968503937,-2.07106663914014));
#978=CARTESIAN_POINT('Origin',(3.16817603454403,0.0984251968503937,-2.12501952932953));
#979=CARTESIAN_POINT('',(3.19984683981962,0.0393700787401575,-2.17597990700862));
#980=CARTESIAN_POINT('Origin',(3.16817603454403,0.0393700787401575,-2.12501952932953));
#981=CARTESIAN_POINT('',(3.19984683981962,0.0984251968503937,-2.17597990700862));
#982=CARTESIAN_POINT('Origin',(3.38445681007598,0.,-2.06124868471001));
#983=CARTESIAN_POINT('',(3.38445681007598,0.0393700787401575,-2.06124868471001));
#984=CARTESIAN_POINT('',(3.38445681007598,0.0393700787401575,-2.06124868471001));
#985=CARTESIAN_POINT('',(3.38445681007598,0.,-2.06124868471001));
#986=CARTESIAN_POINT('',(3.38445681007598,0.,-2.06124868471001));
#987=CARTESIAN_POINT('',(3.18164866880673,0.,-2.18728968838722));
#988=CARTESIAN_POINT('',(3.38445681007598,0.,-2.06124868471001));
#989=CARTESIAN_POINT('',(3.18164866880673,0.,-2.18728968838722));
#990=CARTESIAN_POINT('Origin',(3.28054996862063,0.0393700787401575,-1.89405584455551));
#991=CARTESIAN_POINT('',(3.30595041793058,0.0393700787401575,-1.69885109390889));
#992=CARTESIAN_POINT('Origin',(3.28054996862063,0.0393700787401575,-1.89405584455551));
#993=CARTESIAN_POINT('',(2.22388762377535,0.0393700787401575,-1.55805082617935));
#994=CARTESIAN_POINT('Origin',(3.28054996862063,0.,-1.89405584455551));
#995=CARTESIAN_POINT('',(3.30595041793058,0.,-1.69885109390889));
#996=CARTESIAN_POINT('',(3.30595041793058,0.,-1.69885109390889));
#997=CARTESIAN_POINT('Origin',(3.28054996862063,0.,-1.89405584455551));
#998=CARTESIAN_POINT('Origin',(0.,-4.28912959021697,0.));
#999=CARTESIAN_POINT('',(-0.047,0.,5.75583995599256E-18));
#1000=CARTESIAN_POINT('',(-0.047,-4.28912959021697,5.75583995599256E-18));
#1001=CARTESIAN_POINT('Origin',(0.,0.,0.));
#1002=CARTESIAN_POINT('Origin',(0.541749149677548,0.,-2.09897734553754));
#1003=CARTESIAN_POINT('',(0.571349469988913,0.,-2.17194194954174));
#1004=CARTESIAN_POINT('',(0.541099597956703,0.,-2.17771482379655));
#1005=CARTESIAN_POINT('Origin',(0.541749149677548,0.,-2.09897734553754));
#1006=CARTESIAN_POINT('',(0.541099597956703,0.,-2.17771482379655));
#1007=CARTESIAN_POINT('',(0.571349469988913,0.,-2.17194194954174));
#1008=CARTESIAN_POINT('Origin',(1.25328071514488,0.,-1.89529571041759));
#1009=CARTESIAN_POINT('',(1.25328071514488,0.,-1.89529571041759));
#1010=CARTESIAN_POINT('',(1.25328071514488,0.,-1.89529571041759));
#1011=CARTESIAN_POINT('',(1.25328071514488,0.,-1.89529571041759));
#1012=CARTESIAN_POINT('Origin',(1.44124274912205,0.,-2.35862094584425));
#1013=CARTESIAN_POINT('',(1.44536740254941,0.,-1.85863795889958));
#1014=CARTESIAN_POINT('Origin',(1.44124274912205,0.,-2.35862094584425));
#1015=CARTESIAN_POINT('',(1.44536740254941,0.,-1.85863795889958));
#1016=CARTESIAN_POINT('Origin',(2.24010169363912,0.,-1.86519418901777));
#1017=CARTESIAN_POINT('',(2.24010169363912,0.,-1.86519418901777));
#1018=CARTESIAN_POINT('',(2.24010169363912,0.,-1.86519418901777));
#1019=CARTESIAN_POINT('',(2.24010169363912,0.,-1.86519418901777));
#1020=CARTESIAN_POINT('Origin',(2.23597704021175,0.,-2.36517717596243));
#1021=CARTESIAN_POINT('',(2.43144860934547,0.,-1.90496976005042));
#1022=CARTESIAN_POINT('Origin',(2.23597704021175,0.,-2.36517717596243));
#1023=CARTESIAN_POINT('',(2.43144860934547,0.,-1.90496976005042));
#1024=CARTESIAN_POINT('Origin',(3.10930300795156,0.,-2.19288616113046));
#1025=CARTESIAN_POINT('',(3.10930300795156,0.,-2.19288616113046));
#1026=CARTESIAN_POINT('',(3.10930300795156,0.,-2.19288616113046));
#1027=CARTESIAN_POINT('',(3.10930300795156,0.,-2.19288616113046));
#1028=CARTESIAN_POINT('Origin',(3.14008593222459,0.,-2.12041255232542));
#1029=CARTESIAN_POINT('Origin',(3.14008593222459,0.,-2.12041255232542));
#1030=CARTESIAN_POINT('Origin',(1.14182482962011,0.,-1.4172505584498));
#1031=CARTESIAN_POINT('',(1.14182482962011,0.,-1.4172505584498));
#1032=CARTESIAN_POINT('',(1.14182482962011,0.,-1.4172505584498));
#1033=CARTESIAN_POINT('',(1.14182482962011,0.,-1.4172505584498));
#1034=CARTESIAN_POINT('Origin',(1.20634197086738,0.,-0.921430491807396));
#1035=CARTESIAN_POINT('',(0.706358983922721,0.,-0.917305838380033));
#1036=CARTESIAN_POINT('Origin',(1.20634197086738,0.,-0.921430491807396));
#1037=CARTESIAN_POINT('',(0.706358983922721,0.,-0.917305838380033));
#1038=CARTESIAN_POINT('Origin',(0.708355645272635,0.,-0.675274180877805));
#1039=CARTESIAN_POINT('',(0.708355645272635,0.,-0.675274180877805));
#1040=CARTESIAN_POINT('',(0.708355645272635,0.,-0.675274180877805));
#1041=CARTESIAN_POINT('',(0.708355645272635,0.,-0.675274180877805));
#1042=CARTESIAN_POINT('Origin',(0.583359898536469,0.,-0.674243017520965));
#1043=CARTESIAN_POINT('',(0.668609693544282,0.,-0.582823804818568));
#1044=CARTESIAN_POINT('Origin',(0.583359898536469,0.,-0.674243017520965));
#1045=CARTESIAN_POINT('',(0.668609693544282,0.,-0.582823804818568));
#1046=CARTESIAN_POINT('Origin',(0.226679001038713,0.,-0.170716767029861));
#1047=CARTESIAN_POINT('',(0.226679001038713,0.,-0.170716767029861));
#1048=CARTESIAN_POINT('',(0.226679001038713,0.,-0.170716767029861));
#1049=CARTESIAN_POINT('',(0.226679001038713,0.,-0.170716767029861));
#1050=CARTESIAN_POINT('Origin',(0.311928796046525,0.,-0.079297554327465));
#1051=CARTESIAN_POINT('',(0.190782138254755,0.,-0.0485000332278074));
#1052=CARTESIAN_POINT('Origin',(0.311928796046525,0.,-0.079297554327465));
#1053=CARTESIAN_POINT('',(0.190782138254755,0.,-0.0485000332278074));
#1054=CARTESIAN_POINT('Origin',(0.,0.,0.));
#1055=CARTESIAN_POINT('',(-0.161250402419093,0.,-0.112908747313198));
#1056=CARTESIAN_POINT('Origin',(0.,0.,0.));
#1057=CARTESIAN_POINT('',(-0.161250402419093,0.,-0.112908747313198));
#1058=CARTESIAN_POINT('Origin',(0.383366524743145,0.,-0.890702326277964));
#1059=CARTESIAN_POINT('',(0.383366524743145,0.,-0.890702326277964));
#1060=CARTESIAN_POINT('',(0.383366524743145,0.,-0.890702326277964));
#1061=CARTESIAN_POINT('',(0.383366524743145,0.,-0.890702326277964));
#1062=CARTESIAN_POINT('Origin',(0.280972519207021,0.,-0.962399380821845));
#1063=CARTESIAN_POINT('',(0.405968265943186,0.,-0.963430544178685));
#1064=CARTESIAN_POINT('Origin',(0.280972519207021,0.,-0.962399380821845));
#1065=CARTESIAN_POINT('',(0.405968265943186,0.,-0.963430544178685));
#1066=CARTESIAN_POINT('Origin',(0.396991962339131,0.,-2.05152174183045));
#1067=CARTESIAN_POINT('',(0.396991962339131,0.,-2.05152174183045));
#1068=CARTESIAN_POINT('',(0.396991962339131,0.,-2.05152174183045));
#1069=CARTESIAN_POINT('',(0.396991962339131,0.,-2.05152174183045));
#1070=CARTESIAN_POINT('Origin',(0.521987709075296,0.,-2.05255290518729));
#1071=CARTESIAN_POINT('',(0.520956545718455,0.,-2.17754865192346));
#1072=CARTESIAN_POINT('Origin',(0.521987709075296,0.,-2.05255290518729));
#1073=CARTESIAN_POINT('',(0.520956545718455,0.,-2.17754865192346));
#1074=CARTESIAN_POINT('Origin',(0.541099597956703,0.,-2.17771482379655));
#1075=CARTESIAN_POINT('',(0.541099597956703,0.,-2.17771482379655));
#1076=CARTESIAN_POINT('Origin',(1.64027498431032,0.,-1.00115115805247));
#1077=UNCERTAINTY_MEASURE_WITH_UNIT(LENGTH_MEASURE(0.000393700787401575),
#1083,'DISTANCE_ACCURACY_VALUE',
'Maximum model space distance between geometric entities at asserted c
onnectivities');
#1078=UNCERTAINTY_MEASURE_WITH_UNIT(LENGTH_MEASURE(0.000393700787401575),
#1083,'DISTANCE_ACCURACY_VALUE',
'Maximum model space distance between geometric entities at asserted c
onnectivities');
#1079=(
GEOMETRIC_REPRESENTATION_CONTEXT(3)
GLOBAL_UNCERTAINTY_ASSIGNED_CONTEXT((#1077))
GLOBAL_UNIT_ASSIGNED_CONTEXT((#1083,#1087,#1088))
REPRESENTATION_CONTEXT('','3D')
);
#1080=(
GEOMETRIC_REPRESENTATION_CONTEXT(3)
GLOBAL_UNCERTAINTY_ASSIGNED_CONTEXT((#1078))
GLOBAL_UNIT_ASSIGNED_CONTEXT((#1083,#1087,#1088))
REPRESENTATION_CONTEXT('','3D')
);
#1081=DIMENSIONAL_EXPONENTS(1.,0.,0.,0.,0.,0.,0.);
#1082=DIMENSIONAL_EXPONENTS(0.,1.,0.,0.,0.,0.,0.);
#1083=(
CONVERSION_BASED_UNIT('inch',#1086)
LENGTH_UNIT()
NAMED_UNIT(#1081)
);
#1084=(
LENGTH_UNIT()
NAMED_UNIT(*)
SI_UNIT(.MILLI.,.METRE.)
);
#1085=(
LENGTH_UNIT()
NAMED_UNIT(*)
SI_UNIT(.CENTI.,.METRE.)
);
#1086=LENGTH_MEASURE_WITH_UNIT(LENGTH_MEASURE(25.4),#1084);
#1087=(
NAMED_UNIT(*)
PLANE_ANGLE_UNIT()
SI_UNIT($,.RADIAN.)
);
#1088=(
NAMED_UNIT(*)
SI_UNIT($,.STERADIAN.)
SOLID_ANGLE_UNIT()
);
#1089=SHAPE_DEFINITION_REPRESENTATION(#1090,#1091);
#1090=PRODUCT_DEFINITION_SHAPE('',$,#1093);
#1091=SHAPE_REPRESENTATION('',(#637),#1079);
#1092=PRODUCT_DEFINITION_CONTEXT('part definition',#1097,'design');
#1093=PRODUCT_DEFINITION('Main PCBA Washer','Main PCBA Washer',#1094,#1092);
#1094=PRODUCT_DEFINITION_FORMATION('',$,#1099);
#1095=PRODUCT_RELATED_PRODUCT_CATEGORY('Main PCBA Washer',
'Main PCBA Washer',(#1099));
#1096=APPLICATION_PROTOCOL_DEFINITION('international standard',
'automotive_design',2009,#1097);
#1097=APPLICATION_CONTEXT(
'Core Data for Automotive Mechanical Design Process');
#1098=PRODUCT_CONTEXT('part definition',#1097,'mechanical');
#1099=PRODUCT('Main PCBA Washer','Main PCBA Washer',$,(#1098));
#1100=PRESENTATION_STYLE_ASSIGNMENT((#1101));
#1101=SURFACE_STYLE_USAGE(.BOTH.,#1104);
#1102=SURFACE_STYLE_RENDERING_WITH_PROPERTIES($,#1108,(#1103));
#1103=SURFACE_STYLE_TRANSPARENT(0.);
#1104=SURFACE_SIDE_STYLE('',(#1105,#1102));
#1105=SURFACE_STYLE_FILL_AREA(#1106);
#1106=FILL_AREA_STYLE('',(#1107));
#1107=FILL_AREA_STYLE_COLOUR('',#1108);
#1108=COLOUR_RGB('',0.0196078431372549,0.0196078431372549,0.0196078431372549);
ENDSEC;
END-ISO-10303-21;
