ISO-10303-21;
HEADER;
/* Generated by software containing ST-Developer
 * from STEP Tools, Inc. (www.steptools.com) 
 */

FILE_DESCRIPTION(
/* description */ (''),
/* implementation_level */ '2;1');

FILE_NAME(
/* name */ 'OLED Cover.stp',
/* time_stamp */ '2026-04-09T17:04:44-04:00',
/* author */ ('rgoff'),
/* organization */ (''),
/* preprocessor_version */ 'ST-DEVELOPER v20',
/* originating_system */ 'Autodesk Inventor 2024',
/* authorisation */ '');

FILE_SCHEMA (('AUTOMOTIVE_DESIGN { 1 0 10303 214 3 1 1 }'));
ENDSEC;

DATA;
#10=MECHANICAL_DESIGN_GEOMETRIC_PRESENTATION_REPRESENTATION('',(#13),#595);
#11=SHAPE_REPRESENTATION_RELATIONSHIP('SRR','None',#606,#12);
#12=ADVANCED_BREP_SHAPE_REPRESENTATION('',(#14),#594);
#13=STYLED_ITEM('',(#615),#14);
#14=MANIFOLD_SOLID_BREP('Solid1',#367);
#15=FACE_BOUND('',#42,.T.);
#16=FACE_BOUND('',#43,.T.);
#17=FACE_BOUND('',#57,.T.);
#18=FACE_BOUND('',#58,.T.);
#19=FACE_OUTER_BOUND('',#37,.T.);
#20=FACE_OUTER_BOUND('',#38,.T.);
#21=FACE_OUTER_BOUND('',#39,.T.);
#22=FACE_OUTER_BOUND('',#40,.T.);
#23=FACE_OUTER_BOUND('',#41,.T.);
#24=FACE_OUTER_BOUND('',#44,.T.);
#25=FACE_OUTER_BOUND('',#45,.T.);
#26=FACE_OUTER_BOUND('',#46,.T.);
#27=FACE_OUTER_BOUND('',#47,.T.);
#28=FACE_OUTER_BOUND('',#48,.T.);
#29=FACE_OUTER_BOUND('',#49,.T.);
#30=FACE_OUTER_BOUND('',#50,.T.);
#31=FACE_OUTER_BOUND('',#51,.T.);
#32=FACE_OUTER_BOUND('',#52,.T.);
#33=FACE_OUTER_BOUND('',#53,.T.);
#34=FACE_OUTER_BOUND('',#54,.T.);
#35=FACE_OUTER_BOUND('',#55,.T.);
#36=FACE_OUTER_BOUND('',#56,.T.);
#37=EDGE_LOOP('',(#235,#236,#237,#238));
#38=EDGE_LOOP('',(#239,#240,#241,#242));
#39=EDGE_LOOP('',(#243,#244,#245,#246));
#40=EDGE_LOOP('',(#247,#248,#249,#250,#251,#252,#253,#254));
#41=EDGE_LOOP('',(#255,#256,#257,#258));
#42=EDGE_LOOP('',(#259,#260,#261,#262));
#43=EDGE_LOOP('',(#263,#264,#265,#266));
#44=EDGE_LOOP('',(#267,#268,#269,#270));
#45=EDGE_LOOP('',(#271,#272,#273,#274));
#46=EDGE_LOOP('',(#275,#276,#277,#278));
#47=EDGE_LOOP('',(#279,#280,#281,#282));
#48=EDGE_LOOP('',(#283,#284,#285,#286));
#49=EDGE_LOOP('',(#287,#288,#289,#290));
#50=EDGE_LOOP('',(#291,#292,#293,#294));
#51=EDGE_LOOP('',(#295,#296,#297,#298));
#52=EDGE_LOOP('',(#299,#300,#301,#302));
#53=EDGE_LOOP('',(#303,#304,#305,#306));
#54=EDGE_LOOP('',(#307,#308,#309,#310,#311,#312,#313,#314));
#55=EDGE_LOOP('',(#315,#316,#317,#318));
#56=EDGE_LOOP('',(#319,#320,#321,#322));
#57=EDGE_LOOP('',(#323,#324,#325,#326));
#58=EDGE_LOOP('',(#327,#328,#329,#330));
#59=LINE('',#497,#107);
#60=LINE('',#499,#108);
#61=LINE('',#501,#109);
#62=LINE('',#502,#110);
#63=LINE('',#505,#111);
#64=LINE('',#507,#112);
#65=LINE('',#508,#113);
#66=LINE('',#511,#114);
#67=LINE('',#513,#115);
#68=LINE('',#514,#116);
#69=LINE('',#517,#117);
#70=LINE('',#519,#118);
#71=LINE('',#521,#119);
#72=LINE('',#523,#120);
#73=LINE('',#524,#121);
#74=LINE('',#526,#122);
#75=LINE('',#529,#123);
#76=LINE('',#531,#124);
#77=LINE('',#533,#125);
#78=LINE('',#534,#126);
#79=LINE('',#537,#127);
#80=LINE('',#539,#128);
#81=LINE('',#541,#129);
#82=LINE('',#542,#130);
#83=LINE('',#545,#131);
#84=LINE('',#547,#132);
#85=LINE('',#548,#133);
#86=LINE('',#551,#134);
#87=LINE('',#552,#135);
#88=LINE('',#555,#136);
#89=LINE('',#556,#137);
#90=LINE('',#558,#138);
#91=LINE('',#561,#139);
#92=LINE('',#563,#140);
#93=LINE('',#564,#141);
#94=LINE('',#567,#142);
#95=LINE('',#568,#143);
#96=LINE('',#571,#144);
#97=LINE('',#572,#145);
#98=LINE('',#574,#146);
#99=LINE('',#577,#147);
#100=LINE('',#579,#148);
#101=LINE('',#580,#149);
#102=LINE('',#583,#150);
#103=LINE('',#584,#151);
#104=LINE('',#587,#152);
#105=LINE('',#588,#153);
#106=LINE('',#590,#154);
#107=VECTOR('',#411,0.393700787401575);
#108=VECTOR('',#412,0.393700787401575);
#109=VECTOR('',#413,0.393700787401575);
#110=VECTOR('',#414,0.393700787401575);
#111=VECTOR('',#417,0.393700787401575);
#112=VECTOR('',#418,0.393700787401575);
#113=VECTOR('',#419,0.393700787401575);
#114=VECTOR('',#422,0.393700787401575);
#115=VECTOR('',#423,0.393700787401575);
#116=VECTOR('',#424,0.393700787401575);
#117=VECTOR('',#427,0.393700787401575);
#118=VECTOR('',#428,0.393700787401575);
#119=VECTOR('',#429,0.393700787401575);
#120=VECTOR('',#430,0.393700787401575);
#121=VECTOR('',#431,0.393700787401575);
#122=VECTOR('',#434,0.393700787401575);
#123=VECTOR('',#435,0.393700787401575);
#124=VECTOR('',#436,0.393700787401575);
#125=VECTOR('',#437,0.393700787401575);
#126=VECTOR('',#438,0.393700787401575);
#127=VECTOR('',#439,0.393700787401575);
#128=VECTOR('',#440,0.393700787401575);
#129=VECTOR('',#441,0.393700787401575);
#130=VECTOR('',#442,0.393700787401575);
#131=VECTOR('',#445,0.393700787401575);
#132=VECTOR('',#446,0.393700787401575);
#133=VECTOR('',#447,0.393700787401575);
#134=VECTOR('',#450,0.393700787401575);
#135=VECTOR('',#451,0.393700787401575);
#136=VECTOR('',#454,0.393700787401575);
#137=VECTOR('',#455,0.393700787401575);
#138=VECTOR('',#458,0.393700787401575);
#139=VECTOR('',#461,0.393700787401575);
#140=VECTOR('',#462,0.393700787401575);
#141=VECTOR('',#463,0.393700787401575);
#142=VECTOR('',#466,0.393700787401575);
#143=VECTOR('',#467,0.393700787401575);
#144=VECTOR('',#470,0.393700787401575);
#145=VECTOR('',#471,0.393700787401575);
#146=VECTOR('',#474,0.393700787401575);
#147=VECTOR('',#477,0.393700787401575);
#148=VECTOR('',#478,0.393700787401575);
#149=VECTOR('',#479,0.393700787401575);
#150=VECTOR('',#482,0.393700787401575);
#151=VECTOR('',#483,0.393700787401575);
#152=VECTOR('',#486,0.393700787401575);
#153=VECTOR('',#487,0.393700787401575);
#154=VECTOR('',#490,0.393700787401575);
#155=VERTEX_POINT('',#495);
#156=VERTEX_POINT('',#496);
#157=VERTEX_POINT('',#498);
#158=VERTEX_POINT('',#500);
#159=VERTEX_POINT('',#504);
#160=VERTEX_POINT('',#506);
#161=VERTEX_POINT('',#510);
#162=VERTEX_POINT('',#512);
#163=VERTEX_POINT('',#516);
#164=VERTEX_POINT('',#518);
#165=VERTEX_POINT('',#520);
#166=VERTEX_POINT('',#522);
#167=VERTEX_POINT('',#527);
#168=VERTEX_POINT('',#528);
#169=VERTEX_POINT('',#530);
#170=VERTEX_POINT('',#532);
#171=VERTEX_POINT('',#535);
#172=VERTEX_POINT('',#536);
#173=VERTEX_POINT('',#538);
#174=VERTEX_POINT('',#540);
#175=VERTEX_POINT('',#544);
#176=VERTEX_POINT('',#546);
#177=VERTEX_POINT('',#550);
#178=VERTEX_POINT('',#554);
#179=VERTEX_POINT('',#560);
#180=VERTEX_POINT('',#562);
#181=VERTEX_POINT('',#566);
#182=VERTEX_POINT('',#570);
#183=VERTEX_POINT('',#576);
#184=VERTEX_POINT('',#578);
#185=VERTEX_POINT('',#582);
#186=VERTEX_POINT('',#586);
#187=EDGE_CURVE('',#155,#156,#59,.T.);
#188=EDGE_CURVE('',#155,#157,#60,.T.);
#189=EDGE_CURVE('',#158,#157,#61,.T.);
#190=EDGE_CURVE('',#156,#158,#62,.T.);
#191=EDGE_CURVE('',#156,#159,#63,.T.);
#192=EDGE_CURVE('',#160,#158,#64,.T.);
#193=EDGE_CURVE('',#159,#160,#65,.T.);
#194=EDGE_CURVE('',#159,#161,#66,.T.);
#195=EDGE_CURVE('',#162,#160,#67,.T.);
#196=EDGE_CURVE('',#161,#162,#68,.T.);
#197=EDGE_CURVE('',#157,#163,#69,.T.);
#198=EDGE_CURVE('',#163,#164,#70,.T.);
#199=EDGE_CURVE('',#164,#165,#71,.T.);
#200=EDGE_CURVE('',#165,#166,#72,.T.);
#201=EDGE_CURVE('',#166,#162,#73,.T.);
#202=EDGE_CURVE('',#155,#161,#74,.T.);
#203=EDGE_CURVE('',#167,#168,#75,.T.);
#204=EDGE_CURVE('',#168,#169,#76,.T.);
#205=EDGE_CURVE('',#169,#170,#77,.T.);
#206=EDGE_CURVE('',#170,#167,#78,.T.);
#207=EDGE_CURVE('',#171,#172,#79,.T.);
#208=EDGE_CURVE('',#172,#173,#80,.T.);
#209=EDGE_CURVE('',#173,#174,#81,.T.);
#210=EDGE_CURVE('',#174,#171,#82,.T.);
#211=EDGE_CURVE('',#175,#173,#83,.T.);
#212=EDGE_CURVE('',#176,#175,#84,.T.);
#213=EDGE_CURVE('',#176,#174,#85,.T.);
#214=EDGE_CURVE('',#177,#176,#86,.T.);
#215=EDGE_CURVE('',#177,#171,#87,.T.);
#216=EDGE_CURVE('',#178,#177,#88,.T.);
#217=EDGE_CURVE('',#178,#172,#89,.T.);
#218=EDGE_CURVE('',#175,#178,#90,.T.);
#219=EDGE_CURVE('',#179,#169,#91,.T.);
#220=EDGE_CURVE('',#180,#179,#92,.T.);
#221=EDGE_CURVE('',#180,#170,#93,.T.);
#222=EDGE_CURVE('',#181,#180,#94,.T.);
#223=EDGE_CURVE('',#181,#167,#95,.T.);
#224=EDGE_CURVE('',#182,#181,#96,.T.);
#225=EDGE_CURVE('',#182,#168,#97,.T.);
#226=EDGE_CURVE('',#179,#182,#98,.T.);
#227=EDGE_CURVE('',#183,#164,#99,.T.);
#228=EDGE_CURVE('',#184,#183,#100,.T.);
#229=EDGE_CURVE('',#165,#184,#101,.T.);
#230=EDGE_CURVE('',#185,#184,#102,.T.);
#231=EDGE_CURVE('',#166,#185,#103,.T.);
#232=EDGE_CURVE('',#186,#185,#104,.T.);
#233=EDGE_CURVE('',#163,#186,#105,.T.);
#234=EDGE_CURVE('',#183,#186,#106,.T.);
#235=ORIENTED_EDGE('',*,*,#187,.F.);
#236=ORIENTED_EDGE('',*,*,#188,.T.);
#237=ORIENTED_EDGE('',*,*,#189,.F.);
#238=ORIENTED_EDGE('',*,*,#190,.F.);
#239=ORIENTED_EDGE('',*,*,#191,.F.);
#240=ORIENTED_EDGE('',*,*,#190,.T.);
#241=ORIENTED_EDGE('',*,*,#192,.F.);
#242=ORIENTED_EDGE('',*,*,#193,.F.);
#243=ORIENTED_EDGE('',*,*,#194,.F.);
#244=ORIENTED_EDGE('',*,*,#193,.T.);
#245=ORIENTED_EDGE('',*,*,#195,.F.);
#246=ORIENTED_EDGE('',*,*,#196,.F.);
#247=ORIENTED_EDGE('',*,*,#195,.T.);
#248=ORIENTED_EDGE('',*,*,#192,.T.);
#249=ORIENTED_EDGE('',*,*,#189,.T.);
#250=ORIENTED_EDGE('',*,*,#197,.T.);
#251=ORIENTED_EDGE('',*,*,#198,.T.);
#252=ORIENTED_EDGE('',*,*,#199,.T.);
#253=ORIENTED_EDGE('',*,*,#200,.T.);
#254=ORIENTED_EDGE('',*,*,#201,.T.);
#255=ORIENTED_EDGE('',*,*,#187,.T.);
#256=ORIENTED_EDGE('',*,*,#191,.T.);
#257=ORIENTED_EDGE('',*,*,#194,.T.);
#258=ORIENTED_EDGE('',*,*,#202,.F.);
#259=ORIENTED_EDGE('',*,*,#203,.T.);
#260=ORIENTED_EDGE('',*,*,#204,.T.);
#261=ORIENTED_EDGE('',*,*,#205,.T.);
#262=ORIENTED_EDGE('',*,*,#206,.T.);
#263=ORIENTED_EDGE('',*,*,#207,.T.);
#264=ORIENTED_EDGE('',*,*,#208,.T.);
#265=ORIENTED_EDGE('',*,*,#209,.T.);
#266=ORIENTED_EDGE('',*,*,#210,.T.);
#267=ORIENTED_EDGE('',*,*,#209,.F.);
#268=ORIENTED_EDGE('',*,*,#211,.F.);
#269=ORIENTED_EDGE('',*,*,#212,.F.);
#270=ORIENTED_EDGE('',*,*,#213,.T.);
#271=ORIENTED_EDGE('',*,*,#210,.F.);
#272=ORIENTED_EDGE('',*,*,#213,.F.);
#273=ORIENTED_EDGE('',*,*,#214,.F.);
#274=ORIENTED_EDGE('',*,*,#215,.T.);
#275=ORIENTED_EDGE('',*,*,#207,.F.);
#276=ORIENTED_EDGE('',*,*,#215,.F.);
#277=ORIENTED_EDGE('',*,*,#216,.F.);
#278=ORIENTED_EDGE('',*,*,#217,.T.);
#279=ORIENTED_EDGE('',*,*,#208,.F.);
#280=ORIENTED_EDGE('',*,*,#217,.F.);
#281=ORIENTED_EDGE('',*,*,#218,.F.);
#282=ORIENTED_EDGE('',*,*,#211,.T.);
#283=ORIENTED_EDGE('',*,*,#205,.F.);
#284=ORIENTED_EDGE('',*,*,#219,.F.);
#285=ORIENTED_EDGE('',*,*,#220,.F.);
#286=ORIENTED_EDGE('',*,*,#221,.T.);
#287=ORIENTED_EDGE('',*,*,#206,.F.);
#288=ORIENTED_EDGE('',*,*,#221,.F.);
#289=ORIENTED_EDGE('',*,*,#222,.F.);
#290=ORIENTED_EDGE('',*,*,#223,.T.);
#291=ORIENTED_EDGE('',*,*,#203,.F.);
#292=ORIENTED_EDGE('',*,*,#223,.F.);
#293=ORIENTED_EDGE('',*,*,#224,.F.);
#294=ORIENTED_EDGE('',*,*,#225,.T.);
#295=ORIENTED_EDGE('',*,*,#204,.F.);
#296=ORIENTED_EDGE('',*,*,#225,.F.);
#297=ORIENTED_EDGE('',*,*,#226,.F.);
#298=ORIENTED_EDGE('',*,*,#219,.T.);
#299=ORIENTED_EDGE('',*,*,#227,.F.);
#300=ORIENTED_EDGE('',*,*,#228,.F.);
#301=ORIENTED_EDGE('',*,*,#229,.F.);
#302=ORIENTED_EDGE('',*,*,#199,.F.);
#303=ORIENTED_EDGE('',*,*,#229,.T.);
#304=ORIENTED_EDGE('',*,*,#230,.F.);
#305=ORIENTED_EDGE('',*,*,#231,.F.);
#306=ORIENTED_EDGE('',*,*,#200,.F.);
#307=ORIENTED_EDGE('',*,*,#202,.T.);
#308=ORIENTED_EDGE('',*,*,#196,.T.);
#309=ORIENTED_EDGE('',*,*,#201,.F.);
#310=ORIENTED_EDGE('',*,*,#231,.T.);
#311=ORIENTED_EDGE('',*,*,#232,.F.);
#312=ORIENTED_EDGE('',*,*,#233,.F.);
#313=ORIENTED_EDGE('',*,*,#197,.F.);
#314=ORIENTED_EDGE('',*,*,#188,.F.);
#315=ORIENTED_EDGE('',*,*,#233,.T.);
#316=ORIENTED_EDGE('',*,*,#234,.F.);
#317=ORIENTED_EDGE('',*,*,#227,.T.);
#318=ORIENTED_EDGE('',*,*,#198,.F.);
#319=ORIENTED_EDGE('',*,*,#234,.T.);
#320=ORIENTED_EDGE('',*,*,#232,.T.);
#321=ORIENTED_EDGE('',*,*,#230,.T.);
#322=ORIENTED_EDGE('',*,*,#228,.T.);
#323=ORIENTED_EDGE('',*,*,#216,.T.);
#324=ORIENTED_EDGE('',*,*,#214,.T.);
#325=ORIENTED_EDGE('',*,*,#212,.T.);
#326=ORIENTED_EDGE('',*,*,#218,.T.);
#327=ORIENTED_EDGE('',*,*,#224,.T.);
#328=ORIENTED_EDGE('',*,*,#222,.T.);
#329=ORIENTED_EDGE('',*,*,#220,.T.);
#330=ORIENTED_EDGE('',*,*,#226,.T.);
#331=PLANE('',#389);
#332=PLANE('',#390);
#333=PLANE('',#391);
#334=PLANE('',#392);
#335=PLANE('',#393);
#336=PLANE('',#394);
#337=PLANE('',#395);
#338=PLANE('',#396);
#339=PLANE('',#397);
#340=PLANE('',#398);
#341=PLANE('',#399);
#342=PLANE('',#400);
#343=PLANE('',#401);
#344=PLANE('',#402);
#345=PLANE('',#403);
#346=PLANE('',#404);
#347=PLANE('',#405);
#348=PLANE('',#406);
#349=ADVANCED_FACE('',(#19),#331,.T.);
#350=ADVANCED_FACE('',(#20),#332,.T.);
#351=ADVANCED_FACE('',(#21),#333,.T.);
#352=ADVANCED_FACE('',(#22),#334,.T.);
#353=ADVANCED_FACE('',(#23,#15,#16),#335,.F.);
#354=ADVANCED_FACE('',(#24),#336,.F.);
#355=ADVANCED_FACE('',(#25),#337,.F.);
#356=ADVANCED_FACE('',(#26),#338,.F.);
#357=ADVANCED_FACE('',(#27),#339,.F.);
#358=ADVANCED_FACE('',(#28),#340,.F.);
#359=ADVANCED_FACE('',(#29),#341,.F.);
#360=ADVANCED_FACE('',(#30),#342,.F.);
#361=ADVANCED_FACE('',(#31),#343,.F.);
#362=ADVANCED_FACE('',(#32),#344,.T.);
#363=ADVANCED_FACE('',(#33),#345,.T.);
#364=ADVANCED_FACE('',(#34),#346,.T.);
#365=ADVANCED_FACE('',(#35),#347,.T.);
#366=ADVANCED_FACE('',(#36,#17,#18),#348,.T.);
#367=CLOSED_SHELL('',(#349,#350,#351,#352,#353,#354,#355,#356,#357,#358,
#359,#360,#361,#362,#363,#364,#365,#366));
#368=DERIVED_UNIT_ELEMENT(#370,1.);
#369=DERIVED_UNIT_ELEMENT(#600,-3.);
#370=(
CONVERSION_BASED_UNIT('gram',#372)
MASS_UNIT()
NAMED_UNIT(#597)
);
#371=(
MASS_UNIT()
NAMED_UNIT(*)
SI_UNIT(.KILO.,.GRAM.)
);
#372=MASS_MEASURE_WITH_UNIT(MASS_MEASURE(0.001),#371);
#373=DERIVED_UNIT((#368,#369));
#374=MEASURE_REPRESENTATION_ITEM('density measure',
POSITIVE_RATIO_MEASURE(1.1),#373);
#375=PROPERTY_DEFINITION_REPRESENTATION(#380,#377);
#376=PROPERTY_DEFINITION_REPRESENTATION(#381,#378);
#377=REPRESENTATION('material name',(#379),#594);
#378=REPRESENTATION('density',(#374),#594);
#379=DESCRIPTIVE_REPRESENTATION_ITEM('PC/ABS Plastic','PC/ABS Plastic');
#380=PROPERTY_DEFINITION('material property','material name',#608);
#381=PROPERTY_DEFINITION('material property','density of part',#608);
#382=DATE_TIME_ROLE('creation_date');
#383=APPLIED_DATE_AND_TIME_ASSIGNMENT(#384,#382,(#608));
#384=DATE_AND_TIME(#385,#386);
#385=CALENDAR_DATE(2026,28,3);
#386=LOCAL_TIME(0,0,0.,#387);
#387=COORDINATED_UNIVERSAL_TIME_OFFSET(0,0,.BEHIND.);
#388=AXIS2_PLACEMENT_3D('',#493,#407,#408);
#389=AXIS2_PLACEMENT_3D('',#494,#409,#410);
#390=AXIS2_PLACEMENT_3D('',#503,#415,#416);
#391=AXIS2_PLACEMENT_3D('',#509,#420,#421);
#392=AXIS2_PLACEMENT_3D('',#515,#425,#426);
#393=AXIS2_PLACEMENT_3D('',#525,#432,#433);
#394=AXIS2_PLACEMENT_3D('',#543,#443,#444);
#395=AXIS2_PLACEMENT_3D('',#549,#448,#449);
#396=AXIS2_PLACEMENT_3D('',#553,#452,#453);
#397=AXIS2_PLACEMENT_3D('',#557,#456,#457);
#398=AXIS2_PLACEMENT_3D('',#559,#459,#460);
#399=AXIS2_PLACEMENT_3D('',#565,#464,#465);
#400=AXIS2_PLACEMENT_3D('',#569,#468,#469);
#401=AXIS2_PLACEMENT_3D('',#573,#472,#473);
#402=AXIS2_PLACEMENT_3D('',#575,#475,#476);
#403=AXIS2_PLACEMENT_3D('',#581,#480,#481);
#404=AXIS2_PLACEMENT_3D('',#585,#484,#485);
#405=AXIS2_PLACEMENT_3D('',#589,#488,#489);
#406=AXIS2_PLACEMENT_3D('',#591,#491,#492);
#407=DIRECTION('axis',(0.,0.,1.));
#408=DIRECTION('refdir',(1.,0.,0.));
#409=DIRECTION('center_axis',(-1.,0.,0.));
#410=DIRECTION('ref_axis',(0.,0.,-1.));
#411=DIRECTION('',(0.,0.,1.));
#412=DIRECTION('',(0.,-1.,0.));
#413=DIRECTION('',(0.,0.,-1.));
#414=DIRECTION('',(0.,-1.,0.));
#415=DIRECTION('center_axis',(-4.40419051090984E-16,0.,-1.));
#416=DIRECTION('ref_axis',(1.,0.,-4.40419051090984E-16));
#417=DIRECTION('',(-1.,0.,4.40419051090984E-16));
#418=DIRECTION('',(1.,0.,-4.40419051090984E-16));
#419=DIRECTION('',(0.,-1.,0.));
#420=DIRECTION('center_axis',(1.,0.,9.31981552675584E-15));
#421=DIRECTION('ref_axis',(-9.31981552675584E-15,0.,1.));
#422=DIRECTION('',(9.31981552675584E-15,0.,-1.));
#423=DIRECTION('',(-9.31981552675584E-15,0.,1.));
#424=DIRECTION('',(0.,-1.,0.));
#425=DIRECTION('center_axis',(0.,-1.,0.));
#426=DIRECTION('ref_axis',(0.,0.,-1.));
#427=DIRECTION('',(1.,0.,-3.23879360831414E-15));
#428=DIRECTION('',(1.15025178680601E-16,0.,1.));
#429=DIRECTION('',(-1.,0.,1.24274204598499E-16));
#430=DIRECTION('',(-2.30050357361201E-16,0.,-1.));
#431=DIRECTION('',(1.,0.,3.5626729691454E-14));
#432=DIRECTION('center_axis',(0.,1.,0.));
#433=DIRECTION('ref_axis',(0.,0.,1.));
#434=DIRECTION('',(-1.,0.,2.48548409196997E-16));
#435=DIRECTION('',(0.,0.,-1.));
#436=DIRECTION('',(-1.,0.,0.));
#437=DIRECTION('',(0.,0.,1.));
#438=DIRECTION('',(1.,0.,-1.2177949081812E-16));
#439=DIRECTION('',(0.,0.,-1.));
#440=DIRECTION('',(-1.,0.,0.));
#441=DIRECTION('',(0.,0.,1.));
#442=DIRECTION('',(1.,0.,-8.11863272120797E-17));
#443=DIRECTION('center_axis',(-1.,0.,0.));
#444=DIRECTION('ref_axis',(0.,0.,-1.));
#445=DIRECTION('',(0.,-1.,0.));
#446=DIRECTION('',(0.,0.,-1.));
#447=DIRECTION('',(0.,-1.,0.));
#448=DIRECTION('center_axis',(8.11863272120797E-17,0.,1.));
#449=DIRECTION('ref_axis',(-1.,0.,8.11863272120797E-17));
#450=DIRECTION('',(-1.,0.,8.11863272120797E-17));
#451=DIRECTION('',(0.,-1.,0.));
#452=DIRECTION('center_axis',(1.,0.,0.));
#453=DIRECTION('ref_axis',(0.,0.,1.));
#454=DIRECTION('',(0.,0.,1.));
#455=DIRECTION('',(0.,-1.,0.));
#456=DIRECTION('center_axis',(0.,0.,-1.));
#457=DIRECTION('ref_axis',(1.,0.,0.));
#458=DIRECTION('',(1.,0.,0.));
#459=DIRECTION('center_axis',(-1.,0.,0.));
#460=DIRECTION('ref_axis',(0.,0.,-1.));
#461=DIRECTION('',(0.,-1.,0.));
#462=DIRECTION('',(0.,0.,-1.));
#463=DIRECTION('',(0.,-1.,0.));
#464=DIRECTION('center_axis',(1.2177949081812E-16,0.,1.));
#465=DIRECTION('ref_axis',(-1.,0.,1.2177949081812E-16));
#466=DIRECTION('',(-1.,0.,1.2177949081812E-16));
#467=DIRECTION('',(0.,-1.,0.));
#468=DIRECTION('center_axis',(1.,0.,0.));
#469=DIRECTION('ref_axis',(0.,0.,1.));
#470=DIRECTION('',(0.,0.,1.));
#471=DIRECTION('',(0.,-1.,0.));
#472=DIRECTION('center_axis',(0.,0.,-1.));
#473=DIRECTION('ref_axis',(1.,0.,0.));
#474=DIRECTION('',(1.,0.,0.));
#475=DIRECTION('center_axis',(1.24274204598499E-16,0.,1.));
#476=DIRECTION('ref_axis',(1.,0.,-1.24274204598499E-16));
#477=DIRECTION('',(0.,-1.,0.));
#478=DIRECTION('',(1.,0.,-1.24274204598499E-16));
#479=DIRECTION('',(0.,1.,0.));
#480=DIRECTION('center_axis',(-1.,0.,2.30050357361201E-16));
#481=DIRECTION('ref_axis',(2.30050357361201E-16,0.,1.));
#482=DIRECTION('',(2.30050357361201E-16,0.,1.));
#483=DIRECTION('',(0.,1.,0.));
#484=DIRECTION('center_axis',(-2.48548409196997E-16,0.,-1.));
#485=DIRECTION('ref_axis',(-1.,0.,2.48548409196997E-16));
#486=DIRECTION('',(-1.,0.,2.48548409196997E-16));
#487=DIRECTION('',(0.,1.,0.));
#488=DIRECTION('center_axis',(1.,0.,-1.15025178680601E-16));
#489=DIRECTION('ref_axis',(-1.15025178680601E-16,0.,-1.));
#490=DIRECTION('',(-1.15025178680601E-16,0.,-1.));
#491=DIRECTION('center_axis',(0.,1.,0.));
#492=DIRECTION('ref_axis',(0.,0.,1.));
#493=CARTESIAN_POINT('',(0.,0.,0.));
#494=CARTESIAN_POINT('Origin',(1.19094488188973,0.,0.715452755905482));
#495=CARTESIAN_POINT('',(1.19094488188973,0.,-0.76));
#496=CARTESIAN_POINT('',(1.19094488188973,0.,0.715452755905482));
#497=CARTESIAN_POINT('',(1.19094488188973,0.,0.357726377952741));
#498=CARTESIAN_POINT('',(1.19094488188973,-0.0669291338582677,-0.76));
#499=CARTESIAN_POINT('',(1.19094488188973,0.,-0.76));
#500=CARTESIAN_POINT('',(1.19094488188973,-0.0669291338582677,0.715452755905482));
#501=CARTESIAN_POINT('',(1.19094488188973,-0.0669291338582677,0.715452755905482));
#502=CARTESIAN_POINT('',(1.19094488188973,0.,0.715452755905482));
#503=CARTESIAN_POINT('Origin',(-1.19094488188972,0.,0.715452755905483));
#504=CARTESIAN_POINT('',(-1.19094488188972,0.,0.715452755905483));
#505=CARTESIAN_POINT('',(-0.595472440944862,0.,0.715452755905483));
#506=CARTESIAN_POINT('',(-1.19094488188972,-0.0669291338582677,0.715452755905483));
#507=CARTESIAN_POINT('',(-1.19094488188972,-0.0669291338582677,0.715452755905483));
#508=CARTESIAN_POINT('',(-1.19094488188972,0.,0.715452755905483));
#509=CARTESIAN_POINT('Origin',(-1.19094488188972,0.,-0.759999999999992));
#510=CARTESIAN_POINT('',(-1.19094488188972,0.,-0.759999999999992));
#511=CARTESIAN_POINT('',(-1.19094488188973,0.,-0.380000000000002));
#512=CARTESIAN_POINT('',(-1.19094488188972,-0.0669291338582677,-0.759999999999992));
#513=CARTESIAN_POINT('',(-1.19094488188972,-0.0669291338582677,-0.759999999999992));
#514=CARTESIAN_POINT('',(-1.19094488188972,0.,-0.759999999999992));
#515=CARTESIAN_POINT('Origin',(0.,-0.0669291338582677,0.));
#516=CARTESIAN_POINT('',(1.406875,-0.0669291338582677,-0.76));
#517=CARTESIAN_POINT('',(1.19094488188973,-0.0669291338582677,-0.76));
#518=CARTESIAN_POINT('',(1.406875,-0.0669291338582677,0.76));
#519=CARTESIAN_POINT('',(1.406875,-0.0669291338582677,-0.76));
#520=CARTESIAN_POINT('',(-1.406875,-0.0669291338582677,0.76));
#521=CARTESIAN_POINT('',(1.406875,-0.0669291338582677,0.76));
#522=CARTESIAN_POINT('',(-1.406875,-0.0669291338582677,-0.76));
#523=CARTESIAN_POINT('',(-1.406875,-0.0669291338582677,0.76));
#524=CARTESIAN_POINT('',(-1.406875,-0.0669291338582677,-0.76));
#525=CARTESIAN_POINT('Origin',(-8.74191357972564E-17,0.,0.));
#526=CARTESIAN_POINT('',(1.406875,0.,-0.76));
#527=CARTESIAN_POINT('',(1.07677165354328,0.,-0.00624999999999986));
#528=CARTESIAN_POINT('',(1.07677165354328,0.,-0.39625));
#529=CARTESIAN_POINT('',(1.07677165354328,0.,-0.198125));
#530=CARTESIAN_POINT('',(-1.07677165354327,0.,-0.39625));
#531=CARTESIAN_POINT('',(-0.538385826771635,0.,-0.39625));
#532=CARTESIAN_POINT('',(-1.07677165354327,0.,-0.0062499999999996));
#533=CARTESIAN_POINT('',(-1.07677165354327,0.,-0.0031249999999998));
#534=CARTESIAN_POINT('',(0.53838582677164,0.,-0.00624999999999979));
#535=CARTESIAN_POINT('',(1.07677165354328,0.,0.57125));
#536=CARTESIAN_POINT('',(1.07677165354328,0.,0.18125));
#537=CARTESIAN_POINT('',(1.07677165354328,0.,0.0906250000000002));
#538=CARTESIAN_POINT('',(-1.07677165354327,0.,0.18125));
#539=CARTESIAN_POINT('',(-0.538385826771635,0.,0.18125));
#540=CARTESIAN_POINT('',(-1.07677165354327,0.,0.57125));
#541=CARTESIAN_POINT('',(-1.07677165354327,0.,0.285625));
#542=CARTESIAN_POINT('',(0.53838582677164,0.,0.57125));
#543=CARTESIAN_POINT('Origin',(-1.07677165354327,0.0492125984251968,0.57125));
#544=CARTESIAN_POINT('',(-1.07677165354327,0.0492125984251968,0.18125));
#545=CARTESIAN_POINT('',(-1.07677165354327,0.0492125984251968,0.18125));
#546=CARTESIAN_POINT('',(-1.07677165354327,0.0492125984251968,0.57125));
#547=CARTESIAN_POINT('',(-1.07677165354327,0.0492125984251968,0.285625));
#548=CARTESIAN_POINT('',(-1.07677165354327,0.0492125984251968,0.57125));
#549=CARTESIAN_POINT('Origin',(1.07677165354328,0.0492125984251968,0.57125));
#550=CARTESIAN_POINT('',(1.07677165354328,0.0492125984251968,0.57125));
#551=CARTESIAN_POINT('',(0.538385826771639,0.0492125984251968,0.57125));
#552=CARTESIAN_POINT('',(1.07677165354328,0.0492125984251968,0.57125));
#553=CARTESIAN_POINT('Origin',(1.07677165354328,0.0492125984251968,0.18125));
#554=CARTESIAN_POINT('',(1.07677165354328,0.0492125984251968,0.18125));
#555=CARTESIAN_POINT('',(1.07677165354328,0.0492125984251968,0.0906250000000002));
#556=CARTESIAN_POINT('',(1.07677165354328,0.0492125984251968,0.18125));
#557=CARTESIAN_POINT('Origin',(-1.07677165354327,0.0492125984251968,0.18125));
#558=CARTESIAN_POINT('',(-0.538385826771635,0.0492125984251968,0.18125));
#559=CARTESIAN_POINT('Origin',(-1.07677165354327,0.0492125984251968,-0.0062499999999996));
#560=CARTESIAN_POINT('',(-1.07677165354327,0.0492125984251968,-0.39625));
#561=CARTESIAN_POINT('',(-1.07677165354327,0.0492125984251968,-0.39625));
#562=CARTESIAN_POINT('',(-1.07677165354327,0.0492125984251968,-0.0062499999999996));
#563=CARTESIAN_POINT('',(-1.07677165354327,0.0492125984251968,-0.0031249999999998));
#564=CARTESIAN_POINT('',(-1.07677165354327,0.0492125984251968,-0.0062499999999996));
#565=CARTESIAN_POINT('Origin',(1.07677165354328,0.0492125984251968,-0.00624999999999986));
#566=CARTESIAN_POINT('',(1.07677165354328,0.0492125984251968,-0.00624999999999986));
#567=CARTESIAN_POINT('',(0.538385826771639,0.0492125984251968,-0.00624999999999979));
#568=CARTESIAN_POINT('',(1.07677165354328,0.0492125984251968,-0.00624999999999986));
#569=CARTESIAN_POINT('Origin',(1.07677165354328,0.0492125984251968,-0.39625));
#570=CARTESIAN_POINT('',(1.07677165354328,0.0492125984251968,-0.39625));
#571=CARTESIAN_POINT('',(1.07677165354328,0.0492125984251968,-0.198125));
#572=CARTESIAN_POINT('',(1.07677165354328,0.0492125984251968,-0.39625));
#573=CARTESIAN_POINT('Origin',(-1.07677165354327,0.0492125984251968,-0.39625));
#574=CARTESIAN_POINT('',(-0.538385826771635,0.0492125984251968,-0.39625));
#575=CARTESIAN_POINT('Origin',(-1.406875,0.,0.76));
#576=CARTESIAN_POINT('',(1.406875,0.0492125984251968,0.76));
#577=CARTESIAN_POINT('',(1.406875,0.,0.76));
#578=CARTESIAN_POINT('',(-1.406875,0.0492125984251968,0.76));
#579=CARTESIAN_POINT('',(-1.406875,0.0492125984251968,0.76));
#580=CARTESIAN_POINT('',(-1.406875,0.,0.76));
#581=CARTESIAN_POINT('Origin',(-1.406875,0.,-0.76));
#582=CARTESIAN_POINT('',(-1.406875,0.0492125984251968,-0.76));
#583=CARTESIAN_POINT('',(-1.406875,0.0492125984251968,-0.76));
#584=CARTESIAN_POINT('',(-1.406875,0.,-0.76));
#585=CARTESIAN_POINT('Origin',(1.406875,0.,-0.76));
#586=CARTESIAN_POINT('',(1.406875,0.0492125984251968,-0.76));
#587=CARTESIAN_POINT('',(1.406875,0.0492125984251968,-0.76));
#588=CARTESIAN_POINT('',(1.406875,0.,-0.76));
#589=CARTESIAN_POINT('Origin',(1.406875,0.,0.76));
#590=CARTESIAN_POINT('',(1.406875,0.0492125984251968,0.76));
#591=CARTESIAN_POINT('Origin',(-1.74838271594513E-16,0.0492125984251968,
0.));
#592=UNCERTAINTY_MEASURE_WITH_UNIT(LENGTH_MEASURE(0.000393700787401575),
#598,'DISTANCE_ACCURACY_VALUE',
'Maximum model space distance between geometric entities at asserted c
onnectivities');
#593=UNCERTAINTY_MEASURE_WITH_UNIT(LENGTH_MEASURE(0.000393700787401575),
#598,'DISTANCE_ACCURACY_VALUE',
'Maximum model space distance between geometric entities at asserted c
onnectivities');
#594=(
GEOMETRIC_REPRESENTATION_CONTEXT(3)
GLOBAL_UNCERTAINTY_ASSIGNED_CONTEXT((#592))
GLOBAL_UNIT_ASSIGNED_CONTEXT((#598,#602,#603))
REPRESENTATION_CONTEXT('','3D')
);
#595=(
GEOMETRIC_REPRESENTATION_CONTEXT(3)
GLOBAL_UNCERTAINTY_ASSIGNED_CONTEXT((#593))
GLOBAL_UNIT_ASSIGNED_CONTEXT((#598,#602,#603))
REPRESENTATION_CONTEXT('','3D')
);
#596=DIMENSIONAL_EXPONENTS(1.,0.,0.,0.,0.,0.,0.);
#597=DIMENSIONAL_EXPONENTS(0.,1.,0.,0.,0.,0.,0.);
#598=(
CONVERSION_BASED_UNIT('inch',#601)
LENGTH_UNIT()
NAMED_UNIT(#596)
);
#599=(
LENGTH_UNIT()
NAMED_UNIT(*)
SI_UNIT(.MILLI.,.METRE.)
);
#600=(
LENGTH_UNIT()
NAMED_UNIT(*)
SI_UNIT(.CENTI.,.METRE.)
);
#601=LENGTH_MEASURE_WITH_UNIT(LENGTH_MEASURE(25.4),#599);
#602=(
NAMED_UNIT(*)
PLANE_ANGLE_UNIT()
SI_UNIT($,.RADIAN.)
);
#603=(
NAMED_UNIT(*)
SI_UNIT($,.STERADIAN.)
SOLID_ANGLE_UNIT()
);
#604=SHAPE_DEFINITION_REPRESENTATION(#605,#606);
#605=PRODUCT_DEFINITION_SHAPE('',$,#608);
#606=SHAPE_REPRESENTATION('',(#388),#594);
#607=PRODUCT_DEFINITION_CONTEXT('part definition',#612,'design');
#608=PRODUCT_DEFINITION('OLED Cover','OLED Cover',#609,#607);
#609=PRODUCT_DEFINITION_FORMATION('',$,#614);
#610=PRODUCT_RELATED_PRODUCT_CATEGORY('OLED Cover','OLED Cover',(#614));
#611=APPLICATION_PROTOCOL_DEFINITION('international standard',
'automotive_design',2009,#612);
#612=APPLICATION_CONTEXT(
'Core Data for Automotive Mechanical Design Process');
#613=PRODUCT_CONTEXT('part definition',#612,'mechanical');
#614=PRODUCT('OLED Cover','OLED Cover',$,(#613));
#615=PRESENTATION_STYLE_ASSIGNMENT((#616));
#616=SURFACE_STYLE_USAGE(.BOTH.,#619);
#617=SURFACE_STYLE_RENDERING_WITH_PROPERTIES($,#623,(#618));
#618=SURFACE_STYLE_TRANSPARENT(0.);
#619=SURFACE_SIDE_STYLE('',(#620,#617));
#620=SURFACE_STYLE_FILL_AREA(#621);
#621=FILL_AREA_STYLE('',(#622));
#622=FILL_AREA_STYLE_COLOUR('',#623);
#623=COLOUR_RGB('',0.0196078431372549,0.0196078431372549,0.0196078431372549);
ENDSEC;
END-ISO-10303-21;
