ISO-10303-21;
HEADER;
/* Generated by software containing ST-Developer
 * from STEP Tools, Inc. (www.steptools.com) 
 */

FILE_DESCRIPTION(
/* description */ (''),
/* implementation_level */ '2;1');

FILE_NAME(
/* name */ 'Round Button.stp',
/* time_stamp */ '2026-08-27T18:56:08-04:00',
/* author */ ('rgoff'),
/* organization */ (''),
/* preprocessor_version */ 'ST-DEVELOPER v20',
/* originating_system */ 'Autodesk Inventor 2024',
/* authorisation */ '');

FILE_SCHEMA (('AUTOMOTIVE_DESIGN { 1 0 10303 214 3 1 1 }'));
ENDSEC;

DATA;
#10=MECHANICAL_DESIGN_GEOMETRIC_PRESENTATION_REPRESENTATION('',(#15,#16),
#890);
#11=SHAPE_REPRESENTATION_RELATIONSHIP('SRR','None',#901,#12);
#12=ADVANCED_BREP_SHAPE_REPRESENTATION('',(#13),#889);
#13=MANIFOLD_SOLID_BREP('Solid1',#513);
#14=SPHERICAL_SURFACE('',#579,0.721914062499999);
#15=STYLED_ITEM('',(#910),#508);
#16=STYLED_ITEM('',(#910),#13);
#17=FACE_BOUND('',#77,.T.);
#18=FACE_BOUND('',#89,.T.);
#19=PLANE('',#538);
#20=PLANE('',#542);
#21=PLANE('',#543);
#22=PLANE('',#546);
#23=PLANE('',#549);
#24=PLANE('',#550);
#25=PLANE('',#554);
#26=PLANE('',#558);
#27=PLANE('',#559);
#28=PLANE('',#566);
#29=PLANE('',#567);
#30=PLANE('',#574);
#31=PLANE('',#576);
#32=PLANE('',#578);
#33=PLANE('',#581);
#34=PLANE('',#582);
#35=PLANE('',#585);
#36=FACE_OUTER_BOUND('',#62,.T.);
#37=FACE_OUTER_BOUND('',#63,.T.);
#38=FACE_OUTER_BOUND('',#64,.T.);
#39=FACE_OUTER_BOUND('',#65,.T.);
#40=FACE_OUTER_BOUND('',#66,.T.);
#41=FACE_OUTER_BOUND('',#67,.T.);
#42=FACE_OUTER_BOUND('',#68,.T.);
#43=FACE_OUTER_BOUND('',#69,.T.);
#44=FACE_OUTER_BOUND('',#70,.T.);
#45=FACE_OUTER_BOUND('',#71,.T.);
#46=FACE_OUTER_BOUND('',#72,.T.);
#47=FACE_OUTER_BOUND('',#73,.T.);
#48=FACE_OUTER_BOUND('',#74,.T.);
#49=FACE_OUTER_BOUND('',#75,.T.);
#50=FACE_OUTER_BOUND('',#76,.T.);
#51=FACE_OUTER_BOUND('',#78,.T.);
#52=FACE_OUTER_BOUND('',#79,.T.);
#53=FACE_OUTER_BOUND('',#80,.T.);
#54=FACE_OUTER_BOUND('',#81,.T.);
#55=FACE_OUTER_BOUND('',#82,.T.);
#56=FACE_OUTER_BOUND('',#83,.T.);
#57=FACE_OUTER_BOUND('',#84,.T.);
#58=FACE_OUTER_BOUND('',#85,.T.);
#59=FACE_OUTER_BOUND('',#86,.T.);
#60=FACE_OUTER_BOUND('',#87,.T.);
#61=FACE_OUTER_BOUND('',#88,.T.);
#62=EDGE_LOOP('',(#333,#334,#335,#336));
#63=EDGE_LOOP('',(#337,#338,#339,#340));
#64=EDGE_LOOP('',(#341,#342,#343,#344));
#65=EDGE_LOOP('',(#345,#346,#347,#348));
#66=EDGE_LOOP('',(#349,#350,#351,#352,#353,#354));
#67=EDGE_LOOP('',(#355,#356,#357,#358,#359,#360));
#68=EDGE_LOOP('',(#361,#362,#363,#364,#365,#366,#367,#368,#369,#370,#371,
#372,#373,#374));
#69=EDGE_LOOP('',(#375,#376,#377,#378,#379,#380));
#70=EDGE_LOOP('',(#381,#382,#383,#384,#385));
#71=EDGE_LOOP('',(#386,#387,#388,#389));
#72=EDGE_LOOP('',(#390,#391,#392,#393,#394,#395,#396,#397,#398,#399,#400,
#401,#402,#403));
#73=EDGE_LOOP('',(#404,#405,#406,#407,#408,#409,#410,#411,#412,#413,#414,
#415));
#74=EDGE_LOOP('',(#416,#417,#418,#419,#420,#421));
#75=EDGE_LOOP('',(#422,#423,#424,#425));
#76=EDGE_LOOP('',(#426,#427,#428,#429,#430,#431,#432,#433));
#77=EDGE_LOOP('',(#434));
#78=EDGE_LOOP('',(#435,#436,#437,#438,#439,#440));
#79=EDGE_LOOP('',(#441,#442,#443,#444));
#80=EDGE_LOOP('',(#445,#446,#447,#448,#449,#450));
#81=EDGE_LOOP('',(#451,#452,#453,#454));
#82=EDGE_LOOP('',(#455,#456,#457,#458,#459,#460));
#83=EDGE_LOOP('',(#461,#462,#463,#464));
#84=EDGE_LOOP('',(#465));
#85=EDGE_LOOP('',(#466));
#86=EDGE_LOOP('',(#467,#468,#469,#470,#471,#472));
#87=EDGE_LOOP('',(#473,#474,#475,#476));
#88=EDGE_LOOP('',(#477));
#89=EDGE_LOOP('',(#478));
#90=LINE('',#744,#138);
#91=LINE('',#747,#139);
#92=LINE('',#750,#140);
#93=LINE('',#752,#141);
#94=LINE('',#753,#142);
#95=LINE('',#759,#143);
#96=LINE('',#762,#144);
#97=LINE('',#765,#145);
#98=LINE('',#767,#146);
#99=LINE('',#768,#147);
#100=LINE('',#771,#148);
#101=LINE('',#775,#149);
#102=LINE('',#778,#150);
#103=LINE('',#781,#151);
#104=LINE('',#785,#152);
#105=LINE('',#788,#153);
#106=LINE('',#792,#154);
#107=LINE('',#793,#155);
#108=LINE('',#794,#156);
#109=LINE('',#796,#157);
#110=LINE('',#798,#158);
#111=LINE('',#800,#159);
#112=LINE('',#802,#160);
#113=LINE('',#803,#161);
#114=LINE('',#809,#162);
#115=LINE('',#816,#163);
#116=LINE('',#820,#164);
#117=LINE('',#823,#165);
#118=LINE('',#825,#166);
#119=LINE('',#827,#167);
#120=LINE('',#828,#168);
#121=LINE('',#830,#169);
#122=LINE('',#831,#170);
#123=LINE('',#834,#171);
#124=LINE('',#841,#172);
#125=LINE('',#844,#173);
#126=LINE('',#847,#174);
#127=LINE('',#849,#175);
#128=LINE('',#850,#176);
#129=LINE('',#853,#177);
#130=LINE('',#857,#178);
#131=LINE('',#861,#179);
#132=LINE('',#867,#180);
#133=LINE('',#869,#181);
#134=LINE('',#871,#182);
#135=LINE('',#873,#183);
#136=LINE('',#875,#184);
#137=LINE('',#885,#185);
#138=VECTOR('',#592,0.393700787401575);
#139=VECTOR('',#595,0.393700787401575);
#140=VECTOR('',#598,0.393700787401575);
#141=VECTOR('',#599,0.393700787401575);
#142=VECTOR('',#600,0.393700787401575);
#143=VECTOR('',#605,0.393700787401575);
#144=VECTOR('',#608,0.393700787401575);
#145=VECTOR('',#611,0.393700787401575);
#146=VECTOR('',#612,0.393700787401575);
#147=VECTOR('',#613,0.393700787401575);
#148=VECTOR('',#616,0.393700787401575);
#149=VECTOR('',#619,0.393700787401575);
#150=VECTOR('',#622,0.393700787401575);
#151=VECTOR('',#625,0.393700787401575);
#152=VECTOR('',#628,0.393700787401575);
#153=VECTOR('',#631,0.393700787401575);
#154=VECTOR('',#634,0.393700787401575);
#155=VECTOR('',#635,0.393700787401575);
#156=VECTOR('',#636,0.393700787401575);
#157=VECTOR('',#637,0.393700787401575);
#158=VECTOR('',#638,0.393700787401575);
#159=VECTOR('',#639,0.393700787401575);
#160=VECTOR('',#640,0.393700787401575);
#161=VECTOR('',#641,0.393700787401575);
#162=VECTOR('',#648,0.393700787401575);
#163=VECTOR('',#655,0.393700787401575);
#164=VECTOR('',#662,0.393700787401575);
#165=VECTOR('',#665,0.393700787401575);
#166=VECTOR('',#666,0.393700787401575);
#167=VECTOR('',#667,0.393700787401575);
#168=VECTOR('',#668,0.393700787401575);
#169=VECTOR('',#669,0.393700787401575);
#170=VECTOR('',#670,0.393700787401575);
#171=VECTOR('',#673,0.175);
#172=VECTOR('',#682,0.393700787401575);
#173=VECTOR('',#685,0.393700787401575);
#174=VECTOR('',#688,0.393700787401575);
#175=VECTOR('',#689,0.393700787401575);
#176=VECTOR('',#690,0.393700787401575);
#177=VECTOR('',#693,0.393700787401575);
#178=VECTOR('',#696,0.393700787401575);
#179=VECTOR('',#699,0.393700787401575);
#180=VECTOR('',#708,0.393700787401575);
#181=VECTOR('',#711,0.393700787401575);
#182=VECTOR('',#714,0.393700787401575);
#183=VECTOR('',#717,0.393700787401575);
#184=VECTOR('',#720,0.393700787401575);
#185=VECTOR('',#735,0.2);
#186=CIRCLE('',#536,0.03);
#187=CIRCLE('',#537,0.03);
#188=CIRCLE('',#540,0.03);
#189=CIRCLE('',#541,0.03);
#190=CIRCLE('',#544,0.2);
#191=CIRCLE('',#545,0.2);
#192=CIRCLE('',#547,0.2);
#193=CIRCLE('',#548,0.2);
#194=CIRCLE('',#551,0.175);
#195=CIRCLE('',#552,0.2);
#196=CIRCLE('',#553,0.2);
#197=CIRCLE('',#555,0.175);
#198=CIRCLE('',#556,0.175);
#199=CIRCLE('',#557,0.175);
#200=CIRCLE('',#561,0.175);
#201=CIRCLE('',#562,0.175);
#202=CIRCLE('',#564,0.2);
#203=CIRCLE('',#565,0.2);
#204=CIRCLE('',#568,0.2);
#205=CIRCLE('',#569,0.2);
#206=CIRCLE('',#570,0.2);
#207=CIRCLE('',#571,0.2);
#208=CIRCLE('',#573,0.2);
#209=CIRCLE('',#580,0.16875);
#210=CIRCLE('',#584,0.2);
#211=VERTEX_POINT('',#740);
#212=VERTEX_POINT('',#741);
#213=VERTEX_POINT('',#743);
#214=VERTEX_POINT('',#745);
#215=VERTEX_POINT('',#749);
#216=VERTEX_POINT('',#751);
#217=VERTEX_POINT('',#755);
#218=VERTEX_POINT('',#756);
#219=VERTEX_POINT('',#758);
#220=VERTEX_POINT('',#760);
#221=VERTEX_POINT('',#764);
#222=VERTEX_POINT('',#766);
#223=VERTEX_POINT('',#770);
#224=VERTEX_POINT('',#772);
#225=VERTEX_POINT('',#774);
#226=VERTEX_POINT('',#776);
#227=VERTEX_POINT('',#780);
#228=VERTEX_POINT('',#782);
#229=VERTEX_POINT('',#784);
#230=VERTEX_POINT('',#786);
#231=VERTEX_POINT('',#790);
#232=VERTEX_POINT('',#791);
#233=VERTEX_POINT('',#795);
#234=VERTEX_POINT('',#797);
#235=VERTEX_POINT('',#799);
#236=VERTEX_POINT('',#801);
#237=VERTEX_POINT('',#806);
#238=VERTEX_POINT('',#808);
#239=VERTEX_POINT('',#812);
#240=VERTEX_POINT('',#813);
#241=VERTEX_POINT('',#815);
#242=VERTEX_POINT('',#822);
#243=VERTEX_POINT('',#824);
#244=VERTEX_POINT('',#826);
#245=VERTEX_POINT('',#829);
#246=VERTEX_POINT('',#833);
#247=VERTEX_POINT('',#838);
#248=VERTEX_POINT('',#840);
#249=VERTEX_POINT('',#842);
#250=VERTEX_POINT('',#846);
#251=VERTEX_POINT('',#848);
#252=VERTEX_POINT('',#852);
#253=VERTEX_POINT('',#854);
#254=VERTEX_POINT('',#856);
#255=VERTEX_POINT('',#858);
#256=VERTEX_POINT('',#860);
#257=VERTEX_POINT('',#863);
#258=VERTEX_POINT('',#878);
#259=VERTEX_POINT('',#883);
#260=EDGE_CURVE('',#211,#212,#186,.T.);
#261=EDGE_CURVE('',#212,#213,#90,.T.);
#262=EDGE_CURVE('',#213,#214,#187,.T.);
#263=EDGE_CURVE('',#214,#211,#91,.T.);
#264=EDGE_CURVE('',#212,#215,#92,.T.);
#265=EDGE_CURVE('',#216,#215,#93,.T.);
#266=EDGE_CURVE('',#213,#216,#94,.T.);
#267=EDGE_CURVE('',#217,#218,#188,.T.);
#268=EDGE_CURVE('',#218,#219,#95,.T.);
#269=EDGE_CURVE('',#219,#220,#189,.T.);
#270=EDGE_CURVE('',#220,#217,#96,.T.);
#271=EDGE_CURVE('',#218,#221,#97,.T.);
#272=EDGE_CURVE('',#222,#221,#98,.T.);
#273=EDGE_CURVE('',#219,#222,#99,.T.);
#274=EDGE_CURVE('',#221,#223,#100,.T.);
#275=EDGE_CURVE('',#223,#224,#190,.T.);
#276=EDGE_CURVE('',#224,#225,#101,.T.);
#277=EDGE_CURVE('',#225,#226,#191,.T.);
#278=EDGE_CURVE('',#226,#222,#102,.T.);
#279=EDGE_CURVE('',#215,#227,#103,.T.);
#280=EDGE_CURVE('',#227,#228,#192,.T.);
#281=EDGE_CURVE('',#228,#229,#104,.T.);
#282=EDGE_CURVE('',#229,#230,#193,.T.);
#283=EDGE_CURVE('',#230,#216,#105,.T.);
#284=EDGE_CURVE('',#231,#232,#106,.T.);
#285=EDGE_CURVE('',#231,#223,#107,.T.);
#286=EDGE_CURVE('',#217,#214,#108,.T.);
#287=EDGE_CURVE('',#233,#230,#109,.T.);
#288=EDGE_CURVE('',#234,#233,#110,.T.);
#289=EDGE_CURVE('',#235,#234,#111,.T.);
#290=EDGE_CURVE('',#235,#236,#112,.T.);
#291=EDGE_CURVE('',#232,#236,#113,.T.);
#292=EDGE_CURVE('',#232,#234,#194,.T.);
#293=EDGE_CURVE('',#237,#233,#195,.T.);
#294=EDGE_CURVE('',#237,#238,#114,.T.);
#295=EDGE_CURVE('',#231,#238,#196,.T.);
#296=EDGE_CURVE('',#239,#240,#197,.T.);
#297=EDGE_CURVE('',#241,#239,#115,.T.);
#298=EDGE_CURVE('',#236,#241,#198,.T.);
#299=EDGE_CURVE('',#240,#235,#199,.T.);
#300=EDGE_CURVE('',#211,#220,#116,.T.);
#301=EDGE_CURVE('',#241,#242,#117,.T.);
#302=EDGE_CURVE('',#243,#239,#118,.T.);
#303=EDGE_CURVE('',#244,#243,#119,.T.);
#304=EDGE_CURVE('',#244,#227,#120,.T.);
#305=EDGE_CURVE('',#245,#226,#121,.T.);
#306=EDGE_CURVE('',#242,#245,#122,.T.);
#307=EDGE_CURVE('',#240,#246,#123,.T.);
#308=EDGE_CURVE('',#246,#246,#200,.T.);
#309=EDGE_CURVE('',#243,#242,#201,.T.);
#310=EDGE_CURVE('',#247,#245,#202,.T.);
#311=EDGE_CURVE('',#225,#248,#124,.T.);
#312=EDGE_CURVE('',#248,#249,#203,.T.);
#313=EDGE_CURVE('',#249,#247,#125,.T.);
#314=EDGE_CURVE('',#249,#250,#126,.T.);
#315=EDGE_CURVE('',#251,#250,#127,.T.);
#316=EDGE_CURVE('',#247,#251,#128,.T.);
#317=EDGE_CURVE('',#252,#248,#129,.T.);
#318=EDGE_CURVE('',#253,#252,#204,.T.);
#319=EDGE_CURVE('',#254,#253,#130,.T.);
#320=EDGE_CURVE('',#255,#254,#205,.T.);
#321=EDGE_CURVE('',#256,#255,#131,.T.);
#322=EDGE_CURVE('',#250,#256,#206,.T.);
#323=EDGE_CURVE('',#257,#257,#207,.T.);
#324=EDGE_CURVE('',#244,#251,#208,.T.);
#325=EDGE_CURVE('',#256,#228,#132,.T.);
#326=EDGE_CURVE('',#229,#255,#133,.T.);
#327=EDGE_CURVE('',#254,#237,#134,.T.);
#328=EDGE_CURVE('',#238,#253,#135,.T.);
#329=EDGE_CURVE('',#252,#224,#136,.T.);
#330=EDGE_CURVE('',#258,#258,#209,.T.);
#331=EDGE_CURVE('',#259,#259,#210,.T.);
#332=EDGE_CURVE('',#259,#257,#137,.T.);
#333=ORIENTED_EDGE('',*,*,#260,.T.);
#334=ORIENTED_EDGE('',*,*,#261,.T.);
#335=ORIENTED_EDGE('',*,*,#262,.T.);
#336=ORIENTED_EDGE('',*,*,#263,.T.);
#337=ORIENTED_EDGE('',*,*,#261,.F.);
#338=ORIENTED_EDGE('',*,*,#264,.T.);
#339=ORIENTED_EDGE('',*,*,#265,.F.);
#340=ORIENTED_EDGE('',*,*,#266,.F.);
#341=ORIENTED_EDGE('',*,*,#267,.T.);
#342=ORIENTED_EDGE('',*,*,#268,.T.);
#343=ORIENTED_EDGE('',*,*,#269,.T.);
#344=ORIENTED_EDGE('',*,*,#270,.T.);
#345=ORIENTED_EDGE('',*,*,#268,.F.);
#346=ORIENTED_EDGE('',*,*,#271,.T.);
#347=ORIENTED_EDGE('',*,*,#272,.F.);
#348=ORIENTED_EDGE('',*,*,#273,.F.);
#349=ORIENTED_EDGE('',*,*,#274,.T.);
#350=ORIENTED_EDGE('',*,*,#275,.T.);
#351=ORIENTED_EDGE('',*,*,#276,.T.);
#352=ORIENTED_EDGE('',*,*,#277,.T.);
#353=ORIENTED_EDGE('',*,*,#278,.T.);
#354=ORIENTED_EDGE('',*,*,#272,.T.);
#355=ORIENTED_EDGE('',*,*,#279,.T.);
#356=ORIENTED_EDGE('',*,*,#280,.T.);
#357=ORIENTED_EDGE('',*,*,#281,.T.);
#358=ORIENTED_EDGE('',*,*,#282,.T.);
#359=ORIENTED_EDGE('',*,*,#283,.T.);
#360=ORIENTED_EDGE('',*,*,#265,.T.);
#361=ORIENTED_EDGE('',*,*,#284,.F.);
#362=ORIENTED_EDGE('',*,*,#285,.T.);
#363=ORIENTED_EDGE('',*,*,#274,.F.);
#364=ORIENTED_EDGE('',*,*,#271,.F.);
#365=ORIENTED_EDGE('',*,*,#267,.F.);
#366=ORIENTED_EDGE('',*,*,#286,.T.);
#367=ORIENTED_EDGE('',*,*,#262,.F.);
#368=ORIENTED_EDGE('',*,*,#266,.T.);
#369=ORIENTED_EDGE('',*,*,#283,.F.);
#370=ORIENTED_EDGE('',*,*,#287,.F.);
#371=ORIENTED_EDGE('',*,*,#288,.F.);
#372=ORIENTED_EDGE('',*,*,#289,.F.);
#373=ORIENTED_EDGE('',*,*,#290,.T.);
#374=ORIENTED_EDGE('',*,*,#291,.F.);
#375=ORIENTED_EDGE('',*,*,#284,.T.);
#376=ORIENTED_EDGE('',*,*,#292,.T.);
#377=ORIENTED_EDGE('',*,*,#288,.T.);
#378=ORIENTED_EDGE('',*,*,#293,.F.);
#379=ORIENTED_EDGE('',*,*,#294,.T.);
#380=ORIENTED_EDGE('',*,*,#295,.F.);
#381=ORIENTED_EDGE('',*,*,#296,.F.);
#382=ORIENTED_EDGE('',*,*,#297,.F.);
#383=ORIENTED_EDGE('',*,*,#298,.F.);
#384=ORIENTED_EDGE('',*,*,#290,.F.);
#385=ORIENTED_EDGE('',*,*,#299,.F.);
#386=ORIENTED_EDGE('',*,*,#263,.F.);
#387=ORIENTED_EDGE('',*,*,#286,.F.);
#388=ORIENTED_EDGE('',*,*,#270,.F.);
#389=ORIENTED_EDGE('',*,*,#300,.F.);
#390=ORIENTED_EDGE('',*,*,#301,.F.);
#391=ORIENTED_EDGE('',*,*,#297,.T.);
#392=ORIENTED_EDGE('',*,*,#302,.F.);
#393=ORIENTED_EDGE('',*,*,#303,.F.);
#394=ORIENTED_EDGE('',*,*,#304,.T.);
#395=ORIENTED_EDGE('',*,*,#279,.F.);
#396=ORIENTED_EDGE('',*,*,#264,.F.);
#397=ORIENTED_EDGE('',*,*,#260,.F.);
#398=ORIENTED_EDGE('',*,*,#300,.T.);
#399=ORIENTED_EDGE('',*,*,#269,.F.);
#400=ORIENTED_EDGE('',*,*,#273,.T.);
#401=ORIENTED_EDGE('',*,*,#278,.F.);
#402=ORIENTED_EDGE('',*,*,#305,.F.);
#403=ORIENTED_EDGE('',*,*,#306,.F.);
#404=ORIENTED_EDGE('',*,*,#302,.T.);
#405=ORIENTED_EDGE('',*,*,#296,.T.);
#406=ORIENTED_EDGE('',*,*,#307,.T.);
#407=ORIENTED_EDGE('',*,*,#308,.T.);
#408=ORIENTED_EDGE('',*,*,#307,.F.);
#409=ORIENTED_EDGE('',*,*,#299,.T.);
#410=ORIENTED_EDGE('',*,*,#289,.T.);
#411=ORIENTED_EDGE('',*,*,#292,.F.);
#412=ORIENTED_EDGE('',*,*,#291,.T.);
#413=ORIENTED_EDGE('',*,*,#298,.T.);
#414=ORIENTED_EDGE('',*,*,#301,.T.);
#415=ORIENTED_EDGE('',*,*,#309,.F.);
#416=ORIENTED_EDGE('',*,*,#310,.T.);
#417=ORIENTED_EDGE('',*,*,#305,.T.);
#418=ORIENTED_EDGE('',*,*,#277,.F.);
#419=ORIENTED_EDGE('',*,*,#311,.T.);
#420=ORIENTED_EDGE('',*,*,#312,.T.);
#421=ORIENTED_EDGE('',*,*,#313,.T.);
#422=ORIENTED_EDGE('',*,*,#313,.F.);
#423=ORIENTED_EDGE('',*,*,#314,.T.);
#424=ORIENTED_EDGE('',*,*,#315,.F.);
#425=ORIENTED_EDGE('',*,*,#316,.F.);
#426=ORIENTED_EDGE('',*,*,#312,.F.);
#427=ORIENTED_EDGE('',*,*,#317,.F.);
#428=ORIENTED_EDGE('',*,*,#318,.F.);
#429=ORIENTED_EDGE('',*,*,#319,.F.);
#430=ORIENTED_EDGE('',*,*,#320,.F.);
#431=ORIENTED_EDGE('',*,*,#321,.F.);
#432=ORIENTED_EDGE('',*,*,#322,.F.);
#433=ORIENTED_EDGE('',*,*,#314,.F.);
#434=ORIENTED_EDGE('',*,*,#323,.F.);
#435=ORIENTED_EDGE('',*,*,#324,.T.);
#436=ORIENTED_EDGE('',*,*,#315,.T.);
#437=ORIENTED_EDGE('',*,*,#322,.T.);
#438=ORIENTED_EDGE('',*,*,#325,.T.);
#439=ORIENTED_EDGE('',*,*,#280,.F.);
#440=ORIENTED_EDGE('',*,*,#304,.F.);
#441=ORIENTED_EDGE('',*,*,#325,.F.);
#442=ORIENTED_EDGE('',*,*,#321,.T.);
#443=ORIENTED_EDGE('',*,*,#326,.F.);
#444=ORIENTED_EDGE('',*,*,#281,.F.);
#445=ORIENTED_EDGE('',*,*,#293,.T.);
#446=ORIENTED_EDGE('',*,*,#287,.T.);
#447=ORIENTED_EDGE('',*,*,#282,.F.);
#448=ORIENTED_EDGE('',*,*,#326,.T.);
#449=ORIENTED_EDGE('',*,*,#320,.T.);
#450=ORIENTED_EDGE('',*,*,#327,.T.);
#451=ORIENTED_EDGE('',*,*,#327,.F.);
#452=ORIENTED_EDGE('',*,*,#319,.T.);
#453=ORIENTED_EDGE('',*,*,#328,.F.);
#454=ORIENTED_EDGE('',*,*,#294,.F.);
#455=ORIENTED_EDGE('',*,*,#295,.T.);
#456=ORIENTED_EDGE('',*,*,#328,.T.);
#457=ORIENTED_EDGE('',*,*,#318,.T.);
#458=ORIENTED_EDGE('',*,*,#329,.T.);
#459=ORIENTED_EDGE('',*,*,#275,.F.);
#460=ORIENTED_EDGE('',*,*,#285,.F.);
#461=ORIENTED_EDGE('',*,*,#311,.F.);
#462=ORIENTED_EDGE('',*,*,#276,.F.);
#463=ORIENTED_EDGE('',*,*,#329,.F.);
#464=ORIENTED_EDGE('',*,*,#317,.T.);
#465=ORIENTED_EDGE('',*,*,#330,.F.);
#466=ORIENTED_EDGE('',*,*,#308,.F.);
#467=ORIENTED_EDGE('',*,*,#306,.T.);
#468=ORIENTED_EDGE('',*,*,#310,.F.);
#469=ORIENTED_EDGE('',*,*,#316,.T.);
#470=ORIENTED_EDGE('',*,*,#324,.F.);
#471=ORIENTED_EDGE('',*,*,#303,.T.);
#472=ORIENTED_EDGE('',*,*,#309,.T.);
#473=ORIENTED_EDGE('',*,*,#331,.F.);
#474=ORIENTED_EDGE('',*,*,#332,.T.);
#475=ORIENTED_EDGE('',*,*,#323,.T.);
#476=ORIENTED_EDGE('',*,*,#332,.F.);
#477=ORIENTED_EDGE('',*,*,#331,.T.);
#478=ORIENTED_EDGE('',*,*,#330,.T.);
#479=CYLINDRICAL_SURFACE('',#535,0.03);
#480=CYLINDRICAL_SURFACE('',#539,0.03);
#481=CYLINDRICAL_SURFACE('',#560,0.175);
#482=CYLINDRICAL_SURFACE('',#563,0.2);
#483=CYLINDRICAL_SURFACE('',#572,0.2);
#484=CYLINDRICAL_SURFACE('',#575,0.2);
#485=CYLINDRICAL_SURFACE('',#577,0.2);
#486=CYLINDRICAL_SURFACE('',#583,0.2);
#487=ADVANCED_FACE('',(#36),#479,.F.);
#488=ADVANCED_FACE('',(#37),#19,.T.);
#489=ADVANCED_FACE('',(#38),#480,.F.);
#490=ADVANCED_FACE('',(#39),#20,.T.);
#491=ADVANCED_FACE('',(#40),#21,.T.);
#492=ADVANCED_FACE('',(#41),#22,.T.);
#493=ADVANCED_FACE('',(#42),#23,.T.);
#494=ADVANCED_FACE('',(#43),#24,.T.);
#495=ADVANCED_FACE('',(#44),#25,.T.);
#496=ADVANCED_FACE('',(#45),#26,.T.);
#497=ADVANCED_FACE('',(#46),#27,.T.);
#498=ADVANCED_FACE('',(#47),#481,.F.);
#499=ADVANCED_FACE('',(#48),#482,.T.);
#500=ADVANCED_FACE('',(#49),#28,.T.);
#501=ADVANCED_FACE('',(#50,#17),#29,.F.);
#502=ADVANCED_FACE('',(#51),#483,.T.);
#503=ADVANCED_FACE('',(#52),#30,.T.);
#504=ADVANCED_FACE('',(#53),#484,.T.);
#505=ADVANCED_FACE('',(#54),#31,.T.);
#506=ADVANCED_FACE('',(#55),#485,.T.);
#507=ADVANCED_FACE('',(#56),#32,.T.);
#508=ADVANCED_FACE('',(#57),#14,.F.);
#509=ADVANCED_FACE('',(#58),#33,.T.);
#510=ADVANCED_FACE('',(#59),#34,.T.);
#511=ADVANCED_FACE('',(#60),#486,.T.);
#512=ADVANCED_FACE('',(#61,#18),#35,.T.);
#513=CLOSED_SHELL('',(#487,#488,#489,#490,#491,#492,#493,#494,#495,#496,
#497,#498,#499,#500,#501,#502,#503,#504,#505,#506,#507,#508,#509,#510,#511,
#512));
#514=DERIVED_UNIT_ELEMENT(#516,1.);
#515=DERIVED_UNIT_ELEMENT(#895,-3.);
#516=(
CONVERSION_BASED_UNIT('gram',#518)
MASS_UNIT()
NAMED_UNIT(#892)
);
#517=(
MASS_UNIT()
NAMED_UNIT(*)
SI_UNIT(.KILO.,.GRAM.)
);
#518=MASS_MEASURE_WITH_UNIT(MASS_MEASURE(0.001),#517);
#519=DERIVED_UNIT((#514,#515));
#520=MEASURE_REPRESENTATION_ITEM('density measure',
POSITIVE_RATIO_MEASURE(1.1),#519);
#521=PROPERTY_DEFINITION_REPRESENTATION(#526,#523);
#522=PROPERTY_DEFINITION_REPRESENTATION(#527,#524);
#523=REPRESENTATION('material name',(#525),#889);
#524=REPRESENTATION('density',(#520),#889);
#525=DESCRIPTIVE_REPRESENTATION_ITEM('PC/ABS Plastic','PC/ABS Plastic');
#526=PROPERTY_DEFINITION('material property','material name',#903);
#527=PROPERTY_DEFINITION('material property','density of part',#903);
#528=DATE_TIME_ROLE('creation_date');
#529=APPLIED_DATE_AND_TIME_ASSIGNMENT(#530,#528,(#903));
#530=DATE_AND_TIME(#531,#532);
#531=CALENDAR_DATE(2026,28,3);
#532=LOCAL_TIME(0,0,0.,#533);
#533=COORDINATED_UNIVERSAL_TIME_OFFSET(0,0,.BEHIND.);
#534=AXIS2_PLACEMENT_3D('',#738,#586,#587);
#535=AXIS2_PLACEMENT_3D('',#739,#588,#589);
#536=AXIS2_PLACEMENT_3D('',#742,#590,#591);
#537=AXIS2_PLACEMENT_3D('',#746,#593,#594);
#538=AXIS2_PLACEMENT_3D('',#748,#596,#597);
#539=AXIS2_PLACEMENT_3D('',#754,#601,#602);
#540=AXIS2_PLACEMENT_3D('',#757,#603,#604);
#541=AXIS2_PLACEMENT_3D('',#761,#606,#607);
#542=AXIS2_PLACEMENT_3D('',#763,#609,#610);
#543=AXIS2_PLACEMENT_3D('',#769,#614,#615);
#544=AXIS2_PLACEMENT_3D('',#773,#617,#618);
#545=AXIS2_PLACEMENT_3D('',#777,#620,#621);
#546=AXIS2_PLACEMENT_3D('',#779,#623,#624);
#547=AXIS2_PLACEMENT_3D('',#783,#626,#627);
#548=AXIS2_PLACEMENT_3D('',#787,#629,#630);
#549=AXIS2_PLACEMENT_3D('',#789,#632,#633);
#550=AXIS2_PLACEMENT_3D('',#804,#642,#643);
#551=AXIS2_PLACEMENT_3D('',#805,#644,#645);
#552=AXIS2_PLACEMENT_3D('',#807,#646,#647);
#553=AXIS2_PLACEMENT_3D('',#810,#649,#650);
#554=AXIS2_PLACEMENT_3D('',#811,#651,#652);
#555=AXIS2_PLACEMENT_3D('',#814,#653,#654);
#556=AXIS2_PLACEMENT_3D('',#817,#656,#657);
#557=AXIS2_PLACEMENT_3D('',#818,#658,#659);
#558=AXIS2_PLACEMENT_3D('',#819,#660,#661);
#559=AXIS2_PLACEMENT_3D('',#821,#663,#664);
#560=AXIS2_PLACEMENT_3D('',#832,#671,#672);
#561=AXIS2_PLACEMENT_3D('',#835,#674,#675);
#562=AXIS2_PLACEMENT_3D('',#836,#676,#677);
#563=AXIS2_PLACEMENT_3D('',#837,#678,#679);
#564=AXIS2_PLACEMENT_3D('',#839,#680,#681);
#565=AXIS2_PLACEMENT_3D('',#843,#683,#684);
#566=AXIS2_PLACEMENT_3D('',#845,#686,#687);
#567=AXIS2_PLACEMENT_3D('',#851,#691,#692);
#568=AXIS2_PLACEMENT_3D('',#855,#694,#695);
#569=AXIS2_PLACEMENT_3D('',#859,#697,#698);
#570=AXIS2_PLACEMENT_3D('',#862,#700,#701);
#571=AXIS2_PLACEMENT_3D('',#864,#702,#703);
#572=AXIS2_PLACEMENT_3D('',#865,#704,#705);
#573=AXIS2_PLACEMENT_3D('',#866,#706,#707);
#574=AXIS2_PLACEMENT_3D('',#868,#709,#710);
#575=AXIS2_PLACEMENT_3D('',#870,#712,#713);
#576=AXIS2_PLACEMENT_3D('',#872,#715,#716);
#577=AXIS2_PLACEMENT_3D('',#874,#718,#719);
#578=AXIS2_PLACEMENT_3D('',#876,#721,#722);
#579=AXIS2_PLACEMENT_3D('',#877,#723,#724);
#580=AXIS2_PLACEMENT_3D('',#879,#725,#726);
#581=AXIS2_PLACEMENT_3D('',#880,#727,#728);
#582=AXIS2_PLACEMENT_3D('',#881,#729,#730);
#583=AXIS2_PLACEMENT_3D('',#882,#731,#732);
#584=AXIS2_PLACEMENT_3D('',#884,#733,#734);
#585=AXIS2_PLACEMENT_3D('',#886,#736,#737);
#586=DIRECTION('axis',(0.,0.,1.));
#587=DIRECTION('refdir',(1.,0.,0.));
#588=DIRECTION('center_axis',(3.70074341541719E-16,0.,-1.));
#589=DIRECTION('ref_axis',(-0.707106781186548,0.707106781186547,-2.57561098865449E-16));
#590=DIRECTION('center_axis',(0.,0.,1.));
#591=DIRECTION('ref_axis',(-0.707106781186548,0.707106781186547,-2.57561098865449E-16));
#592=DIRECTION('',(3.70074341541719E-16,0.,-1.));
#593=DIRECTION('center_axis',(0.,0.,-1.));
#594=DIRECTION('ref_axis',(-0.707106781186548,0.707106781186547,-2.57561098865449E-16));
#595=DIRECTION('',(-3.70074341541719E-16,0.,1.));
#596=DIRECTION('center_axis',(1.,0.,3.70074341541719E-16));
#597=DIRECTION('ref_axis',(-3.70074341541719E-16,0.,1.));
#598=DIRECTION('',(0.,-1.,0.));
#599=DIRECTION('',(-3.70074341541719E-16,0.,1.));
#600=DIRECTION('',(0.,-1.,0.));
#601=DIRECTION('center_axis',(-3.70074341541719E-16,0.,1.));
#602=DIRECTION('ref_axis',(0.707106781186548,0.707106781186547,2.57561098865449E-16));
#603=DIRECTION('center_axis',(0.,0.,-1.));
#604=DIRECTION('ref_axis',(0.707106781186548,0.707106781186547,2.57561098865449E-16));
#605=DIRECTION('',(-3.70074341541719E-16,0.,1.));
#606=DIRECTION('center_axis',(0.,0.,1.));
#607=DIRECTION('ref_axis',(0.707106781186548,0.707106781186547,2.57561098865449E-16));
#608=DIRECTION('',(3.70074341541719E-16,0.,-1.));
#609=DIRECTION('center_axis',(-1.,0.,-3.70074341541719E-16));
#610=DIRECTION('ref_axis',(3.70074341541719E-16,0.,-1.));
#611=DIRECTION('',(0.,-1.,0.));
#612=DIRECTION('',(3.70074341541719E-16,0.,-1.));
#613=DIRECTION('',(0.,-1.,0.));
#614=DIRECTION('center_axis',(0.,-1.,0.));
#615=DIRECTION('ref_axis',(0.,0.,-1.));
#616=DIRECTION('',(1.,0.,0.));
#617=DIRECTION('center_axis',(0.,-1.,0.));
#618=DIRECTION('ref_axis',(0.,0.,-1.));
#619=DIRECTION('',(0.,0.,1.));
#620=DIRECTION('center_axis',(0.,-1.,0.));
#621=DIRECTION('ref_axis',(1.,0.,2.18547839493141E-16));
#622=DIRECTION('',(-1.,0.,-1.16984799313836E-16));
#623=DIRECTION('center_axis',(0.,-1.,0.));
#624=DIRECTION('ref_axis',(0.,0.,-1.));
#625=DIRECTION('',(-1.,0.,-2.33969598627671E-16));
#626=DIRECTION('center_axis',(0.,-1.,0.));
#627=DIRECTION('ref_axis',(0.,0.,1.));
#628=DIRECTION('',(0.,0.,-1.));
#629=DIRECTION('center_axis',(0.,-1.,0.));
#630=DIRECTION('ref_axis',(-1.,0.,-1.09273919746571E-16));
#631=DIRECTION('',(1.,0.,0.));
#632=DIRECTION('center_axis',(0.,0.,-1.));
#633=DIRECTION('ref_axis',(-1.,0.,0.));
#634=DIRECTION('',(-1.,0.,0.));
#635=DIRECTION('',(0.,-1.,0.));
#636=DIRECTION('',(-1.,0.,0.));
#637=DIRECTION('',(0.,-1.,0.));
#638=DIRECTION('',(-1.,0.,0.));
#639=DIRECTION('',(0.,-1.,0.));
#640=DIRECTION('',(1.,1.24884479710366E-16,0.));
#641=DIRECTION('',(0.,1.,0.));
#642=DIRECTION('center_axis',(0.,-1.,0.));
#643=DIRECTION('ref_axis',(0.,0.,-1.));
#644=DIRECTION('center_axis',(0.,1.,0.));
#645=DIRECTION('ref_axis',(1.,0.,0.));
#646=DIRECTION('center_axis',(0.,1.,0.));
#647=DIRECTION('ref_axis',(-0.707106781186547,0.,-0.707106781186548));
#648=DIRECTION('',(1.,0.,9.33965126039064E-17));
#649=DIRECTION('center_axis',(0.,1.,0.));
#650=DIRECTION('ref_axis',(0.707106781186548,0.,-0.707106781186547));
#651=DIRECTION('center_axis',(-1.24884479710366E-16,1.,0.));
#652=DIRECTION('ref_axis',(-1.,-1.24884479710366E-16,0.));
#653=DIRECTION('center_axis',(1.24884479710366E-16,-1.,0.));
#654=DIRECTION('ref_axis',(1.,0.,0.));
#655=DIRECTION('',(-1.,-1.24884479710366E-16,0.));
#656=DIRECTION('center_axis',(1.24884479710366E-16,-1.,0.));
#657=DIRECTION('ref_axis',(1.,0.,0.));
#658=DIRECTION('center_axis',(1.24884479710366E-16,-1.,0.));
#659=DIRECTION('ref_axis',(1.,0.,0.));
#660=DIRECTION('center_axis',(0.,-1.,0.));
#661=DIRECTION('ref_axis',(1.,0.,0.));
#662=DIRECTION('',(1.,0.,0.));
#663=DIRECTION('center_axis',(0.,0.,1.));
#664=DIRECTION('ref_axis',(1.,0.,0.));
#665=DIRECTION('',(0.,-1.,0.));
#666=DIRECTION('',(0.,1.,0.));
#667=DIRECTION('',(1.,0.,2.33969598627671E-16));
#668=DIRECTION('',(0.,-1.,0.));
#669=DIRECTION('',(0.,-1.,0.));
#670=DIRECTION('',(1.,0.,1.16984799313836E-16));
#671=DIRECTION('center_axis',(0.,1.,0.));
#672=DIRECTION('ref_axis',(1.,0.,0.));
#673=DIRECTION('',(0.,1.,0.));
#674=DIRECTION('center_axis',(0.,1.,0.));
#675=DIRECTION('ref_axis',(1.,0.,0.));
#676=DIRECTION('center_axis',(0.,1.,0.));
#677=DIRECTION('ref_axis',(1.,0.,0.));
#678=DIRECTION('center_axis',(0.,-1.,0.));
#679=DIRECTION('ref_axis',(0.707106781186547,0.,0.707106781186548));
#680=DIRECTION('center_axis',(0.,1.,0.));
#681=DIRECTION('ref_axis',(0.707106781186547,0.,0.707106781186548));
#682=DIRECTION('',(0.,1.,0.));
#683=DIRECTION('center_axis',(0.,-1.,0.));
#684=DIRECTION('ref_axis',(0.707106781186547,0.,0.707106781186548));
#685=DIRECTION('',(0.,-1.,0.));
#686=DIRECTION('center_axis',(0.,0.,1.));
#687=DIRECTION('ref_axis',(-1.,0.,0.));
#688=DIRECTION('',(-1.,0.,0.));
#689=DIRECTION('',(0.,1.,0.));
#690=DIRECTION('',(-1.,0.,0.));
#691=DIRECTION('center_axis',(0.,-1.,0.));
#692=DIRECTION('ref_axis',(0.,0.,-1.));
#693=DIRECTION('',(-1.86793025207813E-16,0.,1.));
#694=DIRECTION('center_axis',(0.,-1.,0.));
#695=DIRECTION('ref_axis',(0.707106781186548,0.,-0.707106781186547));
#696=DIRECTION('',(1.,0.,9.33965126039064E-17));
#697=DIRECTION('center_axis',(0.,-1.,0.));
#698=DIRECTION('ref_axis',(-0.707106781186547,0.,-0.707106781186548));
#699=DIRECTION('',(0.,0.,-1.));
#700=DIRECTION('center_axis',(0.,-1.,0.));
#701=DIRECTION('ref_axis',(-0.707106781186547,0.,0.707106781186547));
#702=DIRECTION('center_axis',(0.,1.,0.));
#703=DIRECTION('ref_axis',(-1.,0.,0.));
#704=DIRECTION('center_axis',(0.,-1.,0.));
#705=DIRECTION('ref_axis',(-0.707106781186547,0.,0.707106781186547));
#706=DIRECTION('center_axis',(0.,1.,0.));
#707=DIRECTION('ref_axis',(-0.707106781186547,0.,0.707106781186547));
#708=DIRECTION('',(0.,-1.,0.));
#709=DIRECTION('center_axis',(-1.,0.,0.));
#710=DIRECTION('ref_axis',(0.,0.,-1.));
#711=DIRECTION('',(0.,1.,0.));
#712=DIRECTION('center_axis',(0.,-1.,0.));
#713=DIRECTION('ref_axis',(-0.707106781186547,0.,-0.707106781186548));
#714=DIRECTION('',(0.,-1.,0.));
#715=DIRECTION('center_axis',(9.33965126039064E-17,0.,-1.));
#716=DIRECTION('ref_axis',(1.,0.,9.33965126039064E-17));
#717=DIRECTION('',(0.,1.,0.));
#718=DIRECTION('center_axis',(0.,-1.,0.));
#719=DIRECTION('ref_axis',(0.707106781186548,0.,-0.707106781186547));
#720=DIRECTION('',(0.,-1.,0.));
#721=DIRECTION('center_axis',(1.,0.,1.86793025207813E-16));
#722=DIRECTION('ref_axis',(-1.86793025207813E-16,0.,1.));
#723=DIRECTION('center_axis',(6.12323399573677E-17,0.,1.));
#724=DIRECTION('ref_axis',(1.,0.,0.));
#725=DIRECTION('center_axis',(0.,-1.,0.));
#726=DIRECTION('ref_axis',(0.,0.,-1.));
#727=DIRECTION('center_axis',(0.,-1.,0.));
#728=DIRECTION('ref_axis',(0.,0.,-1.));
#729=DIRECTION('center_axis',(0.,-1.,0.));
#730=DIRECTION('ref_axis',(0.,0.,-1.));
#731=DIRECTION('center_axis',(0.,1.,0.));
#732=DIRECTION('ref_axis',(-1.,0.,0.));
#733=DIRECTION('center_axis',(0.,1.,0.));
#734=DIRECTION('ref_axis',(-1.,0.,0.));
#735=DIRECTION('',(0.,-1.,0.));
#736=DIRECTION('center_axis',(0.,1.,0.));
#737=DIRECTION('ref_axis',(0.,0.,1.));
#738=CARTESIAN_POINT('',(0.,0.,0.));
#739=CARTESIAN_POINT('Origin',(-0.109015748031496,-0.0890551181102362,-0.0295275590551181));
#740=CARTESIAN_POINT('',(-0.109015748031496,-0.0590551181102362,0.0590551181102362));
#741=CARTESIAN_POINT('',(-0.139015748031496,-0.0890551181102362,0.0590551181102362));
#742=CARTESIAN_POINT('Origin',(-0.109015748031496,-0.0890551181102362,0.0590551181102362));
#743=CARTESIAN_POINT('',(-0.139015748031496,-0.0890551181102362,-0.0590551181102362));
#744=CARTESIAN_POINT('',(-0.139015748031496,-0.0890551181102362,-0.0295275590551181));
#745=CARTESIAN_POINT('',(-0.109015748031496,-0.0590551181102362,-0.0590551181102362));
#746=CARTESIAN_POINT('Origin',(-0.109015748031496,-0.0890551181102362,-0.0590551181102363));
#747=CARTESIAN_POINT('',(-0.109015748031496,-0.0590551181102362,-0.0295275590551181));
#748=CARTESIAN_POINT('Origin',(-0.139015748031496,-0.0393700787401575,-0.0590551181102362));
#749=CARTESIAN_POINT('',(-0.139015748031496,-0.15748031496063,0.0590551181102362));
#750=CARTESIAN_POINT('',(-0.139015748031496,-0.0393700787401575,0.0590551181102362));
#751=CARTESIAN_POINT('',(-0.139015748031496,-0.15748031496063,-0.0590551181102362));
#752=CARTESIAN_POINT('',(-0.139015748031496,-0.15748031496063,-0.0590551181102362));
#753=CARTESIAN_POINT('',(-0.139015748031496,-0.0393700787401575,-0.0590551181102362));
#754=CARTESIAN_POINT('Origin',(0.109015748031496,-0.0890551181102362,0.0295275590551182));
#755=CARTESIAN_POINT('',(0.109015748031496,-0.0590551181102362,-0.0590551181102362));
#756=CARTESIAN_POINT('',(0.139015748031496,-0.0890551181102362,-0.0590551181102362));
#757=CARTESIAN_POINT('Origin',(0.109015748031496,-0.0890551181102362,-0.0590551181102362));
#758=CARTESIAN_POINT('',(0.139015748031496,-0.0890551181102362,0.0590551181102362));
#759=CARTESIAN_POINT('',(0.139015748031496,-0.0890551181102362,0.0295275590551182));
#760=CARTESIAN_POINT('',(0.109015748031496,-0.0590551181102362,0.0590551181102362));
#761=CARTESIAN_POINT('Origin',(0.109015748031496,-0.0890551181102362,0.0590551181102363));
#762=CARTESIAN_POINT('',(0.109015748031496,-0.0590551181102362,0.0295275590551182));
#763=CARTESIAN_POINT('Origin',(0.139015748031496,-0.0393700787401575,0.0590551181102362));
#764=CARTESIAN_POINT('',(0.139015748031496,-0.15748031496063,-0.0590551181102362));
#765=CARTESIAN_POINT('',(0.139015748031496,-0.0393700787401575,-0.0590551181102362));
#766=CARTESIAN_POINT('',(0.139015748031496,-0.15748031496063,0.0590551181102362));
#767=CARTESIAN_POINT('',(0.139015748031496,-0.15748031496063,0.0590551181102362));
#768=CARTESIAN_POINT('',(0.139015748031496,-0.0393700787401575,0.0590551181102362));
#769=CARTESIAN_POINT('Origin',(0.186507874015748,-0.15748031496063,5.46369598732853E-18));
#770=CARTESIAN_POINT('',(0.232424396323844,-0.15748031496063,-0.0590551181102362));
#771=CARTESIAN_POINT('',(0.139015748031496,-0.15748031496063,-0.0590551181102362));
#772=CARTESIAN_POINT('',(0.234,-0.15748031496063,-0.0339999999999999));
#773=CARTESIAN_POINT('Origin',(0.034,-0.15748031496063,-0.034));
#774=CARTESIAN_POINT('',(0.234,-0.15748031496063,0.034));
#775=CARTESIAN_POINT('',(0.234,-0.15748031496063,-0.0339999999999999));
#776=CARTESIAN_POINT('',(0.232424396323845,-0.15748031496063,0.0590551181102362));
#777=CARTESIAN_POINT('Origin',(0.034,-0.15748031496063,0.034));
#778=CARTESIAN_POINT('',(0.232424396323845,-0.15748031496063,0.0590551181102362));
#779=CARTESIAN_POINT('Origin',(-0.186507874015748,-0.15748031496063,5.46369598732853E-18));
#780=CARTESIAN_POINT('',(-0.232424396323844,-0.15748031496063,0.0590551181102362));
#781=CARTESIAN_POINT('',(-0.139015748031496,-0.15748031496063,0.0590551181102362));
#782=CARTESIAN_POINT('',(-0.234,-0.15748031496063,0.034));
#783=CARTESIAN_POINT('Origin',(-0.0339999999999999,-0.15748031496063,0.034));
#784=CARTESIAN_POINT('',(-0.234,-0.15748031496063,-0.034));
#785=CARTESIAN_POINT('',(-0.234,-0.15748031496063,0.034));
#786=CARTESIAN_POINT('',(-0.232424396323844,-0.15748031496063,-0.0590551181102362));
#787=CARTESIAN_POINT('Origin',(-0.0339999999999999,-0.15748031496063,-0.034));
#788=CARTESIAN_POINT('',(-0.232424396323844,-0.15748031496063,-0.0590551181102362));
#789=CARTESIAN_POINT('Origin',(0.,-0.0393700787401575,-0.0590551181102362));
#790=CARTESIAN_POINT('',(0.232424396323844,-0.0393700787401575,-0.0590551181102362));
#791=CARTESIAN_POINT('',(0.164734613924901,-0.0393700787401575,-0.0590551181102362));
#792=CARTESIAN_POINT('',(2.18547839493141E-17,-0.0393700787401575,-0.0590551181102362));
#793=CARTESIAN_POINT('',(0.232424396323844,-0.0393700787401575,-0.0590551181102362));
#794=CARTESIAN_POINT('',(-0.14090451166203,-0.0590551181102362,-0.0590551181102362));
#795=CARTESIAN_POINT('',(-0.232424396323844,-0.0393700787401575,-0.0590551181102362));
#796=CARTESIAN_POINT('',(-0.232424396323844,-0.0393700787401575,-0.0590551181102362));
#797=CARTESIAN_POINT('',(-0.164734613924901,-0.0393700787401575,-0.0590551181102362));
#798=CARTESIAN_POINT('',(2.18547839493141E-17,-0.0393700787401575,-0.0590551181102362));
#799=CARTESIAN_POINT('',(-0.164734613924901,-0.0196850393700788,-0.0590551181102362));
#800=CARTESIAN_POINT('',(-0.164734613924901,-0.0393700787401575,-0.0590551181102362));
#801=CARTESIAN_POINT('',(0.164734613924901,-0.0196850393700787,-0.0590551181102362));
#802=CARTESIAN_POINT('',(0.175,-0.0196850393700787,-0.0590551181102362));
#803=CARTESIAN_POINT('',(0.164734613924901,-0.0393700787401575,-0.0590551181102362));
#804=CARTESIAN_POINT('Origin',(4.37095678986282E-17,-0.0393700787401575,
0.));
#805=CARTESIAN_POINT('Origin',(0.,-0.0393700787401575,0.));
#806=CARTESIAN_POINT('',(-0.0339999999999999,-0.0393700787401575,-0.234));
#807=CARTESIAN_POINT('Origin',(-0.0339999999999999,-0.0393700787401575,
-0.034));
#808=CARTESIAN_POINT('',(0.034,-0.0393700787401575,-0.234));
#809=CARTESIAN_POINT('',(-0.234,-0.0393700787401575,-0.234));
#810=CARTESIAN_POINT('Origin',(0.034,-0.0393700787401575,-0.034));
#811=CARTESIAN_POINT('Origin',(0.175,-0.0196850393700787,0.));
#812=CARTESIAN_POINT('',(-0.164734613924901,-0.0196850393700788,0.0590551181102362));
#813=CARTESIAN_POINT('',(-0.175,-0.0196850393700788,2.14313189850787E-17));
#814=CARTESIAN_POINT('Origin',(0.,-0.0196850393700787,0.));
#815=CARTESIAN_POINT('',(0.164734613924901,-0.0196850393700787,0.0590551181102362));
#816=CARTESIAN_POINT('',(0.175,-0.0196850393700787,0.0590551181102362));
#817=CARTESIAN_POINT('Origin',(0.,-0.0196850393700787,0.));
#818=CARTESIAN_POINT('Origin',(0.,-0.0196850393700787,0.));
#819=CARTESIAN_POINT('Origin',(-0.14090451166203,-0.0590551181102362,0.));
#820=CARTESIAN_POINT('',(-0.14090451166203,-0.0590551181102362,0.0590551181102362));
#821=CARTESIAN_POINT('Origin',(0.,-0.0393700787401575,0.0590551181102362));
#822=CARTESIAN_POINT('',(0.164734613924901,-0.0393700787401575,0.0590551181102362));
#823=CARTESIAN_POINT('',(0.164734613924901,-0.0393700787401575,0.0590551181102362));
#824=CARTESIAN_POINT('',(-0.164734613924901,-0.0393700787401575,0.0590551181102362));
#825=CARTESIAN_POINT('',(-0.164734613924901,-0.0393700787401575,0.0590551181102362));
#826=CARTESIAN_POINT('',(-0.232424396323844,-0.0393700787401575,0.0590551181102362));
#827=CARTESIAN_POINT('',(-0.0695078740157479,-0.0393700787401575,0.0590551181102362));
#828=CARTESIAN_POINT('',(-0.232424396323844,-0.0393700787401575,0.0590551181102362));
#829=CARTESIAN_POINT('',(0.232424396323845,-0.0393700787401575,0.0590551181102362));
#830=CARTESIAN_POINT('',(0.232424396323845,-0.0393700787401575,0.0590551181102362));
#831=CARTESIAN_POINT('',(0.116212198161922,-0.0393700787401575,0.0590551181102362));
#832=CARTESIAN_POINT('Origin',(0.,-0.0393700787401575,0.));
#833=CARTESIAN_POINT('',(-0.175,0.0511811023622047,2.14313189850787E-17));
#834=CARTESIAN_POINT('',(-0.175,-0.0393700787401575,2.14313189850787E-17));
#835=CARTESIAN_POINT('Origin',(0.,0.0511811023622047,0.));
#836=CARTESIAN_POINT('Origin',(0.,-0.0393700787401575,0.));
#837=CARTESIAN_POINT('Origin',(0.034,0.,0.034));
#838=CARTESIAN_POINT('',(0.034,-0.0393700787401575,0.234));
#839=CARTESIAN_POINT('Origin',(0.034,-0.0393700787401575,0.034));
#840=CARTESIAN_POINT('',(0.234,0.,0.034));
#841=CARTESIAN_POINT('',(0.234,0.,0.034));
#842=CARTESIAN_POINT('',(0.034,0.,0.234));
#843=CARTESIAN_POINT('Origin',(0.034,0.,0.034));
#844=CARTESIAN_POINT('',(0.034,0.,0.234));
#845=CARTESIAN_POINT('Origin',(0.234,0.,0.234));
#846=CARTESIAN_POINT('',(-0.0339999999999999,0.,0.234));
#847=CARTESIAN_POINT('',(0.234,0.,0.234));
#848=CARTESIAN_POINT('',(-0.0339999999999999,-0.0393700787401575,0.234));
#849=CARTESIAN_POINT('',(-0.0339999999999999,0.,0.234));
#850=CARTESIAN_POINT('',(0.234,-0.0393700787401575,0.234));
#851=CARTESIAN_POINT('Origin',(4.37095678986282E-17,0.,2.18547839493141E-17));
#852=CARTESIAN_POINT('',(0.234,0.,-0.0339999999999999));
#853=CARTESIAN_POINT('',(0.234,0.,-0.234));
#854=CARTESIAN_POINT('',(0.034,0.,-0.234));
#855=CARTESIAN_POINT('Origin',(0.034,0.,-0.034));
#856=CARTESIAN_POINT('',(-0.0339999999999999,0.,-0.234));
#857=CARTESIAN_POINT('',(-0.234,0.,-0.234));
#858=CARTESIAN_POINT('',(-0.234,0.,-0.034));
#859=CARTESIAN_POINT('Origin',(-0.0339999999999999,0.,-0.034));
#860=CARTESIAN_POINT('',(-0.234,0.,0.034));
#861=CARTESIAN_POINT('',(-0.234,0.,0.234));
#862=CARTESIAN_POINT('Origin',(-0.0339999999999999,0.,0.034));
#863=CARTESIAN_POINT('',(0.2,0.,-2.44929359829471E-17));
#864=CARTESIAN_POINT('Origin',(0.,0.,0.));
#865=CARTESIAN_POINT('Origin',(-0.0339999999999999,0.,0.034));
#866=CARTESIAN_POINT('Origin',(-0.0339999999999999,-0.0393700787401575,
0.034));
#867=CARTESIAN_POINT('',(-0.234,0.,0.034));
#868=CARTESIAN_POINT('Origin',(-0.234,0.,0.234));
#869=CARTESIAN_POINT('',(-0.234,0.,-0.034));
#870=CARTESIAN_POINT('Origin',(-0.0339999999999999,0.,-0.034));
#871=CARTESIAN_POINT('',(-0.0339999999999999,0.,-0.234));
#872=CARTESIAN_POINT('Origin',(-0.234,0.,-0.234));
#873=CARTESIAN_POINT('',(0.034,0.,-0.234));
#874=CARTESIAN_POINT('Origin',(0.034,0.,-0.034));
#875=CARTESIAN_POINT('',(0.234,0.,-0.0339999999999999));
#876=CARTESIAN_POINT('Origin',(0.234,0.,-0.234));
#877=CARTESIAN_POINT('Origin',(-4.2979840495857E-17,0.800339259350393,0.));
#878=CARTESIAN_POINT('',(-0.16875,0.0984251968503937,0.));
#879=CARTESIAN_POINT('Origin',(-4.2979840495857E-17,0.0984251968503937,
0.));
#880=CARTESIAN_POINT('Origin',(0.,0.0511811023622047,0.));
#881=CARTESIAN_POINT('Origin',(4.37095678986282E-17,-0.0393700787401575,
0.));
#882=CARTESIAN_POINT('Origin',(0.,0.,0.));
#883=CARTESIAN_POINT('',(0.2,0.0984251968503937,-2.44929359829471E-17));
#884=CARTESIAN_POINT('Origin',(0.,0.0984251968503937,0.));
#885=CARTESIAN_POINT('',(0.2,0.,-2.44929359829471E-17));
#886=CARTESIAN_POINT('Origin',(0.,0.0984251968503937,0.));
#887=UNCERTAINTY_MEASURE_WITH_UNIT(LENGTH_MEASURE(0.000393700787401575),
#893,'DISTANCE_ACCURACY_VALUE',
'Maximum model space distance between geometric entities at asserted c
onnectivities');
#888=UNCERTAINTY_MEASURE_WITH_UNIT(LENGTH_MEASURE(0.000393700787401575),
#893,'DISTANCE_ACCURACY_VALUE',
'Maximum model space distance between geometric entities at asserted c
onnectivities');
#889=(
GEOMETRIC_REPRESENTATION_CONTEXT(3)
GLOBAL_UNCERTAINTY_ASSIGNED_CONTEXT((#887))
GLOBAL_UNIT_ASSIGNED_CONTEXT((#893,#897,#898))
REPRESENTATION_CONTEXT('','3D')
);
#890=(
GEOMETRIC_REPRESENTATION_CONTEXT(3)
GLOBAL_UNCERTAINTY_ASSIGNED_CONTEXT((#888))
GLOBAL_UNIT_ASSIGNED_CONTEXT((#893,#897,#898))
REPRESENTATION_CONTEXT('','3D')
);
#891=DIMENSIONAL_EXPONENTS(1.,0.,0.,0.,0.,0.,0.);
#892=DIMENSIONAL_EXPONENTS(0.,1.,0.,0.,0.,0.,0.);
#893=(
CONVERSION_BASED_UNIT('inch',#896)
LENGTH_UNIT()
NAMED_UNIT(#891)
);
#894=(
LENGTH_UNIT()
NAMED_UNIT(*)
SI_UNIT(.MILLI.,.METRE.)
);
#895=(
LENGTH_UNIT()
NAMED_UNIT(*)
SI_UNIT(.CENTI.,.METRE.)
);
#896=LENGTH_MEASURE_WITH_UNIT(LENGTH_MEASURE(25.4),#894);
#897=(
NAMED_UNIT(*)
PLANE_ANGLE_UNIT()
SI_UNIT($,.RADIAN.)
);
#898=(
NAMED_UNIT(*)
SI_UNIT($,.STERADIAN.)
SOLID_ANGLE_UNIT()
);
#899=SHAPE_DEFINITION_REPRESENTATION(#900,#901);
#900=PRODUCT_DEFINITION_SHAPE('',$,#903);
#901=SHAPE_REPRESENTATION('',(#534),#889);
#902=PRODUCT_DEFINITION_CONTEXT('part definition',#907,'design');
#903=PRODUCT_DEFINITION('Round Button','Round Button',#904,#902);
#904=PRODUCT_DEFINITION_FORMATION('',$,#909);
#905=PRODUCT_RELATED_PRODUCT_CATEGORY('Round Button','Round Button',(#909));
#906=APPLICATION_PROTOCOL_DEFINITION('international standard',
'automotive_design',2009,#907);
#907=APPLICATION_CONTEXT(
'Core Data for Automotive Mechanical Design Process');
#908=PRODUCT_CONTEXT('part definition',#907,'mechanical');
#909=PRODUCT('Round Button','Round Button',$,(#908));
#910=PRESENTATION_STYLE_ASSIGNMENT((#911));
#911=SURFACE_STYLE_USAGE(.BOTH.,#914);
#912=SURFACE_STYLE_RENDERING_WITH_PROPERTIES($,#918,(#913));
#913=SURFACE_STYLE_TRANSPARENT(0.);
#914=SURFACE_SIDE_STYLE('',(#915,#912));
#915=SURFACE_STYLE_FILL_AREA(#916);
#916=FILL_AREA_STYLE('',(#917));
#917=FILL_AREA_STYLE_COLOUR('',#918);
#918=COLOUR_RGB('',0.0196078431372549,0.0196078431372549,0.0196078431372549);
ENDSEC;
END-ISO-10303-21;
