ISO-10303-21;
HEADER;
/* Generated by software containing ST-Developer
 * from STEP Tools, Inc. (www.steptools.com) 
 */

FILE_DESCRIPTION(
/* description */ (''),
/* implementation_level */ '2;1');

FILE_NAME(
/* name */ 'Development Button Square.stp',
/* time_stamp */ '2026-04-05T12:58:23-04:00',
/* author */ ('rgoff'),
/* organization */ (''),
/* preprocessor_version */ 'ST-DEVELOPER v20',
/* originating_system */ 'Autodesk Inventor 2024',
/* authorisation */ '');

FILE_SCHEMA (('AUTOMOTIVE_DESIGN { 1 0 10303 214 3 1 1 }'));
ENDSEC;

DATA;
#10=MECHANICAL_DESIGN_GEOMETRIC_PRESENTATION_REPRESENTATION('',(#15,#16),
#1193);
#11=SHAPE_REPRESENTATION_RELATIONSHIP('SRR','None',#1204,#12);
#12=ADVANCED_BREP_SHAPE_REPRESENTATION('',(#13),#1192);
#13=MANIFOLD_SOLID_BREP('Solid1',#696);
#14=SPHERICAL_SURFACE('',#765,0.721914062499999);
#15=STYLED_ITEM('',(#1213),#682);
#16=STYLED_ITEM('',(#1213),#13);
#17=FACE_BOUND('',#77,.T.);
#18=FACE_BOUND('',#111,.T.);
#19=PLANE('',#721);
#20=PLANE('',#729);
#21=PLANE('',#732);
#22=PLANE('',#735);
#23=PLANE('',#742);
#24=PLANE('',#746);
#25=PLANE('',#747);
#26=PLANE('',#748);
#27=PLANE('',#749);
#28=PLANE('',#754);
#29=PLANE('',#757);
#30=PLANE('',#761);
#31=PLANE('',#767);
#32=PLANE('',#768);
#33=PLANE('',#769);
#34=PLANE('',#770);
#35=PLANE('',#771);
#36=PLANE('',#774);
#37=PLANE('',#777);
#38=PLANE('',#780);
#39=PLANE('',#783);
#40=FACE_OUTER_BOUND('',#75,.T.);
#41=FACE_OUTER_BOUND('',#76,.T.);
#42=FACE_OUTER_BOUND('',#78,.T.);
#43=FACE_OUTER_BOUND('',#79,.T.);
#44=FACE_OUTER_BOUND('',#80,.T.);
#45=FACE_OUTER_BOUND('',#81,.T.);
#46=FACE_OUTER_BOUND('',#82,.T.);
#47=FACE_OUTER_BOUND('',#83,.T.);
#48=FACE_OUTER_BOUND('',#84,.T.);
#49=FACE_OUTER_BOUND('',#85,.T.);
#50=FACE_OUTER_BOUND('',#86,.T.);
#51=FACE_OUTER_BOUND('',#87,.T.);
#52=FACE_OUTER_BOUND('',#88,.T.);
#53=FACE_OUTER_BOUND('',#89,.T.);
#54=FACE_OUTER_BOUND('',#90,.T.);
#55=FACE_OUTER_BOUND('',#91,.T.);
#56=FACE_OUTER_BOUND('',#92,.T.);
#57=FACE_OUTER_BOUND('',#93,.T.);
#58=FACE_OUTER_BOUND('',#94,.T.);
#59=FACE_OUTER_BOUND('',#95,.T.);
#60=FACE_OUTER_BOUND('',#96,.T.);
#61=FACE_OUTER_BOUND('',#97,.T.);
#62=FACE_OUTER_BOUND('',#98,.T.);
#63=FACE_OUTER_BOUND('',#99,.T.);
#64=FACE_OUTER_BOUND('',#100,.T.);
#65=FACE_OUTER_BOUND('',#101,.T.);
#66=FACE_OUTER_BOUND('',#102,.T.);
#67=FACE_OUTER_BOUND('',#103,.T.);
#68=FACE_OUTER_BOUND('',#104,.T.);
#69=FACE_OUTER_BOUND('',#105,.T.);
#70=FACE_OUTER_BOUND('',#106,.T.);
#71=FACE_OUTER_BOUND('',#107,.T.);
#72=FACE_OUTER_BOUND('',#108,.T.);
#73=FACE_OUTER_BOUND('',#109,.T.);
#74=FACE_OUTER_BOUND('',#110,.T.);
#75=EDGE_LOOP('',(#448,#449,#450,#451));
#76=EDGE_LOOP('',(#452,#453,#454,#455,#456,#457,#458,#459));
#77=EDGE_LOOP('',(#460,#461,#462,#463,#464,#465,#466,#467));
#78=EDGE_LOOP('',(#468,#469,#470,#471));
#79=EDGE_LOOP('',(#472,#473,#474,#475));
#80=EDGE_LOOP('',(#476,#477,#478,#479,#480,#481,#482,#483));
#81=EDGE_LOOP('',(#484,#485,#486,#487));
#82=EDGE_LOOP('',(#488,#489,#490,#491));
#83=EDGE_LOOP('',(#492,#493,#494,#495));
#84=EDGE_LOOP('',(#496,#497,#498,#499));
#85=EDGE_LOOP('',(#500,#501,#502,#503));
#86=EDGE_LOOP('',(#504,#505,#506,#507));
#87=EDGE_LOOP('',(#508,#509,#510,#511));
#88=EDGE_LOOP('',(#512,#513,#514,#515));
#89=EDGE_LOOP('',(#516,#517,#518,#519));
#90=EDGE_LOOP('',(#520,#521,#522,#523,#524,#525,#526,#527,#528,#529,#530,
#531,#532,#533,#534,#535));
#91=EDGE_LOOP('',(#536,#537,#538,#539));
#92=EDGE_LOOP('',(#540,#541,#542,#543));
#93=EDGE_LOOP('',(#544,#545,#546,#547));
#94=EDGE_LOOP('',(#548,#549,#550,#551,#552));
#95=EDGE_LOOP('',(#553,#554,#555,#556,#557,#558,#559,#560,#561,#562,#563,
#564,#565,#566,#567,#568));
#96=EDGE_LOOP('',(#569,#570,#571,#572,#573,#574,#575,#576,#577,#578,#579,
#580));
#97=EDGE_LOOP('',(#581));
#98=EDGE_LOOP('',(#582));
#99=EDGE_LOOP('',(#583,#584,#585,#586,#587,#588,#589,#590));
#100=EDGE_LOOP('',(#591,#592,#593,#594,#595,#596,#597,#598));
#101=EDGE_LOOP('',(#599,#600,#601,#602,#603,#604,#605,#606));
#102=EDGE_LOOP('',(#607,#608,#609,#610));
#103=EDGE_LOOP('',(#611,#612,#613,#614));
#104=EDGE_LOOP('',(#615,#616,#617,#618));
#105=EDGE_LOOP('',(#619,#620,#621,#622));
#106=EDGE_LOOP('',(#623,#624,#625,#626));
#107=EDGE_LOOP('',(#627,#628,#629,#630));
#108=EDGE_LOOP('',(#631,#632,#633,#634));
#109=EDGE_LOOP('',(#635,#636,#637,#638));
#110=EDGE_LOOP('',(#639,#640,#641,#642,#643,#644,#645,#646));
#111=EDGE_LOOP('',(#647));
#112=LINE('',#993,#181);
#113=LINE('',#996,#182);
#114=LINE('',#999,#183);
#115=LINE('',#1003,#184);
#116=LINE('',#1007,#185);
#117=LINE('',#1010,#186);
#118=LINE('',#1013,#187);
#119=LINE('',#1017,#188);
#120=LINE('',#1021,#189);
#121=LINE('',#1025,#190);
#122=LINE('',#1029,#191);
#123=LINE('',#1030,#192);
#124=LINE('',#1035,#193);
#125=LINE('',#1036,#194);
#126=LINE('',#1039,#195);
#127=LINE('',#1043,#196);
#128=LINE('',#1045,#197);
#129=LINE('',#1049,#198);
#130=LINE('',#1050,#199);
#131=LINE('',#1052,#200);
#132=LINE('',#1054,#201);
#133=LINE('',#1058,#202);
#134=LINE('',#1064,#203);
#135=LINE('',#1067,#204);
#136=LINE('',#1070,#205);
#137=LINE('',#1072,#206);
#138=LINE('',#1073,#207);
#139=LINE('',#1079,#208);
#140=LINE('',#1082,#209);
#141=LINE('',#1085,#210);
#142=LINE('',#1087,#211);
#143=LINE('',#1088,#212);
#144=LINE('',#1091,#213);
#145=LINE('',#1093,#214);
#146=LINE('',#1094,#215);
#147=LINE('',#1097,#216);
#148=LINE('',#1099,#217);
#149=LINE('',#1100,#218);
#150=LINE('',#1102,#219);
#151=LINE('',#1106,#220);
#152=LINE('',#1108,#221);
#153=LINE('',#1110,#222);
#154=LINE('',#1112,#223);
#155=LINE('',#1113,#224);
#156=LINE('',#1116,#225);
#157=LINE('',#1120,#226);
#158=LINE('',#1121,#227);
#159=LINE('',#1129,#228);
#160=LINE('',#1134,#229);
#161=LINE('',#1136,#230);
#162=LINE('',#1138,#231);
#163=LINE('',#1139,#232);
#164=LINE('',#1141,#233);
#165=LINE('',#1142,#234);
#166=LINE('',#1145,#235);
#167=LINE('',#1153,#236);
#168=LINE('',#1155,#237);
#169=LINE('',#1159,#238);
#170=LINE('',#1161,#239);
#171=LINE('',#1162,#240);
#172=LINE('',#1166,#241);
#173=LINE('',#1169,#242);
#174=LINE('',#1170,#243);
#175=LINE('',#1174,#244);
#176=LINE('',#1177,#245);
#177=LINE('',#1178,#246);
#178=LINE('',#1182,#247);
#179=LINE('',#1185,#248);
#180=LINE('',#1186,#249);
#181=VECTOR('',#790,0.393700787401575);
#182=VECTOR('',#793,0.393700787401575);
#183=VECTOR('',#796,0.393700787401575);
#184=VECTOR('',#799,0.393700787401575);
#185=VECTOR('',#802,0.393700787401575);
#186=VECTOR('',#805,0.393700787401575);
#187=VECTOR('',#806,0.393700787401575);
#188=VECTOR('',#809,0.393700787401575);
#189=VECTOR('',#812,0.393700787401575);
#190=VECTOR('',#815,0.393700787401575);
#191=VECTOR('',#820,0.393700787401575);
#192=VECTOR('',#821,0.393700787401575);
#193=VECTOR('',#826,0.393700787401575);
#194=VECTOR('',#827,0.393700787401575);
#195=VECTOR('',#830,0.393700787401575);
#196=VECTOR('',#833,0.393700787401575);
#197=VECTOR('',#834,0.393700787401575);
#198=VECTOR('',#837,0.393700787401575);
#199=VECTOR('',#838,0.393700787401575);
#200=VECTOR('',#841,0.393700787401575);
#201=VECTOR('',#844,0.393700787401575);
#202=VECTOR('',#849,0.393700787401575);
#203=VECTOR('',#854,0.03);
#204=VECTOR('',#857,0.03);
#205=VECTOR('',#860,0.393700787401575);
#206=VECTOR('',#861,0.393700787401575);
#207=VECTOR('',#862,0.393700787401575);
#208=VECTOR('',#867,0.03);
#209=VECTOR('',#870,0.03);
#210=VECTOR('',#873,0.393700787401575);
#211=VECTOR('',#874,0.393700787401575);
#212=VECTOR('',#875,0.393700787401575);
#213=VECTOR('',#878,0.393700787401575);
#214=VECTOR('',#879,0.393700787401575);
#215=VECTOR('',#880,0.393700787401575);
#216=VECTOR('',#883,0.393700787401575);
#217=VECTOR('',#884,0.393700787401575);
#218=VECTOR('',#885,0.393700787401575);
#219=VECTOR('',#888,0.393700787401575);
#220=VECTOR('',#891,0.393700787401575);
#221=VECTOR('',#894,0.393700787401575);
#222=VECTOR('',#895,0.393700787401575);
#223=VECTOR('',#896,0.393700787401575);
#224=VECTOR('',#897,0.393700787401575);
#225=VECTOR('',#900,0.393700787401575);
#226=VECTOR('',#905,0.393700787401575);
#227=VECTOR('',#906,0.393700787401575);
#228=VECTOR('',#915,0.393700787401575);
#229=VECTOR('',#922,0.393700787401575);
#230=VECTOR('',#923,0.393700787401575);
#231=VECTOR('',#924,0.393700787401575);
#232=VECTOR('',#925,0.393700787401575);
#233=VECTOR('',#926,0.393700787401575);
#234=VECTOR('',#927,0.393700787401575);
#235=VECTOR('',#930,0.175);
#236=VECTOR('',#943,0.393700787401575);
#237=VECTOR('',#946,0.393700787401575);
#238=VECTOR('',#951,0.393700787401575);
#239=VECTOR('',#952,0.393700787401575);
#240=VECTOR('',#953,0.393700787401575);
#241=VECTOR('',#958,0.393700787401575);
#242=VECTOR('',#961,0.393700787401575);
#243=VECTOR('',#962,0.393700787401575);
#244=VECTOR('',#967,0.393700787401575);
#245=VECTOR('',#970,0.393700787401575);
#246=VECTOR('',#971,0.393700787401575);
#247=VECTOR('',#976,0.393700787401575);
#248=VECTOR('',#979,0.393700787401575);
#249=VECTOR('',#980,0.393700787401575);
#250=CIRCLE('',#719,0.0625);
#251=CIRCLE('',#720,0.0625);
#252=CIRCLE('',#722,0.0625);
#253=CIRCLE('',#723,0.0625);
#254=CIRCLE('',#724,0.0625);
#255=CIRCLE('',#725,0.0624999999999999);
#256=CIRCLE('',#726,0.0625);
#257=CIRCLE('',#727,0.0625);
#258=CIRCLE('',#728,0.0624999999999999);
#259=CIRCLE('',#731,0.0625);
#260=CIRCLE('',#733,0.0625);
#261=CIRCLE('',#734,0.175);
#262=CIRCLE('',#738,0.0625);
#263=CIRCLE('',#740,0.03);
#264=CIRCLE('',#741,0.03);
#265=CIRCLE('',#744,0.03);
#266=CIRCLE('',#745,0.03);
#267=CIRCLE('',#750,0.06);
#268=CIRCLE('',#751,0.06);
#269=CIRCLE('',#753,0.06);
#270=CIRCLE('',#756,0.06);
#271=CIRCLE('',#758,0.175);
#272=CIRCLE('',#759,0.175);
#273=CIRCLE('',#760,0.175);
#274=CIRCLE('',#763,0.175);
#275=CIRCLE('',#764,0.175);
#276=CIRCLE('',#766,0.16875);
#277=CIRCLE('',#773,0.0624999999999999);
#278=CIRCLE('',#776,0.0625);
#279=CIRCLE('',#779,0.0625);
#280=CIRCLE('',#782,0.0624999999999999);
#281=VERTEX_POINT('',#989);
#282=VERTEX_POINT('',#990);
#283=VERTEX_POINT('',#992);
#284=VERTEX_POINT('',#994);
#285=VERTEX_POINT('',#998);
#286=VERTEX_POINT('',#1000);
#287=VERTEX_POINT('',#1002);
#288=VERTEX_POINT('',#1004);
#289=VERTEX_POINT('',#1006);
#290=VERTEX_POINT('',#1008);
#291=VERTEX_POINT('',#1011);
#292=VERTEX_POINT('',#1012);
#293=VERTEX_POINT('',#1014);
#294=VERTEX_POINT('',#1016);
#295=VERTEX_POINT('',#1018);
#296=VERTEX_POINT('',#1020);
#297=VERTEX_POINT('',#1022);
#298=VERTEX_POINT('',#1024);
#299=VERTEX_POINT('',#1028);
#300=VERTEX_POINT('',#1032);
#301=VERTEX_POINT('',#1033);
#302=VERTEX_POINT('',#1038);
#303=VERTEX_POINT('',#1040);
#304=VERTEX_POINT('',#1042);
#305=VERTEX_POINT('',#1044);
#306=VERTEX_POINT('',#1046);
#307=VERTEX_POINT('',#1048);
#308=VERTEX_POINT('',#1056);
#309=VERTEX_POINT('',#1060);
#310=VERTEX_POINT('',#1061);
#311=VERTEX_POINT('',#1063);
#312=VERTEX_POINT('',#1065);
#313=VERTEX_POINT('',#1069);
#314=VERTEX_POINT('',#1071);
#315=VERTEX_POINT('',#1075);
#316=VERTEX_POINT('',#1076);
#317=VERTEX_POINT('',#1078);
#318=VERTEX_POINT('',#1080);
#319=VERTEX_POINT('',#1084);
#320=VERTEX_POINT('',#1086);
#321=VERTEX_POINT('',#1090);
#322=VERTEX_POINT('',#1092);
#323=VERTEX_POINT('',#1096);
#324=VERTEX_POINT('',#1098);
#325=VERTEX_POINT('',#1103);
#326=VERTEX_POINT('',#1105);
#327=VERTEX_POINT('',#1109);
#328=VERTEX_POINT('',#1111);
#329=VERTEX_POINT('',#1115);
#330=VERTEX_POINT('',#1119);
#331=VERTEX_POINT('',#1125);
#332=VERTEX_POINT('',#1126);
#333=VERTEX_POINT('',#1128);
#334=VERTEX_POINT('',#1133);
#335=VERTEX_POINT('',#1135);
#336=VERTEX_POINT('',#1137);
#337=VERTEX_POINT('',#1140);
#338=VERTEX_POINT('',#1144);
#339=VERTEX_POINT('',#1149);
#340=VERTEX_POINT('',#1158);
#341=VERTEX_POINT('',#1160);
#342=VERTEX_POINT('',#1164);
#343=VERTEX_POINT('',#1168);
#344=VERTEX_POINT('',#1172);
#345=VERTEX_POINT('',#1176);
#346=VERTEX_POINT('',#1180);
#347=VERTEX_POINT('',#1184);
#348=EDGE_CURVE('',#281,#282,#250,.T.);
#349=EDGE_CURVE('',#282,#283,#112,.T.);
#350=EDGE_CURVE('',#283,#284,#251,.T.);
#351=EDGE_CURVE('',#284,#281,#113,.T.);
#352=EDGE_CURVE('',#285,#283,#114,.T.);
#353=EDGE_CURVE('',#286,#285,#252,.T.);
#354=EDGE_CURVE('',#287,#286,#115,.T.);
#355=EDGE_CURVE('',#288,#287,#253,.T.);
#356=EDGE_CURVE('',#289,#288,#116,.T.);
#357=EDGE_CURVE('',#290,#289,#254,.T.);
#358=EDGE_CURVE('',#284,#290,#117,.T.);
#359=EDGE_CURVE('',#291,#292,#118,.T.);
#360=EDGE_CURVE('',#293,#291,#255,.T.);
#361=EDGE_CURVE('',#294,#293,#119,.T.);
#362=EDGE_CURVE('',#295,#294,#256,.T.);
#363=EDGE_CURVE('',#296,#295,#120,.T.);
#364=EDGE_CURVE('',#297,#296,#257,.T.);
#365=EDGE_CURVE('',#298,#297,#121,.T.);
#366=EDGE_CURVE('',#292,#298,#258,.T.);
#367=EDGE_CURVE('',#299,#282,#122,.T.);
#368=EDGE_CURVE('',#285,#299,#123,.T.);
#369=EDGE_CURVE('',#300,#301,#259,.T.);
#370=EDGE_CURVE('',#301,#290,#124,.T.);
#371=EDGE_CURVE('',#289,#300,#125,.T.);
#372=EDGE_CURVE('',#300,#302,#126,.T.);
#373=EDGE_CURVE('',#303,#302,#260,.T.);
#374=EDGE_CURVE('',#303,#304,#127,.T.);
#375=EDGE_CURVE('',#304,#305,#128,.T.);
#376=EDGE_CURVE('',#305,#306,#261,.T.);
#377=EDGE_CURVE('',#306,#307,#129,.T.);
#378=EDGE_CURVE('',#307,#301,#130,.T.);
#379=EDGE_CURVE('',#302,#288,#131,.T.);
#380=EDGE_CURVE('',#287,#303,#132,.T.);
#381=EDGE_CURVE('',#299,#308,#262,.T.);
#382=EDGE_CURVE('',#308,#286,#133,.T.);
#383=EDGE_CURVE('',#309,#310,#263,.T.);
#384=EDGE_CURVE('',#310,#311,#134,.T.);
#385=EDGE_CURVE('',#312,#311,#264,.F.);
#386=EDGE_CURVE('',#312,#309,#135,.T.);
#387=EDGE_CURVE('',#312,#313,#136,.T.);
#388=EDGE_CURVE('',#314,#313,#137,.T.);
#389=EDGE_CURVE('',#309,#314,#138,.T.);
#390=EDGE_CURVE('',#315,#316,#265,.T.);
#391=EDGE_CURVE('',#316,#317,#139,.T.);
#392=EDGE_CURVE('',#318,#317,#266,.F.);
#393=EDGE_CURVE('',#318,#315,#140,.T.);
#394=EDGE_CURVE('',#318,#319,#141,.T.);
#395=EDGE_CURVE('',#320,#319,#142,.T.);
#396=EDGE_CURVE('',#315,#320,#143,.T.);
#397=EDGE_CURVE('',#313,#321,#144,.T.);
#398=EDGE_CURVE('',#321,#322,#145,.T.);
#399=EDGE_CURVE('',#322,#314,#146,.T.);
#400=EDGE_CURVE('',#319,#323,#147,.T.);
#401=EDGE_CURVE('',#323,#324,#148,.T.);
#402=EDGE_CURVE('',#324,#320,#149,.T.);
#403=EDGE_CURVE('',#304,#321,#150,.T.);
#404=EDGE_CURVE('',#325,#311,#267,.T.);
#405=EDGE_CURVE('',#325,#326,#151,.T.);
#406=EDGE_CURVE('',#316,#326,#268,.T.);
#407=EDGE_CURVE('',#307,#324,#152,.T.);
#408=EDGE_CURVE('',#327,#306,#153,.T.);
#409=EDGE_CURVE('',#327,#328,#154,.T.);
#410=EDGE_CURVE('',#305,#328,#155,.T.);
#411=EDGE_CURVE('',#326,#329,#156,.T.);
#412=EDGE_CURVE('',#329,#317,#269,.T.);
#413=EDGE_CURVE('',#330,#325,#157,.T.);
#414=EDGE_CURVE('',#329,#330,#158,.T.);
#415=EDGE_CURVE('',#310,#330,#270,.T.);
#416=EDGE_CURVE('',#331,#332,#271,.T.);
#417=EDGE_CURVE('',#333,#331,#159,.T.);
#418=EDGE_CURVE('',#328,#333,#272,.T.);
#419=EDGE_CURVE('',#332,#327,#273,.T.);
#420=EDGE_CURVE('',#333,#334,#160,.T.);
#421=EDGE_CURVE('',#335,#331,#161,.T.);
#422=EDGE_CURVE('',#336,#335,#162,.T.);
#423=EDGE_CURVE('',#336,#323,#163,.T.);
#424=EDGE_CURVE('',#337,#322,#164,.T.);
#425=EDGE_CURVE('',#334,#337,#165,.T.);
#426=EDGE_CURVE('',#332,#338,#166,.T.);
#427=EDGE_CURVE('',#338,#338,#274,.T.);
#428=EDGE_CURVE('',#335,#334,#275,.T.);
#429=EDGE_CURVE('',#339,#339,#276,.T.);
#430=EDGE_CURVE('',#337,#308,#167,.T.);
#431=EDGE_CURVE('',#281,#336,#168,.T.);
#432=EDGE_CURVE('',#292,#340,#169,.T.);
#433=EDGE_CURVE('',#341,#340,#170,.T.);
#434=EDGE_CURVE('',#291,#341,#171,.T.);
#435=EDGE_CURVE('',#342,#341,#277,.T.);
#436=EDGE_CURVE('',#293,#342,#172,.T.);
#437=EDGE_CURVE('',#343,#342,#173,.T.);
#438=EDGE_CURVE('',#294,#343,#174,.T.);
#439=EDGE_CURVE('',#344,#343,#278,.T.);
#440=EDGE_CURVE('',#295,#344,#175,.T.);
#441=EDGE_CURVE('',#345,#344,#176,.T.);
#442=EDGE_CURVE('',#296,#345,#177,.T.);
#443=EDGE_CURVE('',#346,#345,#279,.T.);
#444=EDGE_CURVE('',#297,#346,#178,.T.);
#445=EDGE_CURVE('',#347,#346,#179,.T.);
#446=EDGE_CURVE('',#298,#347,#180,.T.);
#447=EDGE_CURVE('',#340,#347,#280,.T.);
#448=ORIENTED_EDGE('',*,*,#348,.T.);
#449=ORIENTED_EDGE('',*,*,#349,.T.);
#450=ORIENTED_EDGE('',*,*,#350,.T.);
#451=ORIENTED_EDGE('',*,*,#351,.T.);
#452=ORIENTED_EDGE('',*,*,#350,.F.);
#453=ORIENTED_EDGE('',*,*,#352,.F.);
#454=ORIENTED_EDGE('',*,*,#353,.F.);
#455=ORIENTED_EDGE('',*,*,#354,.F.);
#456=ORIENTED_EDGE('',*,*,#355,.F.);
#457=ORIENTED_EDGE('',*,*,#356,.F.);
#458=ORIENTED_EDGE('',*,*,#357,.F.);
#459=ORIENTED_EDGE('',*,*,#358,.F.);
#460=ORIENTED_EDGE('',*,*,#359,.F.);
#461=ORIENTED_EDGE('',*,*,#360,.F.);
#462=ORIENTED_EDGE('',*,*,#361,.F.);
#463=ORIENTED_EDGE('',*,*,#362,.F.);
#464=ORIENTED_EDGE('',*,*,#363,.F.);
#465=ORIENTED_EDGE('',*,*,#364,.F.);
#466=ORIENTED_EDGE('',*,*,#365,.F.);
#467=ORIENTED_EDGE('',*,*,#366,.F.);
#468=ORIENTED_EDGE('',*,*,#349,.F.);
#469=ORIENTED_EDGE('',*,*,#367,.F.);
#470=ORIENTED_EDGE('',*,*,#368,.F.);
#471=ORIENTED_EDGE('',*,*,#352,.T.);
#472=ORIENTED_EDGE('',*,*,#369,.T.);
#473=ORIENTED_EDGE('',*,*,#370,.T.);
#474=ORIENTED_EDGE('',*,*,#357,.T.);
#475=ORIENTED_EDGE('',*,*,#371,.T.);
#476=ORIENTED_EDGE('',*,*,#369,.F.);
#477=ORIENTED_EDGE('',*,*,#372,.T.);
#478=ORIENTED_EDGE('',*,*,#373,.F.);
#479=ORIENTED_EDGE('',*,*,#374,.T.);
#480=ORIENTED_EDGE('',*,*,#375,.T.);
#481=ORIENTED_EDGE('',*,*,#376,.T.);
#482=ORIENTED_EDGE('',*,*,#377,.T.);
#483=ORIENTED_EDGE('',*,*,#378,.T.);
#484=ORIENTED_EDGE('',*,*,#371,.F.);
#485=ORIENTED_EDGE('',*,*,#356,.T.);
#486=ORIENTED_EDGE('',*,*,#379,.F.);
#487=ORIENTED_EDGE('',*,*,#372,.F.);
#488=ORIENTED_EDGE('',*,*,#373,.T.);
#489=ORIENTED_EDGE('',*,*,#379,.T.);
#490=ORIENTED_EDGE('',*,*,#355,.T.);
#491=ORIENTED_EDGE('',*,*,#380,.T.);
#492=ORIENTED_EDGE('',*,*,#381,.T.);
#493=ORIENTED_EDGE('',*,*,#382,.T.);
#494=ORIENTED_EDGE('',*,*,#353,.T.);
#495=ORIENTED_EDGE('',*,*,#368,.T.);
#496=ORIENTED_EDGE('',*,*,#383,.T.);
#497=ORIENTED_EDGE('',*,*,#384,.T.);
#498=ORIENTED_EDGE('',*,*,#385,.F.);
#499=ORIENTED_EDGE('',*,*,#386,.T.);
#500=ORIENTED_EDGE('',*,*,#386,.F.);
#501=ORIENTED_EDGE('',*,*,#387,.T.);
#502=ORIENTED_EDGE('',*,*,#388,.F.);
#503=ORIENTED_EDGE('',*,*,#389,.F.);
#504=ORIENTED_EDGE('',*,*,#390,.T.);
#505=ORIENTED_EDGE('',*,*,#391,.T.);
#506=ORIENTED_EDGE('',*,*,#392,.F.);
#507=ORIENTED_EDGE('',*,*,#393,.T.);
#508=ORIENTED_EDGE('',*,*,#393,.F.);
#509=ORIENTED_EDGE('',*,*,#394,.T.);
#510=ORIENTED_EDGE('',*,*,#395,.F.);
#511=ORIENTED_EDGE('',*,*,#396,.F.);
#512=ORIENTED_EDGE('',*,*,#397,.T.);
#513=ORIENTED_EDGE('',*,*,#398,.T.);
#514=ORIENTED_EDGE('',*,*,#399,.T.);
#515=ORIENTED_EDGE('',*,*,#388,.T.);
#516=ORIENTED_EDGE('',*,*,#400,.T.);
#517=ORIENTED_EDGE('',*,*,#401,.T.);
#518=ORIENTED_EDGE('',*,*,#402,.T.);
#519=ORIENTED_EDGE('',*,*,#395,.T.);
#520=ORIENTED_EDGE('',*,*,#375,.F.);
#521=ORIENTED_EDGE('',*,*,#403,.T.);
#522=ORIENTED_EDGE('',*,*,#397,.F.);
#523=ORIENTED_EDGE('',*,*,#387,.F.);
#524=ORIENTED_EDGE('',*,*,#385,.T.);
#525=ORIENTED_EDGE('',*,*,#404,.F.);
#526=ORIENTED_EDGE('',*,*,#405,.T.);
#527=ORIENTED_EDGE('',*,*,#406,.F.);
#528=ORIENTED_EDGE('',*,*,#390,.F.);
#529=ORIENTED_EDGE('',*,*,#396,.T.);
#530=ORIENTED_EDGE('',*,*,#402,.F.);
#531=ORIENTED_EDGE('',*,*,#407,.F.);
#532=ORIENTED_EDGE('',*,*,#377,.F.);
#533=ORIENTED_EDGE('',*,*,#408,.F.);
#534=ORIENTED_EDGE('',*,*,#409,.T.);
#535=ORIENTED_EDGE('',*,*,#410,.F.);
#536=ORIENTED_EDGE('',*,*,#391,.F.);
#537=ORIENTED_EDGE('',*,*,#406,.T.);
#538=ORIENTED_EDGE('',*,*,#411,.T.);
#539=ORIENTED_EDGE('',*,*,#412,.T.);
#540=ORIENTED_EDGE('',*,*,#411,.F.);
#541=ORIENTED_EDGE('',*,*,#405,.F.);
#542=ORIENTED_EDGE('',*,*,#413,.F.);
#543=ORIENTED_EDGE('',*,*,#414,.F.);
#544=ORIENTED_EDGE('',*,*,#384,.F.);
#545=ORIENTED_EDGE('',*,*,#415,.T.);
#546=ORIENTED_EDGE('',*,*,#413,.T.);
#547=ORIENTED_EDGE('',*,*,#404,.T.);
#548=ORIENTED_EDGE('',*,*,#416,.F.);
#549=ORIENTED_EDGE('',*,*,#417,.F.);
#550=ORIENTED_EDGE('',*,*,#418,.F.);
#551=ORIENTED_EDGE('',*,*,#409,.F.);
#552=ORIENTED_EDGE('',*,*,#419,.F.);
#553=ORIENTED_EDGE('',*,*,#420,.F.);
#554=ORIENTED_EDGE('',*,*,#417,.T.);
#555=ORIENTED_EDGE('',*,*,#421,.F.);
#556=ORIENTED_EDGE('',*,*,#422,.F.);
#557=ORIENTED_EDGE('',*,*,#423,.T.);
#558=ORIENTED_EDGE('',*,*,#400,.F.);
#559=ORIENTED_EDGE('',*,*,#394,.F.);
#560=ORIENTED_EDGE('',*,*,#392,.T.);
#561=ORIENTED_EDGE('',*,*,#412,.F.);
#562=ORIENTED_EDGE('',*,*,#414,.T.);
#563=ORIENTED_EDGE('',*,*,#415,.F.);
#564=ORIENTED_EDGE('',*,*,#383,.F.);
#565=ORIENTED_EDGE('',*,*,#389,.T.);
#566=ORIENTED_EDGE('',*,*,#399,.F.);
#567=ORIENTED_EDGE('',*,*,#424,.F.);
#568=ORIENTED_EDGE('',*,*,#425,.F.);
#569=ORIENTED_EDGE('',*,*,#421,.T.);
#570=ORIENTED_EDGE('',*,*,#416,.T.);
#571=ORIENTED_EDGE('',*,*,#426,.T.);
#572=ORIENTED_EDGE('',*,*,#427,.T.);
#573=ORIENTED_EDGE('',*,*,#426,.F.);
#574=ORIENTED_EDGE('',*,*,#419,.T.);
#575=ORIENTED_EDGE('',*,*,#408,.T.);
#576=ORIENTED_EDGE('',*,*,#376,.F.);
#577=ORIENTED_EDGE('',*,*,#410,.T.);
#578=ORIENTED_EDGE('',*,*,#418,.T.);
#579=ORIENTED_EDGE('',*,*,#420,.T.);
#580=ORIENTED_EDGE('',*,*,#428,.F.);
#581=ORIENTED_EDGE('',*,*,#429,.F.);
#582=ORIENTED_EDGE('',*,*,#427,.F.);
#583=ORIENTED_EDGE('',*,*,#380,.F.);
#584=ORIENTED_EDGE('',*,*,#354,.T.);
#585=ORIENTED_EDGE('',*,*,#382,.F.);
#586=ORIENTED_EDGE('',*,*,#430,.F.);
#587=ORIENTED_EDGE('',*,*,#424,.T.);
#588=ORIENTED_EDGE('',*,*,#398,.F.);
#589=ORIENTED_EDGE('',*,*,#403,.F.);
#590=ORIENTED_EDGE('',*,*,#374,.F.);
#591=ORIENTED_EDGE('',*,*,#351,.F.);
#592=ORIENTED_EDGE('',*,*,#358,.T.);
#593=ORIENTED_EDGE('',*,*,#370,.F.);
#594=ORIENTED_EDGE('',*,*,#378,.F.);
#595=ORIENTED_EDGE('',*,*,#407,.T.);
#596=ORIENTED_EDGE('',*,*,#401,.F.);
#597=ORIENTED_EDGE('',*,*,#423,.F.);
#598=ORIENTED_EDGE('',*,*,#431,.F.);
#599=ORIENTED_EDGE('',*,*,#348,.F.);
#600=ORIENTED_EDGE('',*,*,#431,.T.);
#601=ORIENTED_EDGE('',*,*,#422,.T.);
#602=ORIENTED_EDGE('',*,*,#428,.T.);
#603=ORIENTED_EDGE('',*,*,#425,.T.);
#604=ORIENTED_EDGE('',*,*,#430,.T.);
#605=ORIENTED_EDGE('',*,*,#381,.F.);
#606=ORIENTED_EDGE('',*,*,#367,.T.);
#607=ORIENTED_EDGE('',*,*,#359,.T.);
#608=ORIENTED_EDGE('',*,*,#432,.T.);
#609=ORIENTED_EDGE('',*,*,#433,.F.);
#610=ORIENTED_EDGE('',*,*,#434,.F.);
#611=ORIENTED_EDGE('',*,*,#360,.T.);
#612=ORIENTED_EDGE('',*,*,#434,.T.);
#613=ORIENTED_EDGE('',*,*,#435,.F.);
#614=ORIENTED_EDGE('',*,*,#436,.F.);
#615=ORIENTED_EDGE('',*,*,#361,.T.);
#616=ORIENTED_EDGE('',*,*,#436,.T.);
#617=ORIENTED_EDGE('',*,*,#437,.F.);
#618=ORIENTED_EDGE('',*,*,#438,.F.);
#619=ORIENTED_EDGE('',*,*,#362,.T.);
#620=ORIENTED_EDGE('',*,*,#438,.T.);
#621=ORIENTED_EDGE('',*,*,#439,.F.);
#622=ORIENTED_EDGE('',*,*,#440,.F.);
#623=ORIENTED_EDGE('',*,*,#363,.T.);
#624=ORIENTED_EDGE('',*,*,#440,.T.);
#625=ORIENTED_EDGE('',*,*,#441,.F.);
#626=ORIENTED_EDGE('',*,*,#442,.F.);
#627=ORIENTED_EDGE('',*,*,#364,.T.);
#628=ORIENTED_EDGE('',*,*,#442,.T.);
#629=ORIENTED_EDGE('',*,*,#443,.F.);
#630=ORIENTED_EDGE('',*,*,#444,.F.);
#631=ORIENTED_EDGE('',*,*,#365,.T.);
#632=ORIENTED_EDGE('',*,*,#444,.T.);
#633=ORIENTED_EDGE('',*,*,#445,.F.);
#634=ORIENTED_EDGE('',*,*,#446,.F.);
#635=ORIENTED_EDGE('',*,*,#366,.T.);
#636=ORIENTED_EDGE('',*,*,#446,.T.);
#637=ORIENTED_EDGE('',*,*,#447,.F.);
#638=ORIENTED_EDGE('',*,*,#432,.F.);
#639=ORIENTED_EDGE('',*,*,#447,.T.);
#640=ORIENTED_EDGE('',*,*,#445,.T.);
#641=ORIENTED_EDGE('',*,*,#443,.T.);
#642=ORIENTED_EDGE('',*,*,#441,.T.);
#643=ORIENTED_EDGE('',*,*,#439,.T.);
#644=ORIENTED_EDGE('',*,*,#437,.T.);
#645=ORIENTED_EDGE('',*,*,#435,.T.);
#646=ORIENTED_EDGE('',*,*,#433,.T.);
#647=ORIENTED_EDGE('',*,*,#429,.T.);
#648=CYLINDRICAL_SURFACE('',#718,0.0625);
#649=CYLINDRICAL_SURFACE('',#730,0.0625);
#650=CYLINDRICAL_SURFACE('',#736,0.0625);
#651=CYLINDRICAL_SURFACE('',#737,0.0625);
#652=CYLINDRICAL_SURFACE('',#739,0.03);
#653=CYLINDRICAL_SURFACE('',#743,0.03);
#654=CYLINDRICAL_SURFACE('',#752,0.06);
#655=CYLINDRICAL_SURFACE('',#755,0.06);
#656=CYLINDRICAL_SURFACE('',#762,0.175);
#657=CYLINDRICAL_SURFACE('',#772,0.0624999999999999);
#658=CYLINDRICAL_SURFACE('',#775,0.0625);
#659=CYLINDRICAL_SURFACE('',#778,0.0625);
#660=CYLINDRICAL_SURFACE('',#781,0.0624999999999999);
#661=ADVANCED_FACE('',(#40),#648,.T.);
#662=ADVANCED_FACE('',(#41,#17),#19,.F.);
#663=ADVANCED_FACE('',(#42),#20,.T.);
#664=ADVANCED_FACE('',(#43),#649,.T.);
#665=ADVANCED_FACE('',(#44),#21,.T.);
#666=ADVANCED_FACE('',(#45),#22,.T.);
#667=ADVANCED_FACE('',(#46),#650,.T.);
#668=ADVANCED_FACE('',(#47),#651,.T.);
#669=ADVANCED_FACE('',(#48),#652,.F.);
#670=ADVANCED_FACE('',(#49),#23,.T.);
#671=ADVANCED_FACE('',(#50),#653,.F.);
#672=ADVANCED_FACE('',(#51),#24,.T.);
#673=ADVANCED_FACE('',(#52),#25,.T.);
#674=ADVANCED_FACE('',(#53),#26,.T.);
#675=ADVANCED_FACE('',(#54),#27,.T.);
#676=ADVANCED_FACE('',(#55),#654,.T.);
#677=ADVANCED_FACE('',(#56),#28,.T.);
#678=ADVANCED_FACE('',(#57),#655,.T.);
#679=ADVANCED_FACE('',(#58),#29,.T.);
#680=ADVANCED_FACE('',(#59),#30,.T.);
#681=ADVANCED_FACE('',(#60),#656,.F.);
#682=ADVANCED_FACE('',(#61),#14,.F.);
#683=ADVANCED_FACE('',(#62),#31,.T.);
#684=ADVANCED_FACE('',(#63),#32,.T.);
#685=ADVANCED_FACE('',(#64),#33,.T.);
#686=ADVANCED_FACE('',(#65),#34,.T.);
#687=ADVANCED_FACE('',(#66),#35,.T.);
#688=ADVANCED_FACE('',(#67),#657,.T.);
#689=ADVANCED_FACE('',(#68),#36,.T.);
#690=ADVANCED_FACE('',(#69),#658,.T.);
#691=ADVANCED_FACE('',(#70),#37,.T.);
#692=ADVANCED_FACE('',(#71),#659,.T.);
#693=ADVANCED_FACE('',(#72),#38,.T.);
#694=ADVANCED_FACE('',(#73),#660,.T.);
#695=ADVANCED_FACE('',(#74,#18),#39,.T.);
#696=CLOSED_SHELL('',(#661,#662,#663,#664,#665,#666,#667,#668,#669,#670,
#671,#672,#673,#674,#675,#676,#677,#678,#679,#680,#681,#682,#683,#684,#685,
#686,#687,#688,#689,#690,#691,#692,#693,#694,#695));
#697=DERIVED_UNIT_ELEMENT(#699,1.);
#698=DERIVED_UNIT_ELEMENT(#1198,-3.);
#699=(
CONVERSION_BASED_UNIT('gram',#701)
MASS_UNIT()
NAMED_UNIT(#1195)
);
#700=(
MASS_UNIT()
NAMED_UNIT(*)
SI_UNIT(.KILO.,.GRAM.)
);
#701=MASS_MEASURE_WITH_UNIT(MASS_MEASURE(0.001),#700);
#702=DERIVED_UNIT((#697,#698));
#703=MEASURE_REPRESENTATION_ITEM('density measure',
POSITIVE_RATIO_MEASURE(1.1),#702);
#704=PROPERTY_DEFINITION_REPRESENTATION(#709,#706);
#705=PROPERTY_DEFINITION_REPRESENTATION(#710,#707);
#706=REPRESENTATION('material name',(#708),#1192);
#707=REPRESENTATION('density',(#703),#1192);
#708=DESCRIPTIVE_REPRESENTATION_ITEM('PC/ABS Plastic','PC/ABS Plastic');
#709=PROPERTY_DEFINITION('material property','material name',#1206);
#710=PROPERTY_DEFINITION('material property','density of part',#1206);
#711=DATE_TIME_ROLE('creation_date');
#712=APPLIED_DATE_AND_TIME_ASSIGNMENT(#713,#711,(#1206));
#713=DATE_AND_TIME(#714,#715);
#714=CALENDAR_DATE(2026,28,3);
#715=LOCAL_TIME(0,0,0.,#716);
#716=COORDINATED_UNIVERSAL_TIME_OFFSET(0,0,.BEHIND.);
#717=AXIS2_PLACEMENT_3D('',#987,#784,#785);
#718=AXIS2_PLACEMENT_3D('',#988,#786,#787);
#719=AXIS2_PLACEMENT_3D('',#991,#788,#789);
#720=AXIS2_PLACEMENT_3D('',#995,#791,#792);
#721=AXIS2_PLACEMENT_3D('',#997,#794,#795);
#722=AXIS2_PLACEMENT_3D('',#1001,#797,#798);
#723=AXIS2_PLACEMENT_3D('',#1005,#800,#801);
#724=AXIS2_PLACEMENT_3D('',#1009,#803,#804);
#725=AXIS2_PLACEMENT_3D('',#1015,#807,#808);
#726=AXIS2_PLACEMENT_3D('',#1019,#810,#811);
#727=AXIS2_PLACEMENT_3D('',#1023,#813,#814);
#728=AXIS2_PLACEMENT_3D('',#1026,#816,#817);
#729=AXIS2_PLACEMENT_3D('',#1027,#818,#819);
#730=AXIS2_PLACEMENT_3D('',#1031,#822,#823);
#731=AXIS2_PLACEMENT_3D('',#1034,#824,#825);
#732=AXIS2_PLACEMENT_3D('',#1037,#828,#829);
#733=AXIS2_PLACEMENT_3D('',#1041,#831,#832);
#734=AXIS2_PLACEMENT_3D('',#1047,#835,#836);
#735=AXIS2_PLACEMENT_3D('',#1051,#839,#840);
#736=AXIS2_PLACEMENT_3D('',#1053,#842,#843);
#737=AXIS2_PLACEMENT_3D('',#1055,#845,#846);
#738=AXIS2_PLACEMENT_3D('',#1057,#847,#848);
#739=AXIS2_PLACEMENT_3D('',#1059,#850,#851);
#740=AXIS2_PLACEMENT_3D('',#1062,#852,#853);
#741=AXIS2_PLACEMENT_3D('',#1066,#855,#856);
#742=AXIS2_PLACEMENT_3D('',#1068,#858,#859);
#743=AXIS2_PLACEMENT_3D('',#1074,#863,#864);
#744=AXIS2_PLACEMENT_3D('',#1077,#865,#866);
#745=AXIS2_PLACEMENT_3D('',#1081,#868,#869);
#746=AXIS2_PLACEMENT_3D('',#1083,#871,#872);
#747=AXIS2_PLACEMENT_3D('',#1089,#876,#877);
#748=AXIS2_PLACEMENT_3D('',#1095,#881,#882);
#749=AXIS2_PLACEMENT_3D('',#1101,#886,#887);
#750=AXIS2_PLACEMENT_3D('',#1104,#889,#890);
#751=AXIS2_PLACEMENT_3D('',#1107,#892,#893);
#752=AXIS2_PLACEMENT_3D('',#1114,#898,#899);
#753=AXIS2_PLACEMENT_3D('',#1117,#901,#902);
#754=AXIS2_PLACEMENT_3D('',#1118,#903,#904);
#755=AXIS2_PLACEMENT_3D('',#1122,#907,#908);
#756=AXIS2_PLACEMENT_3D('',#1123,#909,#910);
#757=AXIS2_PLACEMENT_3D('',#1124,#911,#912);
#758=AXIS2_PLACEMENT_3D('',#1127,#913,#914);
#759=AXIS2_PLACEMENT_3D('',#1130,#916,#917);
#760=AXIS2_PLACEMENT_3D('',#1131,#918,#919);
#761=AXIS2_PLACEMENT_3D('',#1132,#920,#921);
#762=AXIS2_PLACEMENT_3D('',#1143,#928,#929);
#763=AXIS2_PLACEMENT_3D('',#1146,#931,#932);
#764=AXIS2_PLACEMENT_3D('',#1147,#933,#934);
#765=AXIS2_PLACEMENT_3D('',#1148,#935,#936);
#766=AXIS2_PLACEMENT_3D('',#1150,#937,#938);
#767=AXIS2_PLACEMENT_3D('',#1151,#939,#940);
#768=AXIS2_PLACEMENT_3D('',#1152,#941,#942);
#769=AXIS2_PLACEMENT_3D('',#1154,#944,#945);
#770=AXIS2_PLACEMENT_3D('',#1156,#947,#948);
#771=AXIS2_PLACEMENT_3D('',#1157,#949,#950);
#772=AXIS2_PLACEMENT_3D('',#1163,#954,#955);
#773=AXIS2_PLACEMENT_3D('',#1165,#956,#957);
#774=AXIS2_PLACEMENT_3D('',#1167,#959,#960);
#775=AXIS2_PLACEMENT_3D('',#1171,#963,#964);
#776=AXIS2_PLACEMENT_3D('',#1173,#965,#966);
#777=AXIS2_PLACEMENT_3D('',#1175,#968,#969);
#778=AXIS2_PLACEMENT_3D('',#1179,#972,#973);
#779=AXIS2_PLACEMENT_3D('',#1181,#974,#975);
#780=AXIS2_PLACEMENT_3D('',#1183,#977,#978);
#781=AXIS2_PLACEMENT_3D('',#1187,#981,#982);
#782=AXIS2_PLACEMENT_3D('',#1188,#983,#984);
#783=AXIS2_PLACEMENT_3D('',#1189,#985,#986);
#784=DIRECTION('axis',(0.,0.,1.));
#785=DIRECTION('refdir',(1.,0.,0.));
#786=DIRECTION('center_axis',(0.,-1.,0.));
#787=DIRECTION('ref_axis',(-0.707106781186548,0.,0.707106781186548));
#788=DIRECTION('center_axis',(0.,1.,0.));
#789=DIRECTION('ref_axis',(-0.707106781186548,0.,0.707106781186548));
#790=DIRECTION('',(0.,1.,0.));
#791=DIRECTION('center_axis',(0.,-1.,0.));
#792=DIRECTION('ref_axis',(-0.707106781186548,0.,0.707106781186548));
#793=DIRECTION('',(0.,-1.,0.));
#794=DIRECTION('center_axis',(0.,-1.,0.));
#795=DIRECTION('ref_axis',(0.,0.,-1.));
#796=DIRECTION('',(-1.,0.,0.));
#797=DIRECTION('center_axis',(0.,-1.,0.));
#798=DIRECTION('ref_axis',(0.707106781186547,0.,0.707106781186548));
#799=DIRECTION('',(-1.86793025207813E-16,0.,1.));
#800=DIRECTION('center_axis',(0.,-1.,0.));
#801=DIRECTION('ref_axis',(0.707106781186548,0.,-0.707106781186547));
#802=DIRECTION('',(1.,0.,9.33965126039064E-17));
#803=DIRECTION('center_axis',(0.,-1.,0.));
#804=DIRECTION('ref_axis',(-0.707106781186548,0.,-0.707106781186548));
#805=DIRECTION('',(0.,0.,-1.));
#806=DIRECTION('',(1.,0.,-7.94719416338695E-16));
#807=DIRECTION('center_axis',(0.,1.,0.));
#808=DIRECTION('ref_axis',(-1.,0.,-6.99353086378052E-16));
#809=DIRECTION('',(-3.17887766535478E-16,0.,1.));
#810=DIRECTION('center_axis',(0.,1.,0.));
#811=DIRECTION('ref_axis',(-3.49676543189026E-16,0.,-1.));
#812=DIRECTION('',(-1.,0.,1.11260718287417E-15));
#813=DIRECTION('center_axis',(0.,1.,0.));
#814=DIRECTION('ref_axis',(1.,0.,-3.49676543189025E-16));
#815=DIRECTION('',(-3.17887766535478E-16,0.,-1.));
#816=DIRECTION('center_axis',(0.,1.,0.));
#817=DIRECTION('ref_axis',(3.49676543189026E-16,0.,1.));
#818=DIRECTION('center_axis',(0.,0.,1.));
#819=DIRECTION('ref_axis',(-1.,0.,0.));
#820=DIRECTION('',(-1.,0.,0.));
#821=DIRECTION('',(0.,-1.,0.));
#822=DIRECTION('center_axis',(0.,-1.,0.));
#823=DIRECTION('ref_axis',(-0.707106781186548,0.,-0.707106781186548));
#824=DIRECTION('center_axis',(0.,1.,0.));
#825=DIRECTION('ref_axis',(-0.707106781186548,0.,-0.707106781186548));
#826=DIRECTION('',(0.,1.,0.));
#827=DIRECTION('',(0.,-1.,0.));
#828=DIRECTION('center_axis',(0.,-1.,0.));
#829=DIRECTION('ref_axis',(0.,0.,-1.));
#830=DIRECTION('',(1.,0.,9.33965126039064E-17));
#831=DIRECTION('center_axis',(0.,1.,0.));
#832=DIRECTION('ref_axis',(0.707106781186548,0.,-0.707106781186547));
#833=DIRECTION('',(-1.86793025207813E-16,0.,1.));
#834=DIRECTION('',(-1.,0.,0.));
#835=DIRECTION('center_axis',(0.,1.,0.));
#836=DIRECTION('ref_axis',(1.,0.,0.));
#837=DIRECTION('',(-1.,0.,0.));
#838=DIRECTION('',(0.,0.,-1.));
#839=DIRECTION('center_axis',(9.33965126039064E-17,0.,-1.));
#840=DIRECTION('ref_axis',(1.,0.,9.33965126039064E-17));
#841=DIRECTION('',(0.,1.,0.));
#842=DIRECTION('center_axis',(0.,-1.,0.));
#843=DIRECTION('ref_axis',(0.707106781186548,0.,-0.707106781186547));
#844=DIRECTION('',(0.,-1.,0.));
#845=DIRECTION('center_axis',(0.,-1.,0.));
#846=DIRECTION('ref_axis',(0.707106781186547,0.,0.707106781186548));
#847=DIRECTION('center_axis',(0.,1.,0.));
#848=DIRECTION('ref_axis',(0.707106781186547,0.,0.707106781186548));
#849=DIRECTION('',(0.,1.,0.));
#850=DIRECTION('center_axis',(-3.70074341541719E-16,-7.7381856778706E-19,
1.));
#851=DIRECTION('ref_axis',(-1.,0.,-3.70074341541719E-16));
#852=DIRECTION('center_axis',(0.,0.,1.));
#853=DIRECTION('ref_axis',(-1.,0.,-3.70074341541719E-16));
#854=DIRECTION('',(3.70074341541719E-16,7.7381856778706E-19,-1.));
#855=DIRECTION('center_axis',(0.,0.,-1.));
#856=DIRECTION('ref_axis',(-1.,0.,-3.70074341541719E-16));
#857=DIRECTION('',(-3.70074341541719E-16,-7.7381856778706E-19,1.));
#858=DIRECTION('center_axis',(-1.,0.,-3.70074341541719E-16));
#859=DIRECTION('ref_axis',(3.70074341541719E-16,0.,-1.));
#860=DIRECTION('',(0.,-1.,0.));
#861=DIRECTION('',(3.70074341541719E-16,0.,-1.));
#862=DIRECTION('',(0.,-1.,0.));
#863=DIRECTION('center_axis',(3.70074341541719E-16,-7.73818567785442E-19,
-1.));
#864=DIRECTION('ref_axis',(1.,0.,3.70074341541719E-16));
#865=DIRECTION('center_axis',(0.,0.,-1.));
#866=DIRECTION('ref_axis',(1.,0.,3.70074341541719E-16));
#867=DIRECTION('',(-3.70074341541719E-16,7.73818567785442E-19,1.));
#868=DIRECTION('center_axis',(0.,0.,1.));
#869=DIRECTION('ref_axis',(1.,0.,3.70074341541719E-16));
#870=DIRECTION('',(3.70074341541719E-16,-7.73818567785442E-19,-1.));
#871=DIRECTION('center_axis',(1.,0.,3.70074341541719E-16));
#872=DIRECTION('ref_axis',(-3.70074341541719E-16,0.,1.));
#873=DIRECTION('',(0.,-1.,0.));
#874=DIRECTION('',(-3.70074341541719E-16,0.,1.));
#875=DIRECTION('',(0.,-1.,0.));
#876=DIRECTION('center_axis',(0.,-1.,0.));
#877=DIRECTION('ref_axis',(0.,0.,-1.));
#878=DIRECTION('',(1.,0.,-1.66018795427947E-15));
#879=DIRECTION('',(-1.86793025207813E-16,0.,1.));
#880=DIRECTION('',(-1.,0.,-1.66018795427947E-15));
#881=DIRECTION('center_axis',(0.,-1.,0.));
#882=DIRECTION('ref_axis',(0.,0.,-1.));
#883=DIRECTION('',(-1.,0.,1.66018795427947E-15));
#884=DIRECTION('',(0.,0.,-1.));
#885=DIRECTION('',(1.,0.,1.66018795427947E-15));
#886=DIRECTION('center_axis',(0.,0.,-1.));
#887=DIRECTION('ref_axis',(-1.,0.,0.));
#888=DIRECTION('',(0.,-1.,0.));
#889=DIRECTION('center_axis',(0.,0.,1.));
#890=DIRECTION('ref_axis',(0.258819045102521,-0.965925826289068,0.));
#891=DIRECTION('',(-1.,-1.55103507272602E-16,0.));
#892=DIRECTION('center_axis',(0.,0.,1.));
#893=DIRECTION('ref_axis',(-0.258819045102522,-0.965925826289068,0.));
#894=DIRECTION('',(0.,-1.,0.));
#895=DIRECTION('',(0.,-1.,0.));
#896=DIRECTION('',(1.,1.24884479710366E-16,0.));
#897=DIRECTION('',(0.,1.,0.));
#898=DIRECTION('center_axis',(0.,0.,-1.));
#899=DIRECTION('ref_axis',(-0.258819045102522,-0.965925826289068,0.));
#900=DIRECTION('',(0.,0.,1.));
#901=DIRECTION('center_axis',(0.,0.,-1.));
#902=DIRECTION('ref_axis',(-0.258819045102522,-0.965925826289068,0.));
#903=DIRECTION('center_axis',(1.55103507272602E-16,-1.,0.));
#904=DIRECTION('ref_axis',(1.,1.55103507272602E-16,0.));
#905=DIRECTION('',(0.,0.,-1.));
#906=DIRECTION('',(1.,1.55103507272602E-16,0.));
#907=DIRECTION('center_axis',(0.,0.,1.));
#908=DIRECTION('ref_axis',(0.258819045102521,-0.965925826289068,0.));
#909=DIRECTION('center_axis',(0.,0.,-1.));
#910=DIRECTION('ref_axis',(0.258819045102521,-0.965925826289068,0.));
#911=DIRECTION('center_axis',(-1.24884479710366E-16,1.,0.));
#912=DIRECTION('ref_axis',(-1.,-1.24884479710366E-16,0.));
#913=DIRECTION('center_axis',(1.24884479710366E-16,-1.,0.));
#914=DIRECTION('ref_axis',(1.,0.,0.));
#915=DIRECTION('',(-1.,-1.24884479710366E-16,0.));
#916=DIRECTION('center_axis',(1.24884479710366E-16,-1.,0.));
#917=DIRECTION('ref_axis',(1.,0.,0.));
#918=DIRECTION('center_axis',(1.24884479710366E-16,-1.,0.));
#919=DIRECTION('ref_axis',(1.,0.,0.));
#920=DIRECTION('center_axis',(0.,0.,1.));
#921=DIRECTION('ref_axis',(1.,0.,0.));
#922=DIRECTION('',(0.,-1.,0.));
#923=DIRECTION('',(0.,1.,0.));
#924=DIRECTION('',(1.,0.,-1.66018795427947E-15));
#925=DIRECTION('',(0.,-1.,0.));
#926=DIRECTION('',(0.,-1.,0.));
#927=DIRECTION('',(1.,0.,1.66018795427947E-15));
#928=DIRECTION('center_axis',(0.,1.,0.));
#929=DIRECTION('ref_axis',(1.,0.,0.));
#930=DIRECTION('',(0.,1.,0.));
#931=DIRECTION('center_axis',(0.,1.,0.));
#932=DIRECTION('ref_axis',(1.,0.,0.));
#933=DIRECTION('center_axis',(0.,1.,0.));
#934=DIRECTION('ref_axis',(1.,0.,0.));
#935=DIRECTION('center_axis',(6.12323399573677E-17,0.,1.));
#936=DIRECTION('ref_axis',(1.,0.,0.));
#937=DIRECTION('center_axis',(0.,-1.,0.));
#938=DIRECTION('ref_axis',(0.,0.,-1.));
#939=DIRECTION('center_axis',(0.,-1.,0.));
#940=DIRECTION('ref_axis',(0.,0.,-1.));
#941=DIRECTION('center_axis',(1.,0.,1.86793025207813E-16));
#942=DIRECTION('ref_axis',(-1.86793025207813E-16,0.,1.));
#943=DIRECTION('',(-1.86793025207813E-16,0.,1.));
#944=DIRECTION('center_axis',(-1.,0.,0.));
#945=DIRECTION('ref_axis',(0.,0.,-1.));
#946=DIRECTION('',(0.,0.,-1.));
#947=DIRECTION('center_axis',(0.,-1.,0.));
#948=DIRECTION('ref_axis',(0.,0.,-1.));
#949=DIRECTION('center_axis',(7.94719416338695E-16,0.,1.));
#950=DIRECTION('ref_axis',(1.,0.,-7.94719416338695E-16));
#951=DIRECTION('',(0.,1.,0.));
#952=DIRECTION('',(1.,0.,-7.94719416338695E-16));
#953=DIRECTION('',(0.,1.,0.));
#954=DIRECTION('center_axis',(0.,1.,0.));
#955=DIRECTION('ref_axis',(-1.,0.,-6.99353086378052E-16));
#956=DIRECTION('center_axis',(0.,1.,0.));
#957=DIRECTION('ref_axis',(-1.,0.,-6.99353086378052E-16));
#958=DIRECTION('',(0.,1.,0.));
#959=DIRECTION('center_axis',(-1.,0.,-3.17887766535478E-16));
#960=DIRECTION('ref_axis',(-3.17887766535478E-16,0.,1.));
#961=DIRECTION('',(-3.17887766535478E-16,0.,1.));
#962=DIRECTION('',(0.,1.,0.));
#963=DIRECTION('center_axis',(0.,1.,0.));
#964=DIRECTION('ref_axis',(-3.49676543189026E-16,0.,-1.));
#965=DIRECTION('center_axis',(0.,1.,0.));
#966=DIRECTION('ref_axis',(-3.49676543189026E-16,0.,-1.));
#967=DIRECTION('',(0.,1.,0.));
#968=DIRECTION('center_axis',(-1.11260718287417E-15,0.,-1.));
#969=DIRECTION('ref_axis',(-1.,0.,1.11260718287417E-15));
#970=DIRECTION('',(-1.,0.,1.11260718287417E-15));
#971=DIRECTION('',(0.,1.,0.));
#972=DIRECTION('center_axis',(0.,1.,0.));
#973=DIRECTION('ref_axis',(1.,0.,-3.49676543189025E-16));
#974=DIRECTION('center_axis',(0.,1.,0.));
#975=DIRECTION('ref_axis',(1.,0.,-3.49676543189025E-16));
#976=DIRECTION('',(0.,1.,0.));
#977=DIRECTION('center_axis',(1.,0.,-3.17887766535478E-16));
#978=DIRECTION('ref_axis',(-3.17887766535478E-16,0.,-1.));
#979=DIRECTION('',(-3.17887766535478E-16,0.,-1.));
#980=DIRECTION('',(0.,1.,0.));
#981=DIRECTION('center_axis',(0.,1.,0.));
#982=DIRECTION('ref_axis',(3.49676543189026E-16,0.,1.));
#983=DIRECTION('center_axis',(0.,1.,0.));
#984=DIRECTION('ref_axis',(3.49676543189026E-16,0.,1.));
#985=DIRECTION('center_axis',(0.,1.,0.));
#986=DIRECTION('ref_axis',(0.,0.,1.));
#987=CARTESIAN_POINT('',(0.,0.,0.));
#988=CARTESIAN_POINT('Origin',(-0.1715,0.,0.1715));
#989=CARTESIAN_POINT('',(-0.234,-0.0393700787401575,0.1715));
#990=CARTESIAN_POINT('',(-0.1715,-0.0393700787401575,0.234));
#991=CARTESIAN_POINT('Origin',(-0.1715,-0.0393700787401575,0.1715));
#992=CARTESIAN_POINT('',(-0.1715,0.,0.234));
#993=CARTESIAN_POINT('',(-0.1715,0.,0.234));
#994=CARTESIAN_POINT('',(-0.234,0.,0.1715));
#995=CARTESIAN_POINT('Origin',(-0.1715,0.,0.1715));
#996=CARTESIAN_POINT('',(-0.234,0.,0.1715));
#997=CARTESIAN_POINT('Origin',(4.37095678986282E-17,0.,2.18547839493141E-17));
#998=CARTESIAN_POINT('',(0.1715,0.,0.234));
#999=CARTESIAN_POINT('',(0.234,0.,0.234));
#1000=CARTESIAN_POINT('',(0.234,0.,0.1715));
#1001=CARTESIAN_POINT('Origin',(0.1715,0.,0.1715));
#1002=CARTESIAN_POINT('',(0.234,0.,-0.1715));
#1003=CARTESIAN_POINT('',(0.234,0.,-0.234));
#1004=CARTESIAN_POINT('',(0.1715,0.,-0.234));
#1005=CARTESIAN_POINT('Origin',(0.1715,0.,-0.1715));
#1006=CARTESIAN_POINT('',(-0.1715,0.,-0.234));
#1007=CARTESIAN_POINT('',(-0.234,0.,-0.234));
#1008=CARTESIAN_POINT('',(-0.234,0.,-0.1715));
#1009=CARTESIAN_POINT('Origin',(-0.1715,0.,-0.1715));
#1010=CARTESIAN_POINT('',(-0.234,0.,0.234));
#1011=CARTESIAN_POINT('',(-0.1375,0.,0.2));
#1012=CARTESIAN_POINT('',(0.1375,0.,0.2));
#1013=CARTESIAN_POINT('',(-0.1375,0.,0.2));
#1014=CARTESIAN_POINT('',(-0.2,0.,0.1375));
#1015=CARTESIAN_POINT('Origin',(-0.1375,0.,0.1375));
#1016=CARTESIAN_POINT('',(-0.2,0.,-0.1375));
#1017=CARTESIAN_POINT('',(-0.2,0.,-0.1375));
#1018=CARTESIAN_POINT('',(-0.1375,0.,-0.2));
#1019=CARTESIAN_POINT('Origin',(-0.1375,0.,-0.1375));
#1020=CARTESIAN_POINT('',(0.1375,0.,-0.2));
#1021=CARTESIAN_POINT('',(0.1375,0.,-0.2));
#1022=CARTESIAN_POINT('',(0.2,0.,-0.1375));
#1023=CARTESIAN_POINT('Origin',(0.1375,0.,-0.1375));
#1024=CARTESIAN_POINT('',(0.2,0.,0.1375));
#1025=CARTESIAN_POINT('',(0.2,0.,0.1375));
#1026=CARTESIAN_POINT('Origin',(0.1375,0.,0.1375));
#1027=CARTESIAN_POINT('Origin',(0.234,0.,0.234));
#1028=CARTESIAN_POINT('',(0.1715,-0.0393700787401575,0.234));
#1029=CARTESIAN_POINT('',(0.234,-0.0393700787401575,0.234));
#1030=CARTESIAN_POINT('',(0.1715,0.,0.234));
#1031=CARTESIAN_POINT('Origin',(-0.1715,0.,-0.1715));
#1032=CARTESIAN_POINT('',(-0.1715,-0.0393700787401575,-0.234));
#1033=CARTESIAN_POINT('',(-0.234,-0.0393700787401575,-0.1715));
#1034=CARTESIAN_POINT('Origin',(-0.1715,-0.0393700787401575,-0.1715));
#1035=CARTESIAN_POINT('',(-0.234,0.,-0.1715));
#1036=CARTESIAN_POINT('',(-0.1715,0.,-0.234));
#1037=CARTESIAN_POINT('Origin',(4.37095678986282E-17,-0.0393700787401575,
0.));
#1038=CARTESIAN_POINT('',(0.1715,-0.0393700787401575,-0.234));
#1039=CARTESIAN_POINT('',(-0.234,-0.0393700787401575,-0.234));
#1040=CARTESIAN_POINT('',(0.234,-0.0393700787401575,-0.1715));
#1041=CARTESIAN_POINT('Origin',(0.1715,-0.0393700787401575,-0.1715));
#1042=CARTESIAN_POINT('',(0.234,-0.0393700787401575,-0.0590551181102364));
#1043=CARTESIAN_POINT('',(0.234,-0.0393700787401575,-0.234));
#1044=CARTESIAN_POINT('',(0.164734613924901,-0.0393700787401575,-0.0590551181102362));
#1045=CARTESIAN_POINT('',(2.18547839493141E-17,-0.0393700787401575,-0.0590551181102362));
#1046=CARTESIAN_POINT('',(-0.164734613924901,-0.0393700787401575,-0.0590551181102362));
#1047=CARTESIAN_POINT('Origin',(0.,-0.0393700787401575,0.));
#1048=CARTESIAN_POINT('',(-0.234,-0.0393700787401575,-0.0590551181102364));
#1049=CARTESIAN_POINT('',(2.18547839493141E-17,-0.0393700787401575,-0.0590551181102362));
#1050=CARTESIAN_POINT('',(-0.234,-0.0393700787401575,0.234));
#1051=CARTESIAN_POINT('Origin',(-0.234,0.,-0.234));
#1052=CARTESIAN_POINT('',(0.1715,0.,-0.234));
#1053=CARTESIAN_POINT('Origin',(0.1715,0.,-0.1715));
#1054=CARTESIAN_POINT('',(0.234,0.,-0.1715));
#1055=CARTESIAN_POINT('Origin',(0.1715,0.,0.1715));
#1056=CARTESIAN_POINT('',(0.234,-0.0393700787401575,0.1715));
#1057=CARTESIAN_POINT('Origin',(0.1715,-0.0393700787401575,0.1715));
#1058=CARTESIAN_POINT('',(0.234,0.,0.1715));
#1059=CARTESIAN_POINT('Origin',(0.125015748031496,-0.0890549213617351,6.96435188531896E-20));
#1060=CARTESIAN_POINT('',(0.155015748031496,-0.0890549213617351,0.0590551181102362));
#1061=CARTESIAN_POINT('',(0.124953018726385,-0.0590549869445688,0.0590551181102362));
#1062=CARTESIAN_POINT('Origin',(0.125015748031496,-0.0890549213617351,0.0590551181102363));
#1063=CARTESIAN_POINT('',(0.124953018726385,-0.0590549869445688,-0.0590551181102362));
#1064=CARTESIAN_POINT('',(0.124953018726385,-0.0590549869445688,6.96435188531887E-20));
#1065=CARTESIAN_POINT('',(0.155015748031496,-0.0890549213617351,-0.0590551181102362));
#1066=CARTESIAN_POINT('Origin',(0.125015748031496,-0.0890549213617351,-0.0590551181102362));
#1067=CARTESIAN_POINT('',(0.155015748031496,-0.0890549213617351,1.11718737651048E-17));
#1068=CARTESIAN_POINT('Origin',(0.155015748031496,-0.0393700787401575,0.0590551181102362));
#1069=CARTESIAN_POINT('',(0.155015748031496,-0.15748031496063,-0.0590551181102362));
#1070=CARTESIAN_POINT('',(0.155015748031496,-0.0393700787401575,-0.0590551181102362));
#1071=CARTESIAN_POINT('',(0.155015748031496,-0.15748031496063,0.0590551181102362));
#1072=CARTESIAN_POINT('',(0.155015748031496,-0.15748031496063,0.0590551181102362));
#1073=CARTESIAN_POINT('',(0.155015748031496,-0.0393700787401575,0.0590551181102362));
#1074=CARTESIAN_POINT('Origin',(-0.125015748031496,-0.0890549213617352,
-6.96435188530513E-20));
#1075=CARTESIAN_POINT('',(-0.155015748031496,-0.0890549213617352,-0.0590551181102362));
#1076=CARTESIAN_POINT('',(-0.124953018726385,-0.0590549869445689,-0.0590551181102362));
#1077=CARTESIAN_POINT('Origin',(-0.125015748031496,-0.0890549213617352,
-0.0590551181102363));
#1078=CARTESIAN_POINT('',(-0.124953018726385,-0.0590549869445689,0.0590551181102362));
#1079=CARTESIAN_POINT('',(-0.124953018726385,-0.0590549869445689,-6.96435188530511E-20));
#1080=CARTESIAN_POINT('',(-0.155015748031496,-0.0890549213617352,0.0590551181102362));
#1081=CARTESIAN_POINT('Origin',(-0.125015748031496,-0.0890549213617352,
0.0590551181102362));
#1082=CARTESIAN_POINT('',(-0.155015748031496,-0.0890549213617352,-1.11718737651046E-17));
#1083=CARTESIAN_POINT('Origin',(-0.155015748031496,-0.0393700787401575,
-0.0590551181102362));
#1084=CARTESIAN_POINT('',(-0.155015748031496,-0.15748031496063,0.0590551181102362));
#1085=CARTESIAN_POINT('',(-0.155015748031496,-0.0393700787401575,0.0590551181102362));
#1086=CARTESIAN_POINT('',(-0.155015748031496,-0.15748031496063,-0.0590551181102362));
#1087=CARTESIAN_POINT('',(-0.155015748031496,-0.15748031496063,-0.0590551181102362));
#1088=CARTESIAN_POINT('',(-0.155015748031496,-0.0393700787401575,-0.0590551181102362));
#1089=CARTESIAN_POINT('Origin',(0.194507874015748,-0.15748031496063,0.));
#1090=CARTESIAN_POINT('',(0.234,-0.15748031496063,-0.0590551181102364));
#1091=CARTESIAN_POINT('',(0.155015748031496,-0.15748031496063,-0.0590551181102362));
#1092=CARTESIAN_POINT('',(0.234,-0.15748031496063,0.0590551181102364));
#1093=CARTESIAN_POINT('',(0.234,-0.15748031496063,-0.234));
#1094=CARTESIAN_POINT('',(0.234,-0.15748031496063,0.0590551181102364));
#1095=CARTESIAN_POINT('Origin',(-0.194507874015748,-0.15748031496063,0.));
#1096=CARTESIAN_POINT('',(-0.234,-0.15748031496063,0.0590551181102364));
#1097=CARTESIAN_POINT('',(-0.155015748031496,-0.15748031496063,0.0590551181102362));
#1098=CARTESIAN_POINT('',(-0.234,-0.15748031496063,-0.0590551181102364));
#1099=CARTESIAN_POINT('',(-0.234,-0.15748031496063,0.234));
#1100=CARTESIAN_POINT('',(-0.234,-0.15748031496063,-0.0590551181102364));
#1101=CARTESIAN_POINT('Origin',(0.,-0.0393700787401575,-0.0590551181102362));
#1102=CARTESIAN_POINT('',(0.234,-0.0393700787401575,-0.0590551181102364));
#1103=CARTESIAN_POINT('',(0.124827560116163,-0.0590551181102362,-0.0590551181102362));
#1104=CARTESIAN_POINT('Origin',(0.124827560116163,0.000944881889763793,
-0.0590551181102362));
#1105=CARTESIAN_POINT('',(-0.124827560116163,-0.0590551181102362,-0.0590551181102362));
#1106=CARTESIAN_POINT('',(-0.14090451166203,-0.0590551181102362,-0.0590551181102362));
#1107=CARTESIAN_POINT('Origin',(-0.124827560116163,0.000944881889763755,
-0.0590551181102362));
#1108=CARTESIAN_POINT('',(-0.234,-0.0393700787401575,-0.0590551181102364));
#1109=CARTESIAN_POINT('',(-0.164734613924901,-0.0196850393700788,-0.0590551181102362));
#1110=CARTESIAN_POINT('',(-0.164734613924901,-0.0393700787401575,-0.0590551181102362));
#1111=CARTESIAN_POINT('',(0.164734613924901,-0.0196850393700787,-0.0590551181102362));
#1112=CARTESIAN_POINT('',(0.175,-0.0196850393700787,-0.0590551181102362));
#1113=CARTESIAN_POINT('',(0.164734613924901,-0.0393700787401575,-0.0590551181102362));
#1114=CARTESIAN_POINT('Origin',(-0.124827560116163,0.000944881889763755,
0.));
#1115=CARTESIAN_POINT('',(-0.124827560116163,-0.0590551181102362,0.0590551181102362));
#1116=CARTESIAN_POINT('',(-0.124827560116163,-0.0590551181102362,0.));
#1117=CARTESIAN_POINT('Origin',(-0.124827560116163,0.000944881889763755,
0.0590551181102362));
#1118=CARTESIAN_POINT('Origin',(-0.14090451166203,-0.0590551181102362,0.));
#1119=CARTESIAN_POINT('',(0.124827560116163,-0.0590551181102362,0.0590551181102362));
#1120=CARTESIAN_POINT('',(0.124827560116163,-0.0590551181102362,0.));
#1121=CARTESIAN_POINT('',(-0.14090451166203,-0.0590551181102362,0.0590551181102362));
#1122=CARTESIAN_POINT('Origin',(0.124827560116163,0.000944881889763793,
0.));
#1123=CARTESIAN_POINT('Origin',(0.124827560116163,0.000944881889763793,
0.0590551181102362));
#1124=CARTESIAN_POINT('Origin',(0.175,-0.0196850393700787,0.));
#1125=CARTESIAN_POINT('',(-0.164734613924901,-0.0196850393700788,0.0590551181102362));
#1126=CARTESIAN_POINT('',(-0.175,-0.0196850393700788,2.14313189850787E-17));
#1127=CARTESIAN_POINT('Origin',(0.,-0.0196850393700787,0.));
#1128=CARTESIAN_POINT('',(0.164734613924901,-0.0196850393700787,0.0590551181102362));
#1129=CARTESIAN_POINT('',(0.175,-0.0196850393700787,0.0590551181102362));
#1130=CARTESIAN_POINT('Origin',(0.,-0.0196850393700787,0.));
#1131=CARTESIAN_POINT('Origin',(0.,-0.0196850393700787,0.));
#1132=CARTESIAN_POINT('Origin',(0.,-0.0393700787401575,0.0590551181102362));
#1133=CARTESIAN_POINT('',(0.164734613924901,-0.0393700787401575,0.0590551181102362));
#1134=CARTESIAN_POINT('',(0.164734613924901,-0.0393700787401575,0.0590551181102362));
#1135=CARTESIAN_POINT('',(-0.164734613924901,-0.0393700787401575,0.0590551181102362));
#1136=CARTESIAN_POINT('',(-0.164734613924901,-0.0393700787401575,0.0590551181102362));
#1137=CARTESIAN_POINT('',(-0.234,-0.0393700787401575,0.0590551181102364));
#1138=CARTESIAN_POINT('',(-0.0775078740157479,-0.0393700787401575,0.0590551181102361));
#1139=CARTESIAN_POINT('',(-0.234,-0.0393700787401575,0.0590551181102364));
#1140=CARTESIAN_POINT('',(0.234,-0.0393700787401575,0.0590551181102364));
#1141=CARTESIAN_POINT('',(0.234,-0.0393700787401575,0.0590551181102364));
#1142=CARTESIAN_POINT('',(0.117,-0.0393700787401575,0.0590551181102362));
#1143=CARTESIAN_POINT('Origin',(0.,-0.0393700787401575,0.));
#1144=CARTESIAN_POINT('',(-0.175,0.0511811023622047,2.14313189850787E-17));
#1145=CARTESIAN_POINT('',(-0.175,-0.0393700787401575,2.14313189850787E-17));
#1146=CARTESIAN_POINT('Origin',(0.,0.0511811023622047,0.));
#1147=CARTESIAN_POINT('Origin',(0.,-0.0393700787401575,0.));
#1148=CARTESIAN_POINT('Origin',(-4.2979840495857E-17,0.800339259350393,
0.));
#1149=CARTESIAN_POINT('',(-0.16875,0.0984251968503937,0.));
#1150=CARTESIAN_POINT('Origin',(-4.2979840495857E-17,0.0984251968503937,
0.));
#1151=CARTESIAN_POINT('Origin',(0.,0.0511811023622047,0.));
#1152=CARTESIAN_POINT('Origin',(0.234,0.,-0.234));
#1153=CARTESIAN_POINT('',(0.234,-0.0393700787401575,-0.234));
#1154=CARTESIAN_POINT('Origin',(-0.234,0.,0.234));
#1155=CARTESIAN_POINT('',(-0.234,-0.0393700787401575,0.234));
#1156=CARTESIAN_POINT('Origin',(4.37095678986282E-17,-0.0393700787401575,
0.));
#1157=CARTESIAN_POINT('Origin',(-0.1375,0.,0.2));
#1158=CARTESIAN_POINT('',(0.1375,0.0984251968503937,0.2));
#1159=CARTESIAN_POINT('',(0.1375,0.,0.2));
#1160=CARTESIAN_POINT('',(-0.1375,0.0984251968503937,0.2));
#1161=CARTESIAN_POINT('',(-0.1375,0.0984251968503937,0.2));
#1162=CARTESIAN_POINT('',(-0.1375,0.,0.2));
#1163=CARTESIAN_POINT('Origin',(-0.1375,0.,0.1375));
#1164=CARTESIAN_POINT('',(-0.2,0.0984251968503937,0.1375));
#1165=CARTESIAN_POINT('Origin',(-0.1375,0.0984251968503937,0.1375));
#1166=CARTESIAN_POINT('',(-0.2,0.,0.1375));
#1167=CARTESIAN_POINT('Origin',(-0.2,0.,-0.1375));
#1168=CARTESIAN_POINT('',(-0.2,0.0984251968503937,-0.1375));
#1169=CARTESIAN_POINT('',(-0.2,0.0984251968503937,-0.1375));
#1170=CARTESIAN_POINT('',(-0.2,0.,-0.1375));
#1171=CARTESIAN_POINT('Origin',(-0.1375,0.,-0.1375));
#1172=CARTESIAN_POINT('',(-0.1375,0.0984251968503937,-0.2));
#1173=CARTESIAN_POINT('Origin',(-0.1375,0.0984251968503937,-0.1375));
#1174=CARTESIAN_POINT('',(-0.1375,0.,-0.2));
#1175=CARTESIAN_POINT('Origin',(0.1375,0.,-0.2));
#1176=CARTESIAN_POINT('',(0.1375,0.0984251968503937,-0.2));
#1177=CARTESIAN_POINT('',(0.1375,0.0984251968503937,-0.2));
#1178=CARTESIAN_POINT('',(0.1375,0.,-0.2));
#1179=CARTESIAN_POINT('Origin',(0.1375,0.,-0.1375));
#1180=CARTESIAN_POINT('',(0.2,0.0984251968503937,-0.1375));
#1181=CARTESIAN_POINT('Origin',(0.1375,0.0984251968503937,-0.1375));
#1182=CARTESIAN_POINT('',(0.2,0.,-0.1375));
#1183=CARTESIAN_POINT('Origin',(0.2,0.,0.1375));
#1184=CARTESIAN_POINT('',(0.2,0.0984251968503937,0.1375));
#1185=CARTESIAN_POINT('',(0.2,0.0984251968503937,0.1375));
#1186=CARTESIAN_POINT('',(0.2,0.,0.1375));
#1187=CARTESIAN_POINT('Origin',(0.1375,0.,0.1375));
#1188=CARTESIAN_POINT('Origin',(0.1375,0.0984251968503937,0.1375));
#1189=CARTESIAN_POINT('Origin',(2.18547839493141E-17,0.0984251968503937,
-4.37095678986282E-17));
#1190=UNCERTAINTY_MEASURE_WITH_UNIT(LENGTH_MEASURE(0.000393700787401575),
#1196,'DISTANCE_ACCURACY_VALUE',
'Maximum model space distance between geometric entities at asserted c
onnectivities');
#1191=UNCERTAINTY_MEASURE_WITH_UNIT(LENGTH_MEASURE(0.000393700787401575),
#1196,'DISTANCE_ACCURACY_VALUE',
'Maximum model space distance between geometric entities at asserted c
onnectivities');
#1192=(
GEOMETRIC_REPRESENTATION_CONTEXT(3)
GLOBAL_UNCERTAINTY_ASSIGNED_CONTEXT((#1190))
GLOBAL_UNIT_ASSIGNED_CONTEXT((#1196,#1200,#1201))
REPRESENTATION_CONTEXT('','3D')
);
#1193=(
GEOMETRIC_REPRESENTATION_CONTEXT(3)
GLOBAL_UNCERTAINTY_ASSIGNED_CONTEXT((#1191))
GLOBAL_UNIT_ASSIGNED_CONTEXT((#1196,#1200,#1201))
REPRESENTATION_CONTEXT('','3D')
);
#1194=DIMENSIONAL_EXPONENTS(1.,0.,0.,0.,0.,0.,0.);
#1195=DIMENSIONAL_EXPONENTS(0.,1.,0.,0.,0.,0.,0.);
#1196=(
CONVERSION_BASED_UNIT('inch',#1199)
LENGTH_UNIT()
NAMED_UNIT(#1194)
);
#1197=(
LENGTH_UNIT()
NAMED_UNIT(*)
SI_UNIT(.MILLI.,.METRE.)
);
#1198=(
LENGTH_UNIT()
NAMED_UNIT(*)
SI_UNIT(.CENTI.,.METRE.)
);
#1199=LENGTH_MEASURE_WITH_UNIT(LENGTH_MEASURE(25.4),#1197);
#1200=(
NAMED_UNIT(*)
PLANE_ANGLE_UNIT()
SI_UNIT($,.RADIAN.)
);
#1201=(
NAMED_UNIT(*)
SI_UNIT($,.STERADIAN.)
SOLID_ANGLE_UNIT()
);
#1202=SHAPE_DEFINITION_REPRESENTATION(#1203,#1204);
#1203=PRODUCT_DEFINITION_SHAPE('',$,#1206);
#1204=SHAPE_REPRESENTATION('',(#717),#1192);
#1205=PRODUCT_DEFINITION_CONTEXT('part definition',#1210,'design');
#1206=PRODUCT_DEFINITION('Development Button Square',
'Development Button Square',#1207,#1205);
#1207=PRODUCT_DEFINITION_FORMATION('',$,#1212);
#1208=PRODUCT_RELATED_PRODUCT_CATEGORY('Development Button Square',
'Development Button Square',(#1212));
#1209=APPLICATION_PROTOCOL_DEFINITION('international standard',
'automotive_design',2009,#1210);
#1210=APPLICATION_CONTEXT(
'Core Data for Automotive Mechanical Design Process');
#1211=PRODUCT_CONTEXT('part definition',#1210,'mechanical');
#1212=PRODUCT('Development Button Square','Development Button Square',$,
(#1211));
#1213=PRESENTATION_STYLE_ASSIGNMENT((#1214));
#1214=SURFACE_STYLE_USAGE(.BOTH.,#1217);
#1215=SURFACE_STYLE_RENDERING_WITH_PROPERTIES($,#1221,(#1216));
#1216=SURFACE_STYLE_TRANSPARENT(0.);
#1217=SURFACE_SIDE_STYLE('',(#1218,#1215));
#1218=SURFACE_STYLE_FILL_AREA(#1219);
#1219=FILL_AREA_STYLE('',(#1220));
#1220=FILL_AREA_STYLE_COLOUR('',#1221);
#1221=COLOUR_RGB('',0.0196078431372549,0.0196078431372549,0.0196078431372549);
ENDSEC;
END-ISO-10303-21;
